M48
;Layer_Color=9474304
;FILE_FORMAT=2:5
INCH,LZ
;TYPE=PLATED
T1F00S00C0.01181
T3F00S00C0.03150
T4F00S00C0.03500
T5F00S00C0.03543
T6F00S00C0.03937
T7F00S00C0.10000
T8F00S00C0.10827
;TYPE=NON_PLATED
T9F00S00C0.04724
T10F00S00C0.07874
%
T01
X0023622Y0003937
X003937
X0059055
X007874
X0098425
X011811
X0133858
X0153543
X0177165
X019685
X0216535
X0236221
X0232283Y0019685
X0251969Y0027559
X0243701Y0047638
X0208268Y0050787
X0203543Y0053937
X0204724Y0063779
Y007441
X0203543Y0083858
Y0096457
Y0108268
Y0115748
X020748Y013189
X0211417Y0140551
X0214567Y0146457
X0208661Y0168898
X02Y0167717
X0244094Y0131102
X0213779Y006063
X02Y0032677
X0187402Y0033071
X0189764Y0025591
X0176772Y0030315
X0184252Y0041732
X0184646Y0047638
Y0053937
X018937Y0063779
Y007441
Y0083858
Y009685
Y0108268
Y0115748
X0161811
Y0107874
X015Y0111417
Y0116142
X0155905Y013189
X0158268Y0135433
X0153543Y0138189
X0147638Y0151181
X0157087Y0159055
X0169291
X017126Y0151181
Y0141339
X0181102
Y0151181
X0190551Y0155512
X0193701Y0149606
X0194488Y0167717
X0188976
X0171653Y017126
X0109843Y0170079
X009252Y0172047
X0099213Y0148425
X0111417
X0111024Y0133858
X0099213
Y011811
X0111417
X0088583Y0108268
Y0098425
X0068898
Y0108268
X0062992Y011811
Y0133858
Y0145669
X0043307
Y0133858
Y0161417
X0062992Y0169291
X0047244Y0108268
Y0098425
Y0059055
X0068898
Y0068898
X0090551
Y0059055
X0110236
Y0068898
X0125197Y0059055
X0128347
X0122047Y0041339
X0110236
X012874Y0030315
Y0023622
X0140945
X0148819Y0045669
X0153543Y0041339
X0162598Y005
X0158268Y0055118
X0150394Y0063386
X0148031Y0075197
X0167323Y007441
Y0063779
Y0094095
X0130709Y0100394
X007874Y0031496
X0059055Y0023622
X003937
X0027165Y0044882
X0003937Y003937
Y0023622
Y0059055
X0014961Y0073622
Y0093307
Y0103543
X0015748Y011811
Y0137795
X0023622Y0145669
X0003937
Y0169291
X0023622Y0165354
X0026027Y0203739
X0003937Y019685
X0044882Y0216535
X0059055
X007874
X009252
X0097244Y018937
X0105905Y0187008
X0119685Y0183071
X015748Y0180709
Y0196457
X0177165
Y0180709
X0176063Y0176378
X019685Y0180709
Y0196457
Y0216535
X0177165
X015748
X0137795
X0232283
X0240158Y0192913
X0251969Y019685
X0240158Y0177165
X0216535Y0180709
Y0196457
T03
X0012205Y003915
X0020079
X0037402Y0178347
X0045276
X0064173Y0200984
X0072047
X0079921
X0087795
X0106693Y0178347
X0114567
T04
X0120709Y0067795
Y0077795
Y0087795
Y0097795
Y0107795
Y0117795
Y0127795
Y0137795
X0030709
Y0127795
Y0117795
Y0107795
Y0097795
Y0087795
Y0077795
Y0067795
T05
X0094724Y0014173
X0104724
X0114724
X0156299Y0013386
X0166299
X0176299
X0186299
X0196299
X0206299
X0222047
X025Y0035827
Y0045827
Y0055827
Y0065827
Y0075827
Y0085827
Y0095827
Y0105827
Y0115827
Y0125827
Y0135827
Y0145827
Y0155827
Y0165827
X0237402Y0155827
Y0145827
Y0135827
Y0125827
Y0115827
Y0105827
Y0095827
Y0085827
Y0075827
Y0065827
X0128898Y0189606
Y0199606
X025Y0185827
Y0175827
T06
X022122Y0045449
Y0055449
Y0065449
Y0075449
Y0085449
Y0095449
Y0105449
Y0115449
Y0125449
Y0135449
Y0145449
Y0155449
X014122
Y0145449
Y0135449
Y0125449
Y0115449
Y0105449
Y0095449
Y0085449
Y0075449
Y0065449
Y0055449
Y0045449
Y0165449
Y0175449
Y0185449
Y0195449
T07
X0216219Y0030449
X0146219
Y0210448
X0216219
T08
X001378Y001378
X0242126
X001378Y0206693
X0242126
T09
X0055315Y0011811
T10
X0075709Y0127795
X0118209Y0157795
X0033209
Y0214291
X0118209
M30
