G04 Layer_Physical_Order=2*
G04 Layer_Color=16711680*
%FSLAX25Y25*%
%MOIN*%
G70*
G01*
G75*
%ADD10C,0.01575*%
%ADD11R,0.02953X0.03150*%
%ADD13R,0.05906X0.05906*%
%ADD14R,0.03150X0.02953*%
%ADD15C,0.03937*%
%ADD16C,0.00787*%
%ADD17C,0.00800*%
%ADD18C,0.02362*%
%ADD21C,0.11811*%
%ADD22C,0.06299*%
%ADD23R,0.06299X0.06299*%
%ADD24C,0.05906*%
%ADD25C,0.06500*%
%ADD26R,0.06500X0.06500*%
%ADD27R,0.05906X0.05906*%
%ADD28O,0.04724X0.09449*%
%ADD29C,0.04528*%
%ADD30C,0.23622*%
%ADD31C,0.06693*%
%ADD32R,0.06693X0.06693*%
%ADD33C,0.02362*%
%ADD34C,0.00984*%
%ADD35C,0.01969*%
%ADD36O,0.01575X0.00787*%
%ADD37R,0.01181X0.03701*%
%ADD38R,0.05118X0.09449*%
%ADD39R,0.06693X0.05512*%
%ADD40R,0.05512X0.06693*%
%ADD41C,0.03150*%
%ADD42C,0.01181*%
%ADD43C,0.00591*%
%ADD44R,0.19291X0.06693*%
%ADD45R,0.03543X0.25590*%
%ADD46R,0.04331X0.11811*%
%ADD47R,0.04724X0.01575*%
%ADD48R,0.01969X0.03150*%
G36*
X236412Y217962D02*
X236389Y217953D01*
X234698Y216917D01*
X233190Y215629D01*
X231902Y214121D01*
X230866Y212430D01*
X230107Y210598D01*
X229644Y208670D01*
X229520Y207087D01*
X242126D01*
Y206693D01*
X242520D01*
Y194087D01*
X244103Y194211D01*
X246031Y194674D01*
X247863Y195433D01*
X249554Y196469D01*
X251062Y197757D01*
X252350Y199265D01*
X253386Y200956D01*
X253396Y200979D01*
X253975Y200864D01*
Y190279D01*
X245547D01*
Y181374D01*
X253975D01*
Y178931D01*
X253384Y178731D01*
X253176Y179002D01*
X252246Y179716D01*
X251162Y180165D01*
X250000Y180318D01*
X248838Y180165D01*
X247754Y179716D01*
X246824Y179002D01*
X246111Y178072D01*
X245662Y176989D01*
X245509Y175827D01*
X245558Y175454D01*
X226461Y156357D01*
X225870Y156601D01*
Y160098D01*
X216571D01*
Y150799D01*
X224054D01*
Y149794D01*
X223463Y149553D01*
X222434Y149979D01*
X221220Y150138D01*
X220007Y149979D01*
X218876Y149510D01*
X217904Y148765D01*
X217159Y147794D01*
X216690Y146663D01*
X216531Y145449D01*
X216690Y144235D01*
X217159Y143104D01*
X217904Y142133D01*
X218876Y141387D01*
X220007Y140919D01*
X221220Y140759D01*
X222434Y140919D01*
X223463Y141345D01*
X224054Y141104D01*
Y139794D01*
X223463Y139553D01*
X222434Y139979D01*
X221220Y140138D01*
X220007Y139979D01*
X218876Y139510D01*
X217904Y138765D01*
X217423Y138137D01*
X199476D01*
X199213Y138172D01*
X197999Y138012D01*
X196996Y137597D01*
X196405Y137853D01*
Y149606D01*
X196313Y150306D01*
X196043Y150958D01*
X195613Y151518D01*
X195053Y151948D01*
X194401Y152218D01*
X193701Y152311D01*
X193001Y152218D01*
X192349Y151948D01*
X191789Y151518D01*
X191359Y150958D01*
X191089Y150306D01*
X190997Y149606D01*
Y57813D01*
X182734Y49550D01*
X182304Y48990D01*
X182034Y48338D01*
X181988Y47988D01*
X181941Y47638D01*
X181988Y47288D01*
X182034Y46938D01*
X182304Y46286D01*
X182734Y45726D01*
X183216Y45356D01*
X183352Y45014D01*
X183411Y44716D01*
X182340Y43644D01*
X181910Y43084D01*
X181640Y42432D01*
X181594Y42082D01*
X181548Y41732D01*
X180963Y41658D01*
X171925D01*
Y39152D01*
X171380Y38926D01*
X145788Y64518D01*
X145910Y65449D01*
X145750Y66663D01*
X145282Y67794D01*
X144537Y68765D01*
X143565Y69510D01*
X142434Y69979D01*
X141220Y70139D01*
X140007Y69979D01*
X139599Y69810D01*
X138404Y71005D01*
X138794Y71450D01*
X138876Y71387D01*
X140007Y70919D01*
X141220Y70759D01*
X142434Y70919D01*
X143565Y71387D01*
X144537Y72133D01*
X145282Y73104D01*
X145750Y74235D01*
X145910Y75449D01*
X145750Y76663D01*
X145579Y77077D01*
X159633Y91131D01*
X160052Y91757D01*
X160198Y92496D01*
Y133545D01*
X160610Y134081D01*
X160880Y134733D01*
X160972Y135433D01*
X160880Y136133D01*
X160610Y136785D01*
X160180Y137345D01*
X159620Y137775D01*
X158968Y138045D01*
X158268Y138137D01*
X157568Y138045D01*
X156916Y137775D01*
X156774Y137667D01*
X156221Y137986D01*
X156248Y138189D01*
X156155Y138889D01*
X155885Y139541D01*
X155456Y140101D01*
X154895Y140531D01*
X154243Y140801D01*
X153543Y140893D01*
X152843Y140801D01*
X152191Y140531D01*
X151631Y140101D01*
X151201Y139541D01*
X150931Y138889D01*
X150866Y138397D01*
X150825Y138189D01*
X150866Y137981D01*
X150931Y137489D01*
X151201Y136837D01*
X151612Y136301D01*
Y108571D01*
X145634Y102593D01*
X145190Y102984D01*
X145282Y103104D01*
X145750Y104235D01*
X145910Y105449D01*
X145750Y106663D01*
X145282Y107794D01*
X144537Y108765D01*
X143565Y109510D01*
X142434Y109979D01*
X141220Y110138D01*
X140007Y109979D01*
X138876Y109510D01*
X137904Y108765D01*
X137514Y108256D01*
X136924Y108275D01*
X136803Y108456D01*
X126094Y119165D01*
X125466Y119585D01*
X125077Y119662D01*
X124858Y120191D01*
X124096Y121183D01*
X123104Y121944D01*
X121949Y122423D01*
X121383Y122497D01*
Y123093D01*
X121949Y123168D01*
X123104Y123646D01*
X124096Y124407D01*
X124858Y125400D01*
X125336Y126555D01*
X125500Y127795D01*
X125336Y129035D01*
X124858Y130191D01*
X124096Y131183D01*
X123104Y131944D01*
X121949Y132423D01*
X121708Y132455D01*
X121747Y133045D01*
X125459D01*
Y142545D01*
X115959D01*
Y133045D01*
X119671D01*
X119710Y132455D01*
X119469Y132423D01*
X118313Y131944D01*
X117321Y131183D01*
X116560Y130191D01*
X116081Y129035D01*
X115918Y127795D01*
X116081Y126555D01*
X116560Y125400D01*
X117321Y124407D01*
X118313Y123646D01*
X119469Y123168D01*
X120034Y123093D01*
Y122497D01*
X119469Y122423D01*
X118313Y121944D01*
X117321Y121183D01*
X116560Y120191D01*
X116081Y119035D01*
X115918Y117795D01*
X116081Y116555D01*
X116560Y115400D01*
X117321Y114408D01*
X118313Y113646D01*
X119469Y113168D01*
X120034Y113093D01*
Y112497D01*
X119469Y112423D01*
X118313Y111944D01*
X117321Y111183D01*
X116560Y110191D01*
X116081Y109035D01*
X116037Y108702D01*
X115478Y108512D01*
X114751Y109239D01*
X114125Y109658D01*
X113386Y109805D01*
X110060D01*
X109825Y109985D01*
X109411Y110156D01*
Y115748D01*
X109411Y115748D01*
Y152318D01*
X109984Y152462D01*
X110048Y152342D01*
X111268Y150855D01*
X112756Y149634D01*
X114453Y148727D01*
X116294Y148169D01*
X118209Y147980D01*
X120124Y148169D01*
X121965Y148727D01*
X123662Y149634D01*
X125149Y150855D01*
X126370Y152342D01*
X127277Y154039D01*
X127835Y155880D01*
X128024Y157795D01*
X127835Y159710D01*
X127277Y161551D01*
X126370Y163248D01*
X125149Y164735D01*
X123662Y165956D01*
X121965Y166863D01*
X120124Y167422D01*
X118209Y167610D01*
X116294Y167422D01*
X114453Y166863D01*
X112756Y165956D01*
X111268Y164735D01*
X110048Y163248D01*
X109984Y163129D01*
X109411Y163272D01*
Y164062D01*
X109511Y164567D01*
X109357Y165344D01*
X108917Y166003D01*
X103212Y171707D01*
Y174660D01*
X103803Y174952D01*
X104447Y174457D01*
X105531Y174008D01*
X106693Y173855D01*
X107855Y174008D01*
X108939Y174457D01*
X109869Y175171D01*
X110582Y176101D01*
X110731Y176460D01*
X110786D01*
X111346Y176400D01*
X111899Y175679D01*
X112681Y175079D01*
X113591Y174703D01*
X114173Y174626D01*
Y178346D01*
Y182067D01*
X113591Y181990D01*
X112681Y181614D01*
X111899Y181014D01*
X111346Y180292D01*
X110786Y180233D01*
X110731D01*
X110582Y180592D01*
X109869Y181522D01*
X108939Y182236D01*
X107855Y182685D01*
X106693Y182838D01*
X105531Y182685D01*
X105120Y182514D01*
X104785Y183015D01*
X106099Y184329D01*
X106605Y184396D01*
X107258Y184666D01*
X107818Y185096D01*
X108247Y185656D01*
X108518Y186308D01*
X108610Y187008D01*
X108518Y187708D01*
X108247Y188360D01*
X107937Y188765D01*
Y190279D01*
X108250Y190409D01*
X109222Y191154D01*
X109967Y192126D01*
X110196Y192677D01*
X110293Y192824D01*
X110448Y193601D01*
X110293Y194378D01*
X110220Y194488D01*
X110293Y194598D01*
X110448Y195375D01*
X110293Y196152D01*
X110196Y196299D01*
X109967Y196851D01*
X109222Y197822D01*
X108250Y198567D01*
X107119Y199036D01*
X106041Y199178D01*
X105849Y199637D01*
X105831Y199780D01*
Y205390D01*
Y211343D01*
X94169D01*
Y210600D01*
X83465D01*
X82572Y210422D01*
X81815Y209917D01*
X78272Y206374D01*
X77767Y205617D01*
X77609Y204822D01*
X76745Y204160D01*
X76356Y203653D01*
X75612D01*
X75223Y204160D01*
X74293Y204874D01*
X73210Y205322D01*
X72047Y205475D01*
X70885Y205322D01*
X69802Y204874D01*
X68871Y204160D01*
X68482Y203653D01*
X67738D01*
X67349Y204160D01*
X66419Y204874D01*
X65336Y205322D01*
X64173Y205475D01*
X63011Y205322D01*
X61928Y204874D01*
X60997Y204160D01*
X60284Y203230D01*
X59835Y202147D01*
X59682Y200984D01*
X59835Y199822D01*
X60284Y198739D01*
X60997Y197809D01*
X61928Y197095D01*
X63011Y196646D01*
X64173Y196493D01*
X65336Y196646D01*
X66419Y197095D01*
X67349Y197809D01*
X67738Y198316D01*
X68482D01*
X68871Y197809D01*
X69802Y197095D01*
X70885Y196646D01*
X72047Y196493D01*
X73210Y196646D01*
X74293Y197095D01*
X75223Y197809D01*
X75612Y198316D01*
X76356D01*
X76745Y197809D01*
X77676Y197095D01*
X78759Y196646D01*
X79921Y196493D01*
X81084Y196646D01*
X82167Y197095D01*
X83097Y197809D01*
X83811Y198739D01*
X83960Y199098D01*
X84015D01*
X84574Y199038D01*
X85128Y198317D01*
X85909Y197717D01*
X86819Y197340D01*
X87401Y197264D01*
Y200984D01*
Y204705D01*
X86819Y204628D01*
X85909Y204251D01*
X85128Y203652D01*
X84574Y202930D01*
X84015Y202870D01*
X83960D01*
X83811Y203230D01*
X83097Y204160D01*
X83070Y204575D01*
X84431Y205936D01*
X94169D01*
Y199681D01*
X95213D01*
Y198697D01*
X94899Y198567D01*
X93928Y197822D01*
X93183Y196851D01*
X92954Y196299D01*
X92856Y196152D01*
X92702Y195375D01*
X92856Y194598D01*
X92930Y194488D01*
X92856Y194378D01*
X92702Y193601D01*
X92856Y192824D01*
X92954Y192677D01*
X93183Y192126D01*
X93928Y191154D01*
X94803Y190483D01*
X94632Y190070D01*
X94540Y189370D01*
X94632Y188670D01*
X94902Y188018D01*
X95313Y187482D01*
Y169685D01*
X95460Y168946D01*
X95879Y168320D01*
X102794Y161405D01*
Y116548D01*
X98241Y111995D01*
X97822Y111369D01*
X97676Y110630D01*
Y87795D01*
X97822Y87056D01*
X98241Y86430D01*
X101784Y82887D01*
X102411Y82468D01*
X103150Y82321D01*
X104901D01*
X105136Y82141D01*
X106266Y81673D01*
X107480Y81513D01*
X108694Y81673D01*
X109825Y82141D01*
X110060Y82321D01*
X112586D01*
X113202Y81706D01*
X113828Y81287D01*
X114567Y81140D01*
X116620D01*
X116882Y80610D01*
X116560Y80191D01*
X116081Y79035D01*
X115918Y77795D01*
X116081Y76555D01*
X116560Y75400D01*
X117321Y74408D01*
X118313Y73646D01*
X119469Y73168D01*
X120709Y73004D01*
X121949Y73168D01*
X122676Y73469D01*
X123266Y73074D01*
Y71579D01*
X123209Y71551D01*
X122676Y71351D01*
X121763Y71729D01*
X121102Y71816D01*
Y67795D01*
Y63775D01*
X121763Y63862D01*
X122676Y64240D01*
X123209Y64040D01*
X123266Y64012D01*
Y60943D01*
X122855Y60407D01*
X122585Y59755D01*
X122493Y59055D01*
X122585Y58355D01*
X122855Y57703D01*
X123285Y57143D01*
X123845Y56713D01*
X124497Y56443D01*
X125197Y56351D01*
X125897Y56443D01*
X126549Y56713D01*
X126772Y56884D01*
X126994Y56713D01*
X127647Y56443D01*
X128347Y56351D01*
X129046Y56443D01*
X129581Y56665D01*
X137217Y49028D01*
X137446Y48876D01*
X137542Y48293D01*
X137159Y47794D01*
X136691Y46663D01*
X136531Y45449D01*
X136691Y44235D01*
X137159Y43104D01*
X137904Y42133D01*
X138876Y41387D01*
X140007Y40919D01*
X141220Y40759D01*
X142434Y40919D01*
X143565Y41387D01*
X144537Y42133D01*
X145282Y43104D01*
X145750Y44235D01*
X145910Y45449D01*
X145750Y46663D01*
X145282Y47794D01*
X145175Y47933D01*
X145436Y48463D01*
X148807D01*
X158699Y38570D01*
Y32996D01*
X157555D01*
Y27043D01*
Y21335D01*
X157596D01*
X157822Y20789D01*
X154934Y17901D01*
X154693Y17540D01*
X154054Y17275D01*
X153123Y16562D01*
X152410Y15631D01*
X151961Y14548D01*
X151808Y13386D01*
X151961Y12223D01*
X152410Y11140D01*
X153123Y10210D01*
X154054Y9496D01*
X155137Y9048D01*
X156299Y8895D01*
X157462Y9048D01*
X158545Y9496D01*
X159143Y9956D01*
X159890Y9874D01*
X159929Y9842D01*
X160052Y9658D01*
X162414Y7296D01*
X163041Y6878D01*
X163779Y6731D01*
X195276D01*
X196014Y6878D01*
X196641Y7296D01*
X197664Y8320D01*
X198083Y8946D01*
X198161Y9337D01*
X198545Y9496D01*
X199475Y10210D01*
X200189Y11140D01*
X200637Y12223D01*
X200790Y13386D01*
X200637Y14548D01*
X200189Y15631D01*
X199475Y16562D01*
X199400Y16619D01*
Y20744D01*
X201106D01*
Y23466D01*
X201697Y23583D01*
X201844Y23228D01*
X202589Y22257D01*
X203561Y21511D01*
X203975Y21340D01*
Y17839D01*
X201847D01*
Y8933D01*
X210752D01*
Y17839D01*
X207836D01*
Y21340D01*
X208250Y21511D01*
X209222Y22257D01*
X209967Y23228D01*
X210196Y23780D01*
X210293Y23926D01*
X210448Y24703D01*
X210293Y25481D01*
X210240Y25561D01*
X210282Y25684D01*
X210293Y25700D01*
X210301Y25737D01*
X210429Y26107D01*
X211005Y26252D01*
X211463Y25693D01*
X212483Y24857D01*
X213645Y24236D01*
X214907Y23853D01*
X215825Y23762D01*
Y30055D01*
X209532D01*
X209601Y29359D01*
X209045Y29060D01*
X208250Y29670D01*
X207119Y30138D01*
X205906Y30298D01*
X204692Y30138D01*
X203561Y29670D01*
X203326Y29490D01*
X201106D01*
Y30437D01*
X198744D01*
Y36146D01*
X198681D01*
Y40551D01*
X198541Y41252D01*
X198145Y41846D01*
X197751Y42239D01*
X197157Y42636D01*
X196457Y42775D01*
X195977D01*
X195472Y42876D01*
X194685D01*
X193946Y42729D01*
X193320Y42310D01*
X193231Y42178D01*
X192595D01*
X192507Y42310D01*
X191881Y42729D01*
X191142Y42876D01*
X190354D01*
X189981Y42801D01*
X189657Y43240D01*
X189636Y43292D01*
X201125Y54781D01*
X201125Y54781D01*
X201554Y55341D01*
X201825Y55993D01*
X201917Y56693D01*
X201917Y56693D01*
Y129661D01*
X202529Y130131D01*
X203274Y131102D01*
X203503Y131654D01*
X203600Y131800D01*
X203755Y132578D01*
X203879Y132729D01*
X217355D01*
X217769Y132272D01*
X217768Y132117D01*
X217687Y131732D01*
X217619Y131607D01*
X217139Y131287D01*
X215170Y129318D01*
X214752Y128692D01*
X214605Y127953D01*
Y90134D01*
X214752Y89395D01*
X215170Y88769D01*
X216862Y87077D01*
X216690Y86663D01*
X216531Y85449D01*
X216690Y84235D01*
X217159Y83104D01*
X217904Y82133D01*
X218876Y81387D01*
X220007Y80919D01*
X221220Y80759D01*
X222434Y80919D01*
X223565Y81387D01*
X223686Y81480D01*
X224076Y81035D01*
X222848Y79807D01*
X222434Y79979D01*
X221220Y80138D01*
X220007Y79979D01*
X218876Y79510D01*
X217904Y78765D01*
X217159Y77794D01*
X216690Y76663D01*
X216531Y75449D01*
X216690Y74235D01*
X217159Y73104D01*
X217904Y72133D01*
X218876Y71387D01*
X220007Y70919D01*
X221220Y70759D01*
X222434Y70919D01*
X223565Y71387D01*
X223686Y71480D01*
X224076Y71035D01*
X222848Y69807D01*
X222434Y69979D01*
X221220Y70139D01*
X220007Y69979D01*
X218876Y69510D01*
X217904Y68765D01*
X217159Y67794D01*
X216690Y66663D01*
X216531Y65449D01*
X216690Y64235D01*
X217159Y63104D01*
X217904Y62133D01*
X218876Y61387D01*
X220007Y60919D01*
X221220Y60759D01*
X222434Y60919D01*
X223565Y61387D01*
X224537Y62133D01*
X225282Y63104D01*
X225750Y64235D01*
X225910Y65449D01*
X225750Y66663D01*
X225579Y67077D01*
X231287Y72784D01*
X231705Y73411D01*
X231852Y74150D01*
Y117547D01*
X235924Y121619D01*
X236239Y121489D01*
X237402Y121336D01*
X238564Y121489D01*
X239647Y121937D01*
X240577Y122651D01*
X241291Y123581D01*
X241740Y124664D01*
X241893Y125827D01*
X241740Y126989D01*
X241291Y128072D01*
X240577Y129002D01*
X239647Y129716D01*
X238564Y130165D01*
X237402Y130318D01*
X236239Y130165D01*
X235665Y129927D01*
X235169Y130245D01*
X235128Y130823D01*
X235924Y131619D01*
X236239Y131489D01*
X237402Y131336D01*
X238564Y131489D01*
X239647Y131937D01*
X240577Y132651D01*
X241291Y133581D01*
X241740Y134664D01*
X241893Y135827D01*
X241740Y136989D01*
X241291Y138072D01*
X240577Y139003D01*
X239647Y139716D01*
X238564Y140165D01*
X237402Y140318D01*
X236239Y140165D01*
X235156Y139716D01*
X234226Y139003D01*
X233926Y138612D01*
X233291Y138755D01*
X233250Y138945D01*
X235924Y141619D01*
X236239Y141489D01*
X237402Y141336D01*
X238564Y141489D01*
X239647Y141937D01*
X240577Y142651D01*
X241291Y143581D01*
X241740Y144664D01*
X241893Y145827D01*
X241740Y146989D01*
X241374Y147872D01*
X241672Y148463D01*
X241732D01*
X242471Y148610D01*
X243098Y149028D01*
X245460Y151391D01*
X245878Y152017D01*
X246020Y152729D01*
X246095Y152776D01*
X246616Y152923D01*
X246824Y152651D01*
X247754Y151937D01*
X248838Y151489D01*
X250000Y151336D01*
X251162Y151489D01*
X252246Y151937D01*
X253176Y152651D01*
X253384Y152923D01*
X253975Y152722D01*
Y148931D01*
X253384Y148731D01*
X253176Y149003D01*
X252246Y149716D01*
X251162Y150165D01*
X250000Y150318D01*
X248838Y150165D01*
X247754Y149716D01*
X246824Y149003D01*
X246111Y148072D01*
X245662Y146989D01*
X245509Y145827D01*
X245662Y144664D01*
X246111Y143581D01*
X246824Y142651D01*
X247754Y141937D01*
X248838Y141489D01*
X250000Y141336D01*
X251162Y141489D01*
X252246Y141937D01*
X253176Y142651D01*
X253384Y142923D01*
X253975Y142722D01*
Y138931D01*
X253384Y138731D01*
X253176Y139003D01*
X252246Y139716D01*
X251162Y140165D01*
X250000Y140318D01*
X248838Y140165D01*
X247754Y139716D01*
X246824Y139003D01*
X246111Y138072D01*
X245662Y136989D01*
X245509Y135827D01*
X245662Y134664D01*
X246111Y133581D01*
X246824Y132651D01*
X247754Y131937D01*
X248838Y131489D01*
X250000Y131336D01*
X251162Y131489D01*
X252246Y131937D01*
X253176Y132651D01*
X253384Y132923D01*
X253975Y132722D01*
Y128931D01*
X253384Y128731D01*
X253176Y129002D01*
X252246Y129716D01*
X251162Y130165D01*
X250000Y130318D01*
X248838Y130165D01*
X247754Y129716D01*
X246824Y129002D01*
X246111Y128072D01*
X245662Y126989D01*
X245509Y125827D01*
X245521Y125734D01*
X241508Y121721D01*
X241015Y121078D01*
X240705Y120330D01*
X240624Y119711D01*
X240204Y119468D01*
X240009Y119439D01*
X239647Y119716D01*
X238564Y120165D01*
X237402Y120318D01*
X236239Y120165D01*
X235156Y119716D01*
X234226Y119002D01*
X233512Y118072D01*
X233063Y116989D01*
X232910Y115827D01*
X233063Y114664D01*
X233512Y113581D01*
X234226Y112651D01*
X235156Y111937D01*
X236239Y111489D01*
X237402Y111336D01*
X238564Y111489D01*
X239647Y111937D01*
X240009Y112215D01*
X240599Y111924D01*
Y109730D01*
X240009Y109439D01*
X239647Y109716D01*
X238564Y110165D01*
X237402Y110318D01*
X236239Y110165D01*
X235156Y109716D01*
X234226Y109002D01*
X233512Y108072D01*
X233063Y106989D01*
X232910Y105827D01*
X233063Y104664D01*
X233512Y103581D01*
X234226Y102651D01*
X235156Y101937D01*
X236239Y101489D01*
X237402Y101336D01*
X238564Y101489D01*
X239647Y101937D01*
X240009Y102215D01*
X240599Y101924D01*
Y99730D01*
X240009Y99439D01*
X239647Y99716D01*
X238564Y100165D01*
X237402Y100318D01*
X236239Y100165D01*
X235156Y99716D01*
X234226Y99002D01*
X233512Y98072D01*
X233063Y96989D01*
X232910Y95827D01*
X233063Y94664D01*
X233512Y93581D01*
X234226Y92651D01*
X235156Y91937D01*
X236239Y91489D01*
X237402Y91336D01*
X238564Y91489D01*
X239647Y91937D01*
X240009Y92215D01*
X240599Y91924D01*
Y89730D01*
X240009Y89439D01*
X239647Y89716D01*
X238564Y90165D01*
X237402Y90318D01*
X236239Y90165D01*
X235156Y89716D01*
X234226Y89003D01*
X233512Y88072D01*
X233063Y86989D01*
X232910Y85827D01*
X233063Y84664D01*
X233512Y83581D01*
X234226Y82651D01*
X235156Y81937D01*
X236239Y81489D01*
X237402Y81336D01*
X238564Y81489D01*
X239647Y81937D01*
X240009Y82215D01*
X240599Y81924D01*
Y79730D01*
X240009Y79439D01*
X239647Y79716D01*
X238564Y80165D01*
X237402Y80318D01*
X236239Y80165D01*
X235156Y79716D01*
X234226Y79002D01*
X233512Y78072D01*
X233063Y76989D01*
X232910Y75827D01*
X233063Y74664D01*
X233512Y73581D01*
X234226Y72651D01*
X235156Y71937D01*
X236239Y71489D01*
X237402Y71336D01*
X238564Y71489D01*
X239647Y71937D01*
X240009Y72215D01*
X240599Y71924D01*
Y68674D01*
X240540Y68654D01*
X240009Y68540D01*
X239288Y69094D01*
X238378Y69471D01*
X237795Y69547D01*
Y65827D01*
Y62106D01*
X238378Y62183D01*
X239288Y62560D01*
X240009Y63113D01*
X240540Y62999D01*
X240599Y62979D01*
Y47638D01*
X240705Y46835D01*
X241015Y46087D01*
X241508Y45445D01*
X242150Y44952D01*
X242898Y44642D01*
X243701Y44537D01*
X244503Y44642D01*
X245040Y44864D01*
X245536Y44705D01*
X245706Y44557D01*
X246111Y43581D01*
X246824Y42651D01*
X247754Y41937D01*
X248838Y41489D01*
X250000Y41336D01*
X251162Y41489D01*
X252246Y41937D01*
X253176Y42651D01*
X253384Y42923D01*
X253975Y42722D01*
Y37548D01*
X253384Y37430D01*
X253267Y37713D01*
X252667Y38494D01*
X251886Y39094D01*
X250976Y39471D01*
X250394Y39547D01*
Y35827D01*
Y32106D01*
X250976Y32183D01*
X251886Y32560D01*
X252667Y33159D01*
X253267Y33941D01*
X253384Y34223D01*
X253975Y34106D01*
Y19609D01*
X253396Y19494D01*
X253386Y19517D01*
X252350Y21208D01*
X251062Y22715D01*
X249554Y24003D01*
X247863Y25039D01*
X246031Y25798D01*
X244103Y26261D01*
X242520Y26386D01*
Y13780D01*
X242126D01*
Y13386D01*
X229520D01*
X229644Y11803D01*
X230107Y9874D01*
X230866Y8042D01*
X231902Y6352D01*
X233190Y4843D01*
X234698Y3556D01*
X236389Y2520D01*
X236412Y2510D01*
X236297Y1931D01*
X19609D01*
X19494Y2510D01*
X19517Y2520D01*
X21208Y3556D01*
X22715Y4843D01*
X24003Y6352D01*
X25039Y8042D01*
X25798Y9874D01*
X26261Y11803D01*
X26386Y13386D01*
X13780D01*
Y13780D01*
X13386D01*
Y26386D01*
X11803Y26261D01*
X9874Y25798D01*
X8042Y25039D01*
X6352Y24003D01*
X4843Y22715D01*
X3556Y21208D01*
X2520Y19517D01*
X2510Y19494D01*
X1931Y19609D01*
Y200864D01*
X2510Y200979D01*
X2520Y200956D01*
X3556Y199265D01*
X4843Y197757D01*
X6352Y196469D01*
X8042Y195433D01*
X9874Y194674D01*
X11803Y194211D01*
X13386Y194087D01*
Y206693D01*
X14173D01*
Y194087D01*
X15756Y194211D01*
X17685Y194674D01*
X19517Y195433D01*
X21208Y196469D01*
X22715Y197757D01*
X24003Y199265D01*
X25039Y200956D01*
X25798Y202788D01*
X26261Y204716D01*
X26400Y206479D01*
X26962Y206782D01*
X27756Y206131D01*
X29453Y205223D01*
X31294Y204665D01*
X33209Y204476D01*
X35124Y204665D01*
X36965Y205223D01*
X38662Y206131D01*
X40149Y207351D01*
X41370Y208838D01*
X42276Y210535D01*
X42835Y212376D01*
X43024Y214291D01*
X42835Y216206D01*
X42306Y217951D01*
X42577Y218542D01*
X108841D01*
X109112Y217951D01*
X108582Y216206D01*
X108394Y214291D01*
X108582Y212376D01*
X109141Y210535D01*
X110048Y208838D01*
X111268Y207351D01*
X112756Y206131D01*
X114453Y205223D01*
X116294Y204665D01*
X118209Y204476D01*
X120124Y204665D01*
X121965Y205223D01*
X123662Y206131D01*
X125149Y207351D01*
X126370Y208838D01*
X127277Y210535D01*
X127835Y212376D01*
X128024Y214291D01*
X127835Y216206D01*
X127306Y217951D01*
X127577Y218542D01*
X236297D01*
X236412Y217962D01*
D02*
G37*
G36*
X187205Y35311D02*
X187327Y35311D01*
X187795Y35016D01*
Y33465D01*
X190059D01*
Y33071D01*
X190453D01*
Y30709D01*
X192116D01*
X192421Y30535D01*
X192595Y30231D01*
Y27227D01*
X192004Y27075D01*
X191676Y27503D01*
X191116Y27933D01*
X190464Y28203D01*
X189764Y28295D01*
X189173Y28217D01*
X188640Y28486D01*
X188583Y28524D01*
Y29724D01*
X185433D01*
Y25591D01*
Y21457D01*
X188583D01*
Y22657D01*
X188640Y22695D01*
X189173Y22964D01*
X189764Y22886D01*
X190464Y22978D01*
X191116Y23249D01*
X191676Y23678D01*
X192004Y24106D01*
X192595Y23955D01*
Y20744D01*
X193198D01*
Y16619D01*
X193123Y16562D01*
X192410Y15631D01*
X191961Y14548D01*
X191808Y13386D01*
X191961Y12223D01*
X192410Y11140D01*
X192424Y11122D01*
X192163Y10592D01*
X189614D01*
X189323Y11183D01*
X189566Y11500D01*
X189943Y12410D01*
X190020Y12992D01*
X182579D01*
X182655Y12410D01*
X183032Y11500D01*
X183275Y11183D01*
X182984Y10592D01*
X180436D01*
X180175Y11122D01*
X180189Y11140D01*
X180637Y12223D01*
X180790Y13386D01*
X180637Y14548D01*
X180189Y15631D01*
X179475Y16562D01*
X178545Y17275D01*
X177462Y17724D01*
X176299Y17877D01*
X175137Y17724D01*
X174822Y17594D01*
X173584Y18831D01*
Y22047D01*
X176378D01*
Y25591D01*
Y29134D01*
X173584D01*
Y33146D01*
X181299D01*
X181618Y33146D01*
X181717Y32972D01*
X186614D01*
Y34721D01*
X186614Y34843D01*
X186909Y35311D01*
X187205D01*
D02*
G37*
%LPC*%
G36*
X216613Y217134D02*
Y210842D01*
X222905D01*
X222815Y211760D01*
X222432Y213022D01*
X221811Y214184D01*
X220974Y215203D01*
X219955Y216040D01*
X218793Y216661D01*
X217531Y217044D01*
X216613Y217134D01*
D02*
G37*
G36*
X146613D02*
Y210842D01*
X152905D01*
X152815Y211760D01*
X152432Y213022D01*
X151811Y214184D01*
X150974Y215203D01*
X149955Y216040D01*
X148793Y216661D01*
X147531Y217044D01*
X146613Y217134D01*
D02*
G37*
G36*
X215825D02*
X214907Y217044D01*
X213645Y216661D01*
X212483Y216040D01*
X211463Y215203D01*
X210627Y214184D01*
X210005Y213022D01*
X209623Y211760D01*
X209532Y210842D01*
X215825D01*
Y217134D01*
D02*
G37*
G36*
X145825D02*
X144907Y217044D01*
X143645Y216661D01*
X142482Y216040D01*
X141463Y215203D01*
X140627Y214184D01*
X140006Y213022D01*
X139623Y211760D01*
X139532Y210842D01*
X145825D01*
Y217134D01*
D02*
G37*
G36*
X222905Y210054D02*
X216613D01*
Y203762D01*
X217531Y203852D01*
X218793Y204235D01*
X219955Y204856D01*
X220974Y205693D01*
X221811Y206712D01*
X222432Y207874D01*
X222815Y209136D01*
X222905Y210054D01*
D02*
G37*
G36*
X152905D02*
X146613D01*
Y203762D01*
X147531Y203852D01*
X148793Y204235D01*
X149955Y204856D01*
X150974Y205693D01*
X151811Y206712D01*
X152432Y207874D01*
X152815Y209136D01*
X152905Y210054D01*
D02*
G37*
G36*
X215825D02*
X209532D01*
X209623Y209136D01*
X210005Y207874D01*
X210627Y206712D01*
X211463Y205693D01*
X212483Y204856D01*
X213645Y204235D01*
X214907Y203852D01*
X215825Y203762D01*
Y210054D01*
D02*
G37*
G36*
X145825D02*
X139532D01*
X139623Y209136D01*
X140006Y207874D01*
X140627Y206712D01*
X141463Y205693D01*
X142482Y204856D01*
X143645Y204235D01*
X144907Y203852D01*
X145825Y203762D01*
Y210054D01*
D02*
G37*
G36*
X88189Y204705D02*
Y201378D01*
X91516D01*
X91439Y201961D01*
X91062Y202870D01*
X90463Y203652D01*
X89682Y204251D01*
X88772Y204628D01*
X88189Y204705D01*
D02*
G37*
G36*
X91516Y200590D02*
X88189D01*
Y197264D01*
X88772Y197340D01*
X89682Y197717D01*
X90463Y198317D01*
X91062Y199098D01*
X91439Y200008D01*
X91516Y200590D01*
D02*
G37*
G36*
X133350Y204059D02*
X124445D01*
Y195153D01*
X133350D01*
Y204059D01*
D02*
G37*
G36*
X241732Y206299D02*
X229520D01*
X229644Y204716D01*
X230107Y202788D01*
X230866Y200956D01*
X231902Y199265D01*
X233190Y197757D01*
X234698Y196469D01*
X236389Y195433D01*
X238221Y194674D01*
X240149Y194211D01*
X241732Y194087D01*
Y206299D01*
D02*
G37*
G36*
X145870Y200098D02*
X136571D01*
Y190799D01*
X145870D01*
Y200098D01*
D02*
G37*
G36*
X129291Y193327D02*
Y190000D01*
X132618D01*
X132542Y190583D01*
X132165Y191492D01*
X131565Y192274D01*
X130784Y192873D01*
X129874Y193250D01*
X129291Y193327D01*
D02*
G37*
G36*
X128504D02*
X127921Y193250D01*
X127011Y192873D01*
X126230Y192274D01*
X125631Y191492D01*
X125254Y190583D01*
X125177Y190000D01*
X128504D01*
Y193327D01*
D02*
G37*
G36*
X132618Y189213D02*
X129291D01*
Y185886D01*
X129874Y185962D01*
X130784Y186339D01*
X131565Y186939D01*
X132165Y187720D01*
X132542Y188630D01*
X132618Y189213D01*
D02*
G37*
G36*
X128504D02*
X125177D01*
X125254Y188630D01*
X125631Y187720D01*
X126230Y186939D01*
X127011Y186339D01*
X127921Y185962D01*
X128504Y185886D01*
Y189213D01*
D02*
G37*
G36*
X114961Y182067D02*
Y178740D01*
X118288D01*
X118211Y179323D01*
X117834Y180233D01*
X117234Y181014D01*
X116453Y181614D01*
X115543Y181990D01*
X114961Y182067D01*
D02*
G37*
G36*
X45669D02*
Y178740D01*
X48996D01*
X48919Y179323D01*
X48543Y180233D01*
X47943Y181014D01*
X47162Y181614D01*
X46252Y181990D01*
X45669Y182067D01*
D02*
G37*
G36*
X37402Y182838D02*
X36239Y182685D01*
X35156Y182236D01*
X34226Y181522D01*
X33512Y180592D01*
X33063Y179509D01*
X32910Y178347D01*
X33063Y177184D01*
X33512Y176101D01*
X34226Y175171D01*
X35156Y174457D01*
X36239Y174008D01*
X37402Y173855D01*
X38564Y174008D01*
X39647Y174457D01*
X40577Y175171D01*
X41291Y176101D01*
X41440Y176460D01*
X41495D01*
X42054Y176400D01*
X42608Y175679D01*
X43389Y175079D01*
X44299Y174703D01*
X44882Y174626D01*
Y178346D01*
Y182067D01*
X44299Y181990D01*
X43389Y181614D01*
X42608Y181014D01*
X42054Y180292D01*
X41495Y180233D01*
X41440D01*
X41291Y180592D01*
X40577Y181522D01*
X39647Y182236D01*
X38564Y182685D01*
X37402Y182838D01*
D02*
G37*
G36*
X118288Y177953D02*
X114961D01*
Y174626D01*
X115543Y174703D01*
X116453Y175079D01*
X117234Y175679D01*
X117834Y176460D01*
X118211Y177370D01*
X118288Y177953D01*
D02*
G37*
G36*
X48996Y177953D02*
X45669D01*
Y174626D01*
X46252Y174703D01*
X47162Y175079D01*
X47943Y175679D01*
X48543Y176460D01*
X48919Y177370D01*
X48996Y177953D01*
D02*
G37*
G36*
X141220Y190138D02*
X140007Y189979D01*
X138876Y189510D01*
X137904Y188765D01*
X137159Y187794D01*
X136691Y186663D01*
X136531Y185449D01*
X136691Y184235D01*
X137159Y183104D01*
X137904Y182133D01*
X138876Y181387D01*
X140007Y180919D01*
X141220Y180759D01*
X142434Y180919D01*
X143565Y181387D01*
X144537Y182133D01*
X145282Y183104D01*
X145290Y183123D01*
X159900D01*
X160024Y182971D01*
X160179Y182194D01*
X160277Y182048D01*
X160505Y181496D01*
X161251Y180524D01*
X161466Y180360D01*
Y178740D01*
X161571Y177937D01*
X161700Y177628D01*
X161881Y177190D01*
X162374Y176547D01*
X164736Y174185D01*
X165378Y173692D01*
X166126Y173382D01*
X166929Y173277D01*
X176063D01*
X176866Y173382D01*
X177614Y173692D01*
X178256Y174185D01*
X178749Y174827D01*
X179059Y175575D01*
X179164Y176378D01*
X179059Y177181D01*
X178749Y177929D01*
X178256Y178571D01*
X177614Y179064D01*
X176866Y179374D01*
X176063Y179479D01*
X168281D01*
X167853Y179921D01*
X167883Y180524D01*
X168628Y181496D01*
X168857Y182048D01*
X168955Y182194D01*
X169109Y182971D01*
X168955Y183748D01*
X168881Y183858D01*
X168955Y183968D01*
X169109Y184745D01*
X168955Y185523D01*
X168857Y185669D01*
X168628Y186221D01*
X167883Y187192D01*
X166912Y187937D01*
X165781Y188406D01*
X164567Y188566D01*
X164303Y188531D01*
X144716D01*
X144537Y188765D01*
X143565Y189510D01*
X142434Y189979D01*
X141220Y190138D01*
D02*
G37*
G36*
Y180139D02*
X140007Y179979D01*
X138876Y179510D01*
X137904Y178765D01*
X137159Y177794D01*
X136691Y176663D01*
X136531Y175449D01*
X136691Y174235D01*
X137159Y173104D01*
X137904Y172133D01*
X138876Y171387D01*
X140007Y170919D01*
X141220Y170759D01*
X142434Y170919D01*
X143565Y171387D01*
X144537Y172133D01*
X145282Y173104D01*
X145750Y174235D01*
X145910Y175449D01*
X145750Y176663D01*
X145282Y177794D01*
X144537Y178765D01*
X143565Y179510D01*
X142434Y179979D01*
X141220Y180139D01*
D02*
G37*
G36*
X200000Y170421D02*
X199300Y170329D01*
X198648Y170059D01*
X198088Y169629D01*
X197658Y169069D01*
X197564Y168841D01*
X196924D01*
X196830Y169069D01*
X196400Y169629D01*
X195840Y170059D01*
X195188Y170329D01*
X194488Y170421D01*
X193788Y170329D01*
X193136Y170059D01*
X192576Y169629D01*
X192146Y169069D01*
X192052Y168841D01*
X191413D01*
X191318Y169069D01*
X190889Y169629D01*
X190329Y170059D01*
X189676Y170329D01*
X188976Y170421D01*
X188277Y170329D01*
X187624Y170059D01*
X187064Y169629D01*
X186634Y169069D01*
X186364Y168417D01*
X186272Y167717D01*
X186294Y167554D01*
X186188Y167540D01*
X185057Y167071D01*
X184085Y166326D01*
X183340Y165355D01*
X183112Y164803D01*
X183014Y164656D01*
X182859Y163879D01*
X183014Y163102D01*
X183454Y162443D01*
X183503Y162410D01*
X183616Y161844D01*
X183913Y161127D01*
X184344Y160482D01*
X184892Y159934D01*
X185537Y159503D01*
X186253Y159206D01*
X187014Y159055D01*
X187789D01*
X188550Y159206D01*
X189266Y159503D01*
X189911Y159934D01*
X190460Y160482D01*
X190891Y161127D01*
X191187Y161844D01*
X191300Y162410D01*
X191349Y162443D01*
X191789Y163102D01*
X191944Y163879D01*
X191789Y164656D01*
X191692Y164803D01*
X191463Y165355D01*
X191003Y165954D01*
X191318Y166364D01*
X191413Y166592D01*
X192052D01*
X192146Y166364D01*
X192576Y165804D01*
X193136Y165375D01*
X192957Y164810D01*
X192954Y164803D01*
X192856Y164656D01*
X192702Y163879D01*
X192856Y163102D01*
X193297Y162443D01*
X193346Y162410D01*
X193458Y161844D01*
X193755Y161127D01*
X194186Y160482D01*
X194734Y159934D01*
X195379Y159503D01*
X196096Y159206D01*
X196856Y159055D01*
X197632D01*
X198392Y159206D01*
X199109Y159503D01*
X199754Y159934D01*
X200302Y160482D01*
X200733Y161127D01*
X201030Y161844D01*
X201143Y162410D01*
X201192Y162443D01*
X201632Y163102D01*
X201786Y163879D01*
X201632Y164656D01*
X201534Y164803D01*
X201531Y164810D01*
X201352Y165375D01*
X201888Y165786D01*
X202685D01*
X202959Y165195D01*
X202797Y164803D01*
X202699Y164656D01*
X202544Y163879D01*
X202699Y163102D01*
X203139Y162443D01*
X203188Y162410D01*
X203301Y161844D01*
X203598Y161127D01*
X204029Y160482D01*
X204577Y159934D01*
X205222Y159503D01*
X205938Y159206D01*
X206699Y159055D01*
X207474D01*
X208235Y159206D01*
X208951Y159503D01*
X209596Y159934D01*
X210145Y160482D01*
X210576Y161127D01*
X210872Y161844D01*
X210985Y162410D01*
X211034Y162443D01*
X211474Y163102D01*
X211629Y163879D01*
X211474Y164656D01*
X211377Y164803D01*
X211148Y165355D01*
X210403Y166326D01*
X209432Y167071D01*
X208300Y167540D01*
X207087Y167700D01*
X207079Y167699D01*
X205696Y169082D01*
X205070Y169500D01*
X204331Y169647D01*
X201888D01*
X201352Y170059D01*
X200700Y170329D01*
X200000Y170421D01*
D02*
G37*
G36*
X141614Y169368D02*
Y165843D01*
X145140D01*
X145056Y166477D01*
X144659Y167434D01*
X144028Y168257D01*
X143206Y168888D01*
X142248Y169284D01*
X141614Y169368D01*
D02*
G37*
G36*
X140827Y169368D02*
X140193Y169284D01*
X139235Y168888D01*
X138413Y168257D01*
X137782Y167434D01*
X137385Y166477D01*
X137301Y165843D01*
X140827D01*
Y169368D01*
D02*
G37*
G36*
Y165055D02*
X137301D01*
X137385Y164421D01*
X137782Y163463D01*
X138413Y162641D01*
X139235Y162010D01*
X140193Y161613D01*
X140827Y161530D01*
Y165055D01*
D02*
G37*
G36*
X145140D02*
X141614D01*
Y161530D01*
X142248Y161613D01*
X143206Y162010D01*
X144028Y162641D01*
X144659Y163463D01*
X145056Y164421D01*
X145140Y165055D01*
D02*
G37*
G36*
X141220Y160138D02*
X140007Y159979D01*
X138876Y159510D01*
X137904Y158765D01*
X137159Y157794D01*
X136691Y156663D01*
X136531Y155449D01*
X136691Y154235D01*
X137159Y153104D01*
X137904Y152133D01*
X138876Y151387D01*
X140007Y150919D01*
X141220Y150759D01*
X142434Y150919D01*
X143565Y151387D01*
X144537Y152133D01*
X145282Y153104D01*
X145750Y154235D01*
X145910Y155449D01*
X145750Y156663D01*
X145282Y157794D01*
X144537Y158765D01*
X143565Y159510D01*
X142434Y159979D01*
X141220Y160138D01*
D02*
G37*
G36*
X33209Y167610D02*
X31294Y167422D01*
X29453Y166863D01*
X27756Y165956D01*
X26268Y164735D01*
X25048Y163248D01*
X24141Y161551D01*
X23582Y159710D01*
X23394Y157795D01*
X23582Y155880D01*
X24141Y154039D01*
X25048Y152342D01*
X26268Y150855D01*
X27756Y149634D01*
X29453Y148727D01*
X31294Y148169D01*
X33209Y147980D01*
X35124Y148169D01*
X36965Y148727D01*
X38662Y149634D01*
X40149Y150855D01*
X41370Y152342D01*
X42276Y154039D01*
X42835Y155880D01*
X43024Y157795D01*
X42835Y159710D01*
X42276Y161551D01*
X41370Y163248D01*
X40149Y164735D01*
X38662Y165956D01*
X36965Y166863D01*
X35124Y167422D01*
X33209Y167610D01*
D02*
G37*
G36*
X141220Y150138D02*
X140007Y149979D01*
X138876Y149510D01*
X137904Y148765D01*
X137159Y147794D01*
X136691Y146663D01*
X136531Y145449D01*
X136691Y144235D01*
X137159Y143104D01*
X137904Y142133D01*
X138876Y141387D01*
X140007Y140919D01*
X141220Y140759D01*
X142434Y140919D01*
X143565Y141387D01*
X144537Y142133D01*
X145282Y143104D01*
X145750Y144235D01*
X145910Y145449D01*
X145750Y146663D01*
X145282Y147794D01*
X144537Y148765D01*
X143565Y149510D01*
X142434Y149979D01*
X141220Y150138D01*
D02*
G37*
G36*
Y140138D02*
X140007Y139979D01*
X138876Y139510D01*
X137904Y138765D01*
X137159Y137794D01*
X136691Y136663D01*
X136531Y135449D01*
X136691Y134235D01*
X137159Y133104D01*
X137904Y132133D01*
X138876Y131387D01*
X140007Y130919D01*
X141220Y130759D01*
X142434Y130919D01*
X143565Y131387D01*
X144537Y132133D01*
X145282Y133104D01*
X145750Y134235D01*
X145910Y135449D01*
X145750Y136663D01*
X145282Y137794D01*
X144537Y138765D01*
X143565Y139510D01*
X142434Y139979D01*
X141220Y140138D01*
D02*
G37*
G36*
Y130139D02*
X140007Y129979D01*
X138876Y129510D01*
X137904Y128765D01*
X137159Y127794D01*
X136691Y126663D01*
X136531Y125449D01*
X136691Y124235D01*
X137159Y123104D01*
X137904Y122133D01*
X138876Y121387D01*
X140007Y120919D01*
X141220Y120759D01*
X142434Y120919D01*
X143565Y121387D01*
X144537Y122133D01*
X145282Y123104D01*
X145750Y124235D01*
X145910Y125449D01*
X145750Y126663D01*
X145282Y127794D01*
X144537Y128765D01*
X143565Y129510D01*
X142434Y129979D01*
X141220Y130139D01*
D02*
G37*
G36*
X75709Y137610D02*
X73794Y137422D01*
X71953Y136863D01*
X70256Y135956D01*
X68768Y134736D01*
X67548Y133248D01*
X66641Y131551D01*
X66082Y129710D01*
X65894Y127795D01*
X66082Y125881D01*
X66641Y124039D01*
X67548Y122342D01*
X68768Y120855D01*
X70256Y119634D01*
X71953Y118727D01*
X73794Y118169D01*
X75709Y117980D01*
X77623Y118169D01*
X79465Y118727D01*
X81162Y119634D01*
X82649Y120855D01*
X83869Y122342D01*
X84777Y124039D01*
X85335Y125881D01*
X85524Y127795D01*
X85335Y129710D01*
X84777Y131551D01*
X83869Y133248D01*
X82649Y134736D01*
X81162Y135956D01*
X79465Y136863D01*
X77623Y137422D01*
X75709Y137610D01*
D02*
G37*
G36*
X141220Y120139D02*
X140007Y119979D01*
X138876Y119510D01*
X137904Y118765D01*
X137159Y117794D01*
X136691Y116663D01*
X136531Y115449D01*
X136691Y114235D01*
X137159Y113104D01*
X137904Y112133D01*
X138876Y111387D01*
X140007Y110919D01*
X141220Y110759D01*
X142434Y110919D01*
X143565Y111387D01*
X144537Y112133D01*
X145282Y113104D01*
X145750Y114235D01*
X145910Y115449D01*
X145750Y116663D01*
X145282Y117794D01*
X144537Y118765D01*
X143565Y119510D01*
X142434Y119979D01*
X141220Y120139D01*
D02*
G37*
G36*
X14961Y106248D02*
X14261Y106155D01*
X13609Y105885D01*
X13048Y105456D01*
X12619Y104895D01*
X12348Y104243D01*
X12256Y103543D01*
Y102229D01*
X11644Y101759D01*
X10899Y100788D01*
X10671Y100236D01*
X10573Y100090D01*
X10418Y99312D01*
X10573Y98535D01*
X10646Y98425D01*
X10573Y98316D01*
X10418Y97538D01*
X10573Y96761D01*
X10671Y96615D01*
X10899Y96063D01*
X11644Y95091D01*
X12256Y94622D01*
Y93307D01*
X12348Y92607D01*
X12619Y91955D01*
X13048Y91395D01*
X13609Y90965D01*
X14261Y90695D01*
X14961Y90603D01*
X15661Y90695D01*
X16313Y90965D01*
X16873Y91395D01*
X17303Y91955D01*
X17573Y92607D01*
X17665Y93307D01*
Y94622D01*
X18277Y95091D01*
X19022Y96063D01*
X19251Y96615D01*
X19348Y96761D01*
X19503Y97538D01*
X19348Y98316D01*
X19275Y98425D01*
X19348Y98535D01*
X19503Y99312D01*
X19348Y100090D01*
X19251Y100236D01*
X19022Y100788D01*
X18277Y101759D01*
X17665Y102229D01*
Y103543D01*
X17573Y104243D01*
X17303Y104895D01*
X16873Y105456D01*
X16313Y105885D01*
X15661Y106155D01*
X14961Y106248D01*
D02*
G37*
G36*
X35459Y142545D02*
X25959D01*
Y133045D01*
X29671D01*
X29710Y132455D01*
X29469Y132423D01*
X28313Y131944D01*
X27321Y131183D01*
X26559Y130191D01*
X26081Y129035D01*
X25918Y127795D01*
X26081Y126555D01*
X26559Y125400D01*
X27321Y124407D01*
X28313Y123646D01*
X29469Y123168D01*
X30034Y123093D01*
Y122497D01*
X29469Y122423D01*
X28313Y121944D01*
X27321Y121183D01*
X26559Y120191D01*
X26081Y119035D01*
X25918Y117795D01*
X26081Y116555D01*
X26559Y115400D01*
X27321Y114408D01*
X28313Y113646D01*
X29469Y113168D01*
X30034Y113093D01*
Y112497D01*
X29469Y112423D01*
X28313Y111944D01*
X27321Y111183D01*
X26559Y110191D01*
X26081Y109035D01*
X25918Y107795D01*
X26081Y106555D01*
X26559Y105400D01*
X27321Y104408D01*
X28313Y103646D01*
X29469Y103167D01*
X30034Y103093D01*
Y102497D01*
X29469Y102423D01*
X28313Y101944D01*
X27321Y101183D01*
X26559Y100191D01*
X26081Y99035D01*
X25918Y97795D01*
X26081Y96555D01*
X26559Y95400D01*
X27321Y94407D01*
X28313Y93646D01*
X29469Y93168D01*
X30034Y93093D01*
Y92497D01*
X29469Y92423D01*
X28313Y91944D01*
X27321Y91183D01*
X26559Y90191D01*
X26081Y89035D01*
X25918Y87795D01*
X26046Y86819D01*
X25565Y86401D01*
X25535Y86392D01*
X25346Y86470D01*
X24996Y86516D01*
X24646Y86563D01*
X24646Y86563D01*
X15748D01*
X15748Y86563D01*
X15048Y86470D01*
X14396Y86200D01*
X13836Y85770D01*
X13836Y85770D01*
X13048Y84983D01*
X12619Y84423D01*
X12348Y83771D01*
X12303Y83421D01*
X12256Y83071D01*
X12256Y83071D01*
Y82543D01*
X11644Y82074D01*
X10899Y81103D01*
X10671Y80551D01*
X10573Y80405D01*
X10418Y79627D01*
X10573Y78850D01*
X10646Y78740D01*
X10573Y78630D01*
X10418Y77853D01*
X10573Y77076D01*
X10671Y76929D01*
X10899Y76378D01*
X11644Y75406D01*
X12256Y74937D01*
Y73622D01*
X12348Y72922D01*
X12619Y72270D01*
X13048Y71710D01*
X13609Y71280D01*
X14261Y71010D01*
X14961Y70918D01*
X15661Y71010D01*
X16313Y71280D01*
X16873Y71710D01*
X17303Y72270D01*
X17573Y72922D01*
X17665Y73622D01*
Y74937D01*
X18277Y75406D01*
X19022Y76378D01*
X19251Y76929D01*
X19348Y77076D01*
X19503Y77853D01*
X19348Y78630D01*
X19275Y78740D01*
X19348Y78850D01*
X19503Y79627D01*
X19348Y80405D01*
X19251Y80551D01*
X19245Y80563D01*
X19640Y81154D01*
X23526D01*
X26030Y78649D01*
X25918Y77795D01*
X26081Y76555D01*
X26559Y75400D01*
X27321Y74408D01*
X28313Y73646D01*
X29469Y73168D01*
X30709Y73004D01*
X31949Y73168D01*
X33104Y73646D01*
X34096Y74408D01*
X34858Y75400D01*
X35336Y76555D01*
X35500Y77795D01*
X35336Y79035D01*
X34858Y80191D01*
X34096Y81183D01*
X33104Y81944D01*
X31949Y82423D01*
X31383Y82498D01*
Y83093D01*
X31949Y83167D01*
X33104Y83646D01*
X34096Y84408D01*
X34858Y85400D01*
X35336Y86555D01*
X35500Y87795D01*
X35336Y89035D01*
X34858Y90191D01*
X34096Y91183D01*
X33104Y91944D01*
X31949Y92423D01*
X31383Y92497D01*
Y93093D01*
X31949Y93168D01*
X33104Y93646D01*
X34096Y94407D01*
X34858Y95400D01*
X35336Y96555D01*
X35500Y97795D01*
X35336Y99035D01*
X34858Y100191D01*
X34096Y101183D01*
X33104Y101944D01*
X31949Y102423D01*
X31383Y102497D01*
Y103093D01*
X31949Y103167D01*
X33104Y103646D01*
X34096Y104408D01*
X34858Y105400D01*
X35336Y106555D01*
X35500Y107795D01*
X35336Y109035D01*
X34858Y110191D01*
X34096Y111183D01*
X33104Y111944D01*
X31949Y112423D01*
X31383Y112497D01*
Y113093D01*
X31949Y113168D01*
X33104Y113646D01*
X34096Y114408D01*
X34858Y115400D01*
X35336Y116555D01*
X35500Y117795D01*
X35336Y119035D01*
X34858Y120191D01*
X34096Y121183D01*
X33104Y121944D01*
X31949Y122423D01*
X31383Y122497D01*
Y123093D01*
X31949Y123168D01*
X33104Y123646D01*
X34096Y124407D01*
X34858Y125400D01*
X35336Y126555D01*
X35500Y127795D01*
X35336Y129035D01*
X34858Y130191D01*
X34096Y131183D01*
X33104Y131944D01*
X31949Y132423D01*
X31708Y132455D01*
X31747Y133045D01*
X35459D01*
Y142545D01*
D02*
G37*
G36*
X31102Y71816D02*
Y68189D01*
X34729D01*
X34642Y68849D01*
X34235Y69831D01*
X33588Y70675D01*
X32745Y71322D01*
X31763Y71729D01*
X31102Y71816D01*
D02*
G37*
G36*
X120315Y71816D02*
X119655Y71729D01*
X118673Y71322D01*
X117829Y70675D01*
X117182Y69831D01*
X116775Y68849D01*
X116688Y68189D01*
X120315D01*
Y71816D01*
D02*
G37*
G36*
X30315D02*
X29655Y71729D01*
X28673Y71322D01*
X27829Y70675D01*
X27182Y69831D01*
X26775Y68849D01*
X26688Y68189D01*
X30315D01*
Y71816D01*
D02*
G37*
G36*
X237008Y69547D02*
X236425Y69471D01*
X235515Y69094D01*
X234734Y68494D01*
X234135Y67713D01*
X233758Y66803D01*
X233681Y66220D01*
X237008D01*
Y69547D01*
D02*
G37*
G36*
X34729Y67402D02*
X31102D01*
Y63775D01*
X31763Y63862D01*
X32745Y64269D01*
X33588Y64916D01*
X34235Y65759D01*
X34642Y66741D01*
X34729Y67402D01*
D02*
G37*
G36*
X120315D02*
X116688D01*
X116775Y66741D01*
X117182Y65759D01*
X117829Y64916D01*
X118673Y64269D01*
X119655Y63862D01*
X120315Y63775D01*
Y67402D01*
D02*
G37*
G36*
X30315D02*
X26688D01*
X26775Y66741D01*
X27182Y65759D01*
X27829Y64916D01*
X28673Y64269D01*
X29655Y63862D01*
X30315Y63775D01*
Y67402D01*
D02*
G37*
G36*
X237008Y65433D02*
X233681D01*
X233758Y64850D01*
X234135Y63941D01*
X234734Y63159D01*
X235515Y62560D01*
X236425Y62183D01*
X237008Y62106D01*
Y65433D01*
D02*
G37*
G36*
X208268Y63763D02*
X207054Y63603D01*
X205923Y63134D01*
X204952Y62389D01*
X204206Y61418D01*
X203978Y60866D01*
X203880Y60719D01*
X203725Y59942D01*
X203880Y59165D01*
X203953Y59055D01*
X203880Y58945D01*
X203725Y58168D01*
X203880Y57391D01*
X203978Y57244D01*
X204206Y56692D01*
X204952Y55721D01*
X205923Y54976D01*
X207054Y54507D01*
X207371Y54466D01*
X207753Y54084D01*
X207833Y54030D01*
X207690Y53416D01*
X207568Y53399D01*
X206916Y53129D01*
X206356Y52700D01*
X205926Y52140D01*
X205656Y51487D01*
X205563Y50787D01*
X205656Y50087D01*
X205926Y49435D01*
X206337Y48899D01*
Y47558D01*
X205923Y47386D01*
X204952Y46641D01*
X204206Y45670D01*
X203978Y45118D01*
X203880Y44971D01*
X203725Y44194D01*
X203880Y43417D01*
X203953Y43307D01*
X203880Y43197D01*
X203725Y42420D01*
X203880Y41643D01*
X203978Y41496D01*
X204206Y40944D01*
X204952Y39973D01*
X205923Y39228D01*
X207054Y38759D01*
X208268Y38600D01*
X209482Y38759D01*
X210613Y39228D01*
X210847Y39408D01*
X217110D01*
X217849Y39555D01*
X218476Y39973D01*
X219593Y41090D01*
X220007Y40919D01*
X221220Y40759D01*
X222434Y40919D01*
X223565Y41387D01*
X224537Y42133D01*
X225282Y43104D01*
X225750Y44235D01*
X225910Y45449D01*
X225750Y46663D01*
X225282Y47794D01*
X224537Y48765D01*
X223565Y49510D01*
X222434Y49979D01*
X221220Y50138D01*
X220007Y49979D01*
X218876Y49510D01*
X217904Y48765D01*
X217159Y47794D01*
X216690Y46663D01*
X216531Y45449D01*
X216690Y44235D01*
X216862Y43821D01*
X216311Y43269D01*
X213213D01*
X212744Y43860D01*
X212810Y44194D01*
X212655Y44971D01*
X212558Y45118D01*
X212329Y45670D01*
X211584Y46641D01*
X210613Y47386D01*
X210198Y47558D01*
Y48899D01*
X210610Y49435D01*
X210880Y50087D01*
X210972Y50787D01*
X210880Y51487D01*
X210610Y52140D01*
X210180Y52700D01*
X209883Y52928D01*
X210083Y53518D01*
X216987D01*
X217159Y53104D01*
X217904Y52133D01*
X218876Y51387D01*
X220007Y50919D01*
X221220Y50759D01*
X222434Y50919D01*
X223565Y51387D01*
X224537Y52133D01*
X225282Y53104D01*
X225750Y54235D01*
X225910Y55449D01*
X225750Y56663D01*
X225282Y57794D01*
X224537Y58765D01*
X223565Y59510D01*
X222434Y59979D01*
X221220Y60138D01*
X220007Y59979D01*
X218876Y59510D01*
X217904Y58765D01*
X217159Y57794D01*
X216987Y57380D01*
X214156D01*
X214117Y57970D01*
X214479Y58018D01*
X215132Y58288D01*
X215692Y58718D01*
X216122Y59278D01*
X216392Y59930D01*
X216484Y60630D01*
X216392Y61330D01*
X216122Y61982D01*
X215692Y62542D01*
X215132Y62972D01*
X214479Y63242D01*
X213779Y63334D01*
X213080Y63242D01*
X212427Y62972D01*
X211892Y62561D01*
X211360D01*
X210613Y63134D01*
X209482Y63603D01*
X208268Y63763D01*
D02*
G37*
G36*
X20079Y43641D02*
X18916Y43488D01*
X17833Y43039D01*
X16903Y42325D01*
X16189Y41395D01*
X16040Y41036D01*
X15985D01*
X15426Y41096D01*
X14872Y41817D01*
X14091Y42417D01*
X13181Y42794D01*
X12598Y42870D01*
Y39150D01*
Y35429D01*
X13181Y35506D01*
X14091Y35883D01*
X14872Y36482D01*
X15426Y37204D01*
X15985Y37263D01*
X16040D01*
X16189Y36904D01*
X16903Y35974D01*
X17833Y35260D01*
X18916Y34811D01*
X20079Y34658D01*
X21241Y34811D01*
X22324Y35260D01*
X23255Y35974D01*
X23968Y36904D01*
X24417Y37987D01*
X24570Y39150D01*
X24417Y40312D01*
X23968Y41395D01*
X23255Y42325D01*
X22324Y43039D01*
X21241Y43488D01*
X20079Y43641D01*
D02*
G37*
G36*
X103937Y45276D02*
X100984D01*
Y40157D01*
X103937D01*
Y45276D01*
D02*
G37*
G36*
X100197D02*
X97244D01*
Y40157D01*
X100197D01*
Y45276D01*
D02*
G37*
G36*
X11811Y42870D02*
X11228Y42794D01*
X10318Y42417D01*
X9537Y41817D01*
X8938Y41036D01*
X8561Y40126D01*
X8484Y39543D01*
X11811D01*
Y42870D01*
D02*
G37*
G36*
X249606Y39547D02*
X249024Y39471D01*
X248114Y39094D01*
X247333Y38494D01*
X246733Y37713D01*
X246356Y36803D01*
X246279Y36220D01*
X249606D01*
Y39547D01*
D02*
G37*
G36*
X11811Y38756D02*
X8484D01*
X8561Y38173D01*
X8938Y37263D01*
X9537Y36482D01*
X10318Y35883D01*
X11228Y35506D01*
X11811Y35429D01*
Y38756D01*
D02*
G37*
G36*
X103937Y39370D02*
X100984D01*
Y34252D01*
X103937D01*
Y39370D01*
D02*
G37*
G36*
X100197D02*
X97244D01*
Y34252D01*
X100197D01*
Y39370D01*
D02*
G37*
G36*
X249606Y35433D02*
X246279D01*
X246356Y34850D01*
X246733Y33941D01*
X247333Y33159D01*
X248114Y32560D01*
X249024Y32183D01*
X249606Y32106D01*
Y35433D01*
D02*
G37*
G36*
X55709Y36983D02*
Y31890D01*
X58492D01*
Y33858D01*
X58384Y34681D01*
X58066Y35447D01*
X57561Y36105D01*
X56903Y36609D01*
X56137Y36927D01*
X55709Y36983D01*
D02*
G37*
G36*
X54921Y36983D02*
X54493Y36927D01*
X53727Y36609D01*
X53069Y36105D01*
X52564Y35447D01*
X52246Y34681D01*
X52138Y33858D01*
Y31890D01*
X54921D01*
Y36983D01*
D02*
G37*
G36*
X41929Y36983D02*
Y31890D01*
X44712D01*
Y33858D01*
X44604Y34681D01*
X44287Y35447D01*
X43782Y36105D01*
X43124Y36609D01*
X42358Y36927D01*
X41929Y36983D01*
D02*
G37*
G36*
X41142Y36983D02*
X40713Y36927D01*
X39947Y36609D01*
X39289Y36105D01*
X38784Y35447D01*
X38467Y34681D01*
X38359Y33858D01*
Y31890D01*
X41142D01*
Y36983D01*
D02*
G37*
G36*
X216613Y37135D02*
Y30843D01*
X222905D01*
X222815Y31761D01*
X222432Y33022D01*
X221811Y34185D01*
X220974Y35204D01*
X219955Y36041D01*
X218793Y36662D01*
X217531Y37045D01*
X216613Y37135D01*
D02*
G37*
G36*
X146613D02*
Y30843D01*
X152905D01*
X152815Y31761D01*
X152432Y33022D01*
X151811Y34185D01*
X150974Y35204D01*
X149955Y36041D01*
X148793Y36662D01*
X147531Y37045D01*
X146613Y37135D01*
D02*
G37*
G36*
X215825Y37135D02*
X214907Y37045D01*
X213645Y36662D01*
X212483Y36041D01*
X211463Y35204D01*
X210627Y34185D01*
X210005Y33022D01*
X209623Y31761D01*
X209532Y30843D01*
X215825D01*
Y37135D01*
D02*
G37*
G36*
X145825D02*
X144907Y37045D01*
X143645Y36662D01*
X142482Y36041D01*
X141463Y35204D01*
X140627Y34185D01*
X140006Y33022D01*
X139623Y31761D01*
X139532Y30843D01*
X145825D01*
Y37135D01*
D02*
G37*
G36*
X103937Y32677D02*
X100984D01*
Y27559D01*
X103937D01*
Y32677D01*
D02*
G37*
G36*
X100197D02*
X97244D01*
Y27559D01*
X100197D01*
Y32677D01*
D02*
G37*
G36*
X112992D02*
X110039D01*
Y27559D01*
X112992D01*
Y32677D01*
D02*
G37*
G36*
X109252D02*
X106299D01*
Y27559D01*
X109252D01*
Y32677D01*
D02*
G37*
G36*
X92445Y45988D02*
X84327D01*
Y33539D01*
X84327D01*
Y33390D01*
X84327D01*
Y26727D01*
X75859D01*
X74719Y27867D01*
X74826Y28126D01*
X74958Y29134D01*
Y33858D01*
X74826Y34866D01*
X74437Y35806D01*
X73817Y36613D01*
X73011Y37232D01*
X72071Y37621D01*
X71063Y37754D01*
X70055Y37621D01*
X69115Y37232D01*
X68308Y36613D01*
X67689Y35806D01*
X67300Y34866D01*
X67167Y33858D01*
Y29134D01*
X67300Y28126D01*
X67564Y27487D01*
Y26575D01*
X67624Y26122D01*
X67684Y25669D01*
X68033Y24826D01*
X68589Y24101D01*
X71936Y20755D01*
X72660Y20199D01*
X73504Y19849D01*
X73957Y19790D01*
X74410Y19730D01*
X84990D01*
X85007Y19606D01*
X85356Y18763D01*
X85912Y18038D01*
X89878Y14072D01*
Y9327D01*
X99571D01*
Y19020D01*
X94826D01*
X92445Y21400D01*
Y33390D01*
X92445D01*
Y33539D01*
X92445D01*
Y45988D01*
D02*
G37*
G36*
X54921Y31102D02*
X52138D01*
Y29134D01*
X52246Y28312D01*
X52564Y27545D01*
X53069Y26888D01*
X53727Y26383D01*
X54493Y26065D01*
X54921Y26009D01*
Y31102D01*
D02*
G37*
G36*
X41142Y31102D02*
X38359D01*
Y29134D01*
X38467Y28312D01*
X38784Y27545D01*
X39289Y26888D01*
X39947Y26383D01*
X40713Y26065D01*
X41142Y26009D01*
Y31102D01*
D02*
G37*
G36*
X44712D02*
X41929D01*
Y26009D01*
X42358Y26065D01*
X43124Y26383D01*
X43782Y26888D01*
X44287Y27545D01*
X44604Y28312D01*
X44712Y29134D01*
Y31102D01*
D02*
G37*
G36*
X58492Y31102D02*
X55709D01*
Y26009D01*
X56137Y26065D01*
X56903Y26383D01*
X57561Y26888D01*
X58066Y27545D01*
X58384Y28312D01*
X58492Y29134D01*
Y31102D01*
D02*
G37*
G36*
X145825Y30055D02*
X139532D01*
X139623Y29137D01*
X140006Y27875D01*
X140627Y26712D01*
X141463Y25693D01*
X142482Y24857D01*
X143645Y24236D01*
X144907Y23853D01*
X145825Y23762D01*
Y30055D01*
D02*
G37*
G36*
X222905D02*
X216613D01*
Y23762D01*
X217531Y23853D01*
X218793Y24236D01*
X219955Y24857D01*
X220974Y25693D01*
X221811Y26712D01*
X222432Y27875D01*
X222815Y29137D01*
X222905Y30055D01*
D02*
G37*
G36*
X152905D02*
X146613D01*
Y23762D01*
X147531Y23853D01*
X148793Y24236D01*
X149955Y24857D01*
X150974Y25693D01*
X151811Y26712D01*
X152432Y27875D01*
X152815Y29137D01*
X152905Y30055D01*
D02*
G37*
G36*
X112992Y26772D02*
X110039D01*
Y21654D01*
X112992D01*
Y26772D01*
D02*
G37*
G36*
X109252D02*
X106299D01*
Y21654D01*
X109252D01*
Y26772D01*
D02*
G37*
G36*
X103937Y26772D02*
X100984D01*
Y21654D01*
X103937D01*
Y26772D01*
D02*
G37*
G36*
X100197D02*
X97244D01*
Y21654D01*
X100197D01*
Y26772D01*
D02*
G37*
G36*
X105118Y18291D02*
Y14567D01*
X108842D01*
X108752Y15252D01*
X108335Y16258D01*
X107673Y17121D01*
X106809Y17784D01*
X105804Y18201D01*
X105118Y18291D01*
D02*
G37*
G36*
X104331D02*
X103645Y18201D01*
X102640Y17784D01*
X101776Y17121D01*
X101113Y16258D01*
X100697Y15252D01*
X100607Y14567D01*
X104331D01*
Y18291D01*
D02*
G37*
G36*
X241732Y26386D02*
X240149Y26261D01*
X238221Y25798D01*
X236389Y25039D01*
X234698Y24003D01*
X233190Y22715D01*
X231902Y21208D01*
X230866Y19517D01*
X230107Y17685D01*
X229644Y15756D01*
X229520Y14173D01*
X241732D01*
Y26386D01*
D02*
G37*
G36*
X14173D02*
Y14173D01*
X26386D01*
X26261Y15756D01*
X25798Y17685D01*
X25039Y19517D01*
X24003Y21208D01*
X22715Y22715D01*
X21208Y24003D01*
X19517Y25039D01*
X17685Y25798D01*
X15756Y26261D01*
X14173Y26386D01*
D02*
G37*
G36*
X108842Y13780D02*
X105118D01*
Y10056D01*
X105804Y10146D01*
X106809Y10562D01*
X107673Y11225D01*
X108335Y12088D01*
X108752Y13094D01*
X108842Y13780D01*
D02*
G37*
G36*
X104331D02*
X100607D01*
X100697Y13094D01*
X101113Y12088D01*
X101776Y11225D01*
X102640Y10562D01*
X103645Y10146D01*
X104331Y10056D01*
Y13780D01*
D02*
G37*
G36*
X125909Y33390D02*
X117791D01*
Y22188D01*
X114656Y19052D01*
X113459Y18895D01*
X112280Y18407D01*
X111268Y17630D01*
X110491Y16617D01*
X110003Y15438D01*
X109836Y14173D01*
X110003Y12908D01*
X110491Y11729D01*
X111268Y10717D01*
X112280Y9940D01*
X113459Y9452D01*
X114724Y9285D01*
X115990Y9452D01*
X117168Y9940D01*
X118181Y10717D01*
X118958Y11729D01*
X119446Y12908D01*
X119604Y14105D01*
X124324Y18825D01*
X124880Y19550D01*
X125230Y20394D01*
X125302Y20941D01*
X125909D01*
Y33390D01*
D02*
G37*
G36*
X226500Y17839D02*
X217595D01*
Y8933D01*
X226500D01*
Y17839D01*
D02*
G37*
G36*
X55315Y15707D02*
X54307Y15574D01*
X53367Y15185D01*
X52560Y14566D01*
X51941Y13759D01*
X51552Y12819D01*
X51419Y11811D01*
X51552Y10803D01*
X51941Y9863D01*
X52560Y9057D01*
X53367Y8437D01*
X54307Y8048D01*
X55315Y7915D01*
X56323Y8048D01*
X57263Y8437D01*
X58069Y9057D01*
X58689Y9863D01*
X59078Y10803D01*
X59210Y11811D01*
X59078Y12819D01*
X58689Y13759D01*
X58069Y14566D01*
X57263Y15185D01*
X56323Y15574D01*
X55315Y15707D01*
D02*
G37*
G36*
X189665Y32677D02*
X187795D01*
Y30709D01*
X189665D01*
Y32677D01*
D02*
G37*
G36*
X186614Y32185D02*
X184646D01*
Y30315D01*
X186614D01*
Y32185D01*
D02*
G37*
G36*
X183858D02*
X181890D01*
Y30315D01*
X183858D01*
Y32185D01*
D02*
G37*
G36*
X184646Y29724D02*
X181496D01*
Y25984D01*
X184646D01*
Y29724D01*
D02*
G37*
G36*
X180905Y29134D02*
X177165D01*
Y25984D01*
X180905D01*
Y29134D01*
D02*
G37*
G36*
Y25197D02*
X177165D01*
Y22047D01*
X180905D01*
Y25197D01*
D02*
G37*
G36*
X184646Y25197D02*
X181496D01*
Y21457D01*
X184646D01*
Y25197D01*
D02*
G37*
G36*
X186693Y17106D02*
Y13780D01*
X190020D01*
X189943Y14362D01*
X189566Y15272D01*
X188967Y16053D01*
X188185Y16653D01*
X187276Y17030D01*
X186693Y17106D01*
D02*
G37*
G36*
X185906D02*
X185323Y17030D01*
X184413Y16653D01*
X183632Y16053D01*
X183032Y15272D01*
X182655Y14362D01*
X182579Y13780D01*
X185906D01*
Y17106D01*
D02*
G37*
%LPD*%
D10*
X152426Y30449D02*
G03*
X152415Y30084I-6207J0D01*
G01*
X222426Y30449D02*
G03*
X222415Y30084I-6207J0D01*
G01*
X222426Y210448D02*
G03*
X222415Y210083I-6207J0D01*
G01*
X152426Y210448D02*
G03*
X152415Y210083I-6207J0D01*
G01*
X2770Y200984D02*
G03*
X26175Y206306I11010J5709D01*
G01*
X19739Y2904D02*
G03*
X2863Y19665I-5960J10876D01*
G01*
X235760Y217336D02*
G03*
X253193Y201096I6366J-10643D01*
G01*
X252598Y20424D02*
G03*
X236924Y2522I-10472J-6644D01*
G01*
X187402Y33071D02*
X190059D01*
X185039D02*
X187402D01*
X83465Y208268D02*
X102756D01*
X79921Y204724D02*
X83465Y208268D01*
X79921Y200984D02*
Y204724D01*
X184646Y32677D02*
X185039Y33071D01*
X184252Y26772D02*
Y32579D01*
X176772Y25591D02*
X184252D01*
X185039Y26378D01*
D11*
X190059Y33071D02*
D03*
X195768D02*
D03*
D13*
X206299Y13386D02*
D03*
X222047D02*
D03*
D14*
X97244Y202658D02*
D03*
Y208366D02*
D03*
X184252Y32579D02*
D03*
Y38287D02*
D03*
X166142Y30020D02*
D03*
Y24311D02*
D03*
X160630Y30020D02*
D03*
Y24311D02*
D03*
X102756Y208366D02*
D03*
Y202658D02*
D03*
D15*
X114724Y14173D02*
X121850Y21299D01*
Y27165D01*
X100591Y27362D02*
X100787Y27165D01*
X100591Y27362D02*
Y39764D01*
X104724Y27165D02*
X108661D01*
X100787D02*
X104724D01*
X108661D02*
X109449Y27953D01*
X104724Y27165D02*
Y27165D01*
Y14173D02*
Y27165D01*
X104331Y27559D02*
X104724Y27165D01*
X100787Y27165D02*
X101181Y26772D01*
X100591Y27165D02*
X100787D01*
X74410Y23228D02*
X87008D01*
X71063Y26575D02*
X74410Y23228D01*
X71063Y26575D02*
Y31496D01*
X88386Y20512D02*
Y27165D01*
Y39764D01*
Y20512D02*
X94724Y14173D01*
D16*
X192913Y36024D02*
Y37795D01*
Y36024D02*
Y37008D01*
Y35925D02*
Y36024D01*
X190059Y33071D02*
X192913Y35925D01*
X107480Y115748D02*
Y164567D01*
X104724Y115748D02*
Y162205D01*
X97244Y169685D02*
X104724Y162205D01*
X97244Y169685D02*
Y189370D01*
X107480Y87992D02*
Y88189D01*
Y87107D02*
Y87992D01*
Y85334D02*
Y87107D01*
Y84449D02*
Y85334D01*
Y84252D02*
Y84449D01*
X205906Y23622D02*
Y23819D01*
Y24703D01*
Y26478D01*
Y27362D01*
Y27559D01*
X97244Y192520D02*
Y196457D01*
X208268Y57087D02*
Y61024D01*
Y41339D02*
Y45276D01*
X105905Y192520D02*
Y196457D01*
X14961Y96457D02*
Y96653D01*
Y97538D01*
Y99312D01*
Y100197D01*
Y100394D01*
X199213Y135236D02*
Y135433D01*
Y134352D02*
Y135236D01*
Y132578D02*
Y134352D01*
Y131693D02*
Y132578D01*
Y131496D02*
Y131693D01*
X14961Y80512D02*
Y80709D01*
Y79627D02*
Y80512D01*
Y77853D02*
Y79627D01*
Y76968D02*
Y77853D01*
Y76772D02*
Y76968D01*
X164567Y185630D02*
Y185827D01*
Y184745D02*
Y185630D01*
Y182971D02*
Y184745D01*
Y182087D02*
Y182971D01*
Y181890D02*
Y182087D01*
X107480Y103937D02*
Y107874D01*
X99606Y110630D02*
X104724Y115748D01*
X99606Y87795D02*
Y110630D01*
Y87795D02*
X103150Y84252D01*
X160630Y30020D02*
Y39370D01*
X149606Y50394D02*
X160630Y39370D01*
X138583Y50394D02*
X149606D01*
X169685Y16772D02*
Y34252D01*
X149016Y54921D02*
X169685Y34252D01*
X141535Y54921D02*
X149016D01*
X155905Y93701D02*
Y131890D01*
X147653Y85449D02*
X155905Y93701D01*
X141220Y85449D02*
X147653D01*
X229921Y118347D02*
X237402Y125827D01*
X229921Y74150D02*
Y118347D01*
X221220Y65449D02*
X229921Y74150D01*
X227953Y119685D02*
X233071Y124803D01*
X227953Y82181D02*
Y119685D01*
X221220Y75449D02*
X227953Y82181D01*
X216535Y127953D02*
X218504Y129921D01*
X216535Y90134D02*
Y127953D01*
Y90134D02*
X221220Y85449D01*
X225984Y153150D02*
X227559Y154724D01*
X227953Y146378D02*
X229528Y147953D01*
X233071Y124803D02*
Y131496D01*
X231102Y125591D02*
Y139527D01*
X225984Y120472D02*
X231102Y125591D01*
X225984Y100213D02*
Y120472D01*
X221220Y95449D02*
X225984Y100213D01*
X229528Y126772D02*
Y144882D01*
X221220Y118465D02*
X229528Y126772D01*
X221220Y115449D02*
Y118465D01*
X107480Y101575D02*
X111260Y97795D01*
X107480Y103230D02*
Y103937D01*
Y101575D02*
Y103230D01*
X111260Y97795D02*
X120709D01*
X113386Y107874D02*
X118504Y102756D01*
X107480Y115748D02*
X107480Y115748D01*
Y107874D02*
Y115748D01*
X109285Y88189D02*
X120315D01*
X107480D02*
X109285D01*
X120315D02*
X120709Y87795D01*
X208661Y60630D02*
X213779D01*
X208268Y61024D02*
X208661Y60630D01*
X217110Y41339D02*
X221220Y45449D01*
X208268Y41339D02*
X217110D01*
X209118Y55449D02*
X221220D01*
X208268Y56299D02*
X209118Y55449D01*
X208268Y56299D02*
Y57087D01*
X235039Y150394D02*
X241732D01*
X244094Y152756D01*
Y159921D01*
X250000Y165827D01*
X233071Y131496D02*
X237402Y135827D01*
X231102Y139527D02*
X237402Y145827D01*
X229528Y144882D02*
X235039Y150394D01*
X221220Y125449D02*
X227953Y132181D01*
Y146378D01*
X237402Y155827D01*
X218504Y129921D02*
X222441D01*
X225984Y133465D01*
Y153150D01*
X248661Y175827D01*
X250000D01*
X188976Y166535D02*
Y167717D01*
X187402Y164961D02*
X188032Y165591D01*
X188976Y166535D01*
X194488Y167717D02*
X196613Y165591D01*
X197244Y164961D01*
X200000Y167717D02*
X204331D01*
X206456Y165591D01*
X207087Y164961D01*
X141220Y95449D02*
X153543Y107772D01*
Y137402D01*
X152756Y138189D02*
X153543Y137402D01*
X141220Y75449D02*
X158268Y92496D01*
Y135433D01*
X107480Y107874D02*
X113386D01*
X103150Y84252D02*
X107480D01*
X113386D01*
X114567Y83071D01*
X133465Y63205D02*
X141220Y55449D01*
Y65449D02*
X142126D01*
X195768Y31102D02*
X196161Y30709D01*
X192913Y39370D02*
Y43307D01*
Y37795D02*
Y39370D01*
X171653Y18032D02*
X176299Y13386D01*
X171653Y18032D02*
Y35921D01*
X142126Y65449D02*
X171653Y35921D01*
X141220Y55236D02*
X141535Y54921D01*
X141220Y55236D02*
Y55449D01*
X140945Y55512D02*
X141220Y55236D01*
X166299Y13386D02*
X169685Y16772D01*
X196299Y9685D02*
Y13386D01*
X195276Y8661D02*
X196299Y9685D01*
X163779Y8661D02*
X195276D01*
X161417Y11024D02*
X163779Y8661D01*
X161417Y11024D02*
Y16535D01*
X166142Y21260D01*
Y24311D01*
X156299Y13386D02*
Y16535D01*
X160630Y20866D01*
Y24311D01*
Y30020D02*
X166142D01*
X119921Y107795D02*
X128819D01*
X133465Y103150D01*
Y63205D02*
Y103150D01*
X118504Y102756D02*
X124016D01*
X125197Y59055D02*
Y79295D01*
X121421Y83071D02*
X125197Y79295D01*
X114567Y83071D02*
X121421D01*
X124016Y102756D02*
X128347Y98425D01*
Y59055D02*
Y98425D01*
X130709Y58268D02*
X138583Y50394D01*
X130709Y58268D02*
Y100394D01*
X208268Y45276D02*
Y50787D01*
X205906Y13780D02*
Y23622D01*
Y13780D02*
X206299Y13386D01*
X196850Y25591D02*
X198819Y27559D01*
X204101D01*
X205906D01*
D17*
X135433Y71236D02*
X141220Y65449D01*
X119921Y117795D02*
X124724D01*
X135433Y107087D01*
Y71236D02*
Y107087D01*
D18*
X14961Y101100D02*
Y103543D01*
X24646Y83858D02*
X30709Y77795D01*
X15748Y83858D02*
X24646D01*
X14961Y83071D02*
X15748Y83858D01*
X14961Y80709D02*
Y83071D01*
X199213Y135433D02*
X221205D01*
X221220Y135449D01*
X141598Y185827D02*
X164567D01*
X141220Y185449D02*
X141598Y185827D01*
X14961Y76065D02*
Y76772D01*
Y73622D02*
Y76065D01*
Y93307D02*
Y95750D01*
X195768Y31102D02*
Y33071D01*
Y26870D02*
Y31102D01*
X177657Y38287D02*
X184252D01*
X176772Y37402D02*
X177657Y38287D01*
X185039Y25591D02*
X185827Y24803D01*
X199213Y130789D02*
Y131496D01*
X184252Y41732D02*
X199213Y56693D01*
Y130789D01*
X184252Y38287D02*
Y41732D01*
X184646Y47638D02*
X193701Y56693D01*
Y149606D01*
X196063Y24803D02*
X196299Y24567D01*
X195669Y26772D02*
X195768Y26870D01*
D21*
X216219Y210448D02*
D03*
Y30449D02*
D03*
X146219D02*
D03*
Y210448D02*
D03*
D22*
X141220Y45449D02*
D03*
Y55449D02*
D03*
Y65449D02*
D03*
Y75449D02*
D03*
Y145449D02*
D03*
Y155449D02*
D03*
Y165449D02*
D03*
Y175449D02*
D03*
Y185449D02*
D03*
Y135449D02*
D03*
Y125449D02*
D03*
Y115449D02*
D03*
Y105449D02*
D03*
Y95449D02*
D03*
Y85449D02*
D03*
X221220Y45449D02*
D03*
Y55449D02*
D03*
Y65449D02*
D03*
Y75449D02*
D03*
Y85449D02*
D03*
Y95449D02*
D03*
Y145449D02*
D03*
Y135449D02*
D03*
Y125449D02*
D03*
Y115449D02*
D03*
Y105449D02*
D03*
D23*
X141220Y195449D02*
D03*
X221220Y155449D02*
D03*
D24*
X156299Y13386D02*
D03*
X166299D02*
D03*
X176299D02*
D03*
X186299D02*
D03*
X196299D02*
D03*
X250000Y55827D02*
D03*
Y65827D02*
D03*
Y75827D02*
D03*
Y85827D02*
D03*
Y95827D02*
D03*
Y45827D02*
D03*
Y35827D02*
D03*
X128898Y189606D02*
D03*
X237402Y85827D02*
D03*
Y95827D02*
D03*
Y145827D02*
D03*
Y135827D02*
D03*
Y125827D02*
D03*
Y115827D02*
D03*
Y105827D02*
D03*
Y75827D02*
D03*
Y65827D02*
D03*
X250000Y135827D02*
D03*
Y145827D02*
D03*
Y155827D02*
D03*
Y165827D02*
D03*
Y175827D02*
D03*
Y125827D02*
D03*
Y115827D02*
D03*
X45276Y178347D02*
D03*
X37402D02*
D03*
X114567D02*
D03*
X106693D02*
D03*
X72047Y200984D02*
D03*
X64173D02*
D03*
X79921D02*
D03*
X87795D02*
D03*
X20079Y39150D02*
D03*
X12205D02*
D03*
D25*
X30709Y67795D02*
D03*
Y87795D02*
D03*
Y97795D02*
D03*
Y107795D02*
D03*
Y117795D02*
D03*
Y127795D02*
D03*
Y77795D02*
D03*
X120709Y67795D02*
D03*
Y87795D02*
D03*
Y97795D02*
D03*
Y107795D02*
D03*
Y117795D02*
D03*
Y127795D02*
D03*
Y77795D02*
D03*
D26*
X30709Y137795D02*
D03*
X120709D02*
D03*
D27*
X250000Y105827D02*
D03*
X128898Y199606D02*
D03*
X237402Y155827D02*
D03*
X250000Y185827D02*
D03*
D28*
X55315Y31496D02*
D03*
X71063D02*
D03*
X41535D02*
D03*
D29*
X55315Y11811D02*
D03*
D30*
X13780Y206693D02*
D03*
X242126D02*
D03*
Y13780D02*
D03*
X13780D02*
D03*
D31*
X114724Y14173D02*
D03*
X104724D02*
D03*
D32*
X94724D02*
D03*
D33*
X88583Y98425D02*
D03*
Y108268D02*
D03*
X68898Y98425D02*
D03*
Y108268D02*
D03*
X47244Y98425D02*
D03*
Y108268D02*
D03*
X150394Y63386D02*
D03*
X27165Y44882D02*
D03*
X162598Y50000D02*
D03*
X153543Y41339D02*
D03*
X158268Y55118D02*
D03*
X148819Y45669D02*
D03*
X140945Y23622D02*
D03*
X128740D02*
D03*
X184646Y53937D02*
D03*
X203543D02*
D03*
X189370Y83858D02*
D03*
X203543D02*
D03*
X150000Y111417D02*
D03*
Y116142D02*
D03*
X161811Y107874D02*
D03*
Y115748D02*
D03*
X189370Y108268D02*
D03*
Y115748D02*
D03*
X203543Y108268D02*
D03*
Y115748D02*
D03*
X207480Y131890D02*
D03*
X214567Y146457D02*
D03*
X244094Y131102D02*
D03*
X213779Y60630D02*
D03*
X14961Y103543D02*
D03*
Y93307D02*
D03*
Y73622D02*
D03*
X26027Y203739D02*
D03*
X153543Y138189D02*
D03*
X243701Y47638D02*
D03*
X155905Y131890D02*
D03*
X188976Y167717D02*
D03*
X194488D02*
D03*
X200000D02*
D03*
X176063Y176378D02*
D03*
X44882Y216535D02*
D03*
X59055D02*
D03*
X78740D02*
D03*
X92520D02*
D03*
X137795D02*
D03*
X157480D02*
D03*
X177165D02*
D03*
X196850D02*
D03*
X232283D02*
D03*
X251969Y196850D02*
D03*
Y27559D02*
D03*
X236221Y3937D02*
D03*
X216535D02*
D03*
X232283Y19685D02*
D03*
X153543Y3937D02*
D03*
X133858D02*
D03*
X118110D02*
D03*
X98425D02*
D03*
X78740D02*
D03*
X59055D02*
D03*
X39370D02*
D03*
X23622D02*
D03*
X3937Y23622D02*
D03*
Y39370D02*
D03*
Y59055D02*
D03*
Y145669D02*
D03*
Y169291D02*
D03*
Y196850D02*
D03*
X15748Y118110D02*
D03*
Y137795D02*
D03*
X43307Y145669D02*
D03*
Y161417D02*
D03*
X23622Y165354D02*
D03*
Y145669D02*
D03*
X62992D02*
D03*
Y169291D02*
D03*
X43307Y133858D02*
D03*
X62992D02*
D03*
X99213D02*
D03*
X111024D02*
D03*
X111417Y118110D02*
D03*
X99213D02*
D03*
Y148425D02*
D03*
X111417D02*
D03*
X92520Y172047D02*
D03*
X109843Y170079D02*
D03*
X119685Y183071D02*
D03*
X148031Y75197D02*
D03*
X158268Y135433D02*
D03*
X167323Y63779D02*
D03*
X189370D02*
D03*
X167323Y74410D02*
D03*
Y94095D02*
D03*
X189370Y96850D02*
D03*
Y74410D02*
D03*
X171260Y141339D02*
D03*
Y151181D02*
D03*
X181102D02*
D03*
Y141339D02*
D03*
X203543Y96457D02*
D03*
X204724Y74410D02*
D03*
Y63779D02*
D03*
X190551Y155512D02*
D03*
X147638Y151181D02*
D03*
X171653Y171260D02*
D03*
X169291Y159055D02*
D03*
X157087D02*
D03*
X157480Y196457D02*
D03*
X177165D02*
D03*
X196850D02*
D03*
X216535D02*
D03*
Y180709D02*
D03*
X196850D02*
D03*
X177165D02*
D03*
X157480D02*
D03*
X208661Y168898D02*
D03*
X39370Y23622D02*
D03*
X59055D02*
D03*
X78740Y31496D02*
D03*
X47244Y59055D02*
D03*
X68898D02*
D03*
X90551D02*
D03*
X122047Y41339D02*
D03*
X90551Y68898D02*
D03*
X68898D02*
D03*
X110236D02*
D03*
Y59055D02*
D03*
X62992Y118110D02*
D03*
X110236Y41339D02*
D03*
X128740Y30315D02*
D03*
X211417Y140551D02*
D03*
X240158Y177165D02*
D03*
Y192913D02*
D03*
X196850Y3937D02*
D03*
X177165D02*
D03*
X105905Y187008D02*
D03*
X97244Y189370D02*
D03*
X200000Y32677D02*
D03*
X187402Y33071D02*
D03*
X189764Y25591D02*
D03*
X176772Y30315D02*
D03*
X130709Y100394D02*
D03*
X125197Y59055D02*
D03*
X128347D02*
D03*
X208268Y50787D02*
D03*
X184252Y41732D02*
D03*
X184646Y47638D02*
D03*
X193701Y149606D02*
D03*
D34*
X109285Y88189D02*
G03*
X104983Y87147I-1805J-1951D01*
G01*
X109977D02*
G03*
X109285Y88189I-2497J-909D01*
G01*
X104983Y85294D02*
G03*
X109977Y85294I2497J909D01*
G01*
X209584Y163919D02*
G03*
X206456Y165591I-2497J-909D01*
G01*
D02*
G03*
X204589Y163919I631J-2582D01*
G01*
Y162065D02*
G03*
X207087Y160317I2497J909D01*
G01*
D02*
G03*
X209584Y162065I0J2657D01*
G01*
X203408Y24664D02*
G03*
X208403Y24664I2497J909D01*
G01*
Y26517D02*
G03*
X204101Y27559I-2497J-909D01*
G01*
D02*
G03*
X203408Y26517I1805J-1951D01*
G01*
X94747Y193562D02*
G03*
X99741Y193562I2497J909D01*
G01*
Y195415D02*
G03*
X94747Y195415I-2497J-909D01*
G01*
X189899Y163919D02*
G03*
X188032Y165591I-2497J-909D01*
G01*
D02*
G03*
X184904Y163919I-631J-2582D01*
G01*
Y162065D02*
G03*
X187402Y160317I2497J909D01*
G01*
D02*
G03*
X189899Y162065I0J2657D01*
G01*
X199741Y163919D02*
G03*
X196613Y165591I-2497J-909D01*
G01*
D02*
G03*
X194747Y163919I631J-2582D01*
G01*
Y162065D02*
G03*
X197244Y160317I2497J909D01*
G01*
D02*
G03*
X199741Y162065I0J2657D01*
G01*
X205770Y58128D02*
G03*
X210765Y58128I2497J909D01*
G01*
Y59982D02*
G03*
X205770Y59982I-2497J-909D01*
G01*
Y42380D02*
G03*
X210765Y42380I2497J909D01*
G01*
Y44234D02*
G03*
X205770Y44234I-2497J-909D01*
G01*
X103408Y193562D02*
G03*
X108403Y193562I2497J909D01*
G01*
Y195415D02*
G03*
X103408Y195415I-2497J-909D01*
G01*
X12463Y97499D02*
G03*
X17458Y97499I2497J909D01*
G01*
Y99352D02*
G03*
X14961Y101100I-2497J-909D01*
G01*
D02*
G03*
X12463Y99352I0J-2657D01*
G01*
X201710Y134391D02*
G03*
X196715Y134391I-2497J-909D01*
G01*
X199213Y130789D02*
G03*
X201710Y132538I0J2657D01*
G01*
X196715D02*
G03*
X199213Y130789I2497J909D01*
G01*
X17458Y79667D02*
G03*
X12463Y79667I-2497J-909D01*
G01*
Y77814D02*
G03*
X14961Y76065I2497J909D01*
G01*
D02*
G03*
X17458Y77814I0J2657D01*
G01*
X167064Y184785D02*
G03*
X162070Y184785I-2497J-909D01*
G01*
Y182932D02*
G03*
X164567Y181183I2497J909D01*
G01*
D02*
G03*
X167064Y182932I0J2657D01*
G01*
X109977Y106832D02*
G03*
X104983Y106832I-2497J-909D01*
G01*
Y104979D02*
G03*
X109977Y104979I2497J909D01*
G01*
X101181Y170866D02*
Y182283D01*
Y170866D02*
X107480Y164567D01*
X101181Y182283D02*
X105905Y187008D01*
X107480Y87992D02*
X109449D01*
X105512D02*
X107480D01*
X104969Y87107D02*
X109992D01*
X104969Y85334D02*
X109992D01*
X105512Y84449D02*
X109449D01*
X204575Y163879D02*
X209598D01*
X204575Y162105D02*
X209598D01*
X205118Y164764D02*
X207087D01*
X209055D01*
X205118Y161221D02*
X207087D01*
X209055D01*
X203394Y24703D02*
X208417D01*
X203394Y26478D02*
X208417D01*
X203937Y23819D02*
X207874D01*
X203937Y27362D02*
X205906D01*
X207874D01*
X94733Y193601D02*
X99755D01*
X94733Y195375D02*
X99755D01*
X95276Y192717D02*
X99213D01*
X95276Y196260D02*
X99213D01*
X184890Y163879D02*
X189913D01*
X185433Y164764D02*
X187402D01*
X189370D01*
X184890Y162105D02*
X187402D01*
X189913D01*
X185433Y161221D02*
X187402D01*
X189370D01*
X194733Y163879D02*
X199755D01*
X194733Y162105D02*
X199755D01*
X195276Y164764D02*
X197244D01*
X199213D01*
X195276Y161221D02*
X197244D01*
X199213D01*
X206299Y57284D02*
X210236D01*
X205756Y58168D02*
X210779D01*
X205756Y59942D02*
X210779D01*
X206299Y60827D02*
X210236D01*
X206299Y41535D02*
X210236D01*
X205756Y42420D02*
X210779D01*
X205756Y44194D02*
X210779D01*
X206299Y45079D02*
X210236D01*
X103394Y193601D02*
X108417D01*
X103394Y195375D02*
X108417D01*
X103937Y192717D02*
X107874D01*
X103937Y196260D02*
X107874D01*
X14961Y100197D02*
X16929D01*
X14961Y99312D02*
X17472D01*
X12992Y100197D02*
X14961D01*
X12449Y99312D02*
X14961D01*
Y97538D02*
X17472D01*
X12449D02*
X14961D01*
Y96653D02*
X16929D01*
X12992D02*
X14961D01*
X196701Y134352D02*
X199213D01*
X201724D01*
X197244Y135236D02*
X199213D01*
X201181D01*
X199213Y132578D02*
X201724D01*
X199213Y131693D02*
X201181D01*
X196701Y132578D02*
X199213D01*
X197244Y131693D02*
X199213D01*
X12449Y79627D02*
X14961D01*
X17472D01*
X12992Y80512D02*
X14961D01*
X16929D01*
X12992Y76968D02*
X14961D01*
X12449Y77853D02*
X14961D01*
Y76968D02*
X16929D01*
X14961Y77853D02*
X17472D01*
X162056Y184745D02*
X164567D01*
X167078D01*
X162598Y185630D02*
X164567D01*
X166535D01*
X162056Y182971D02*
X164567D01*
X162598Y182087D02*
X164567D01*
X166535D01*
X164567Y182971D02*
X167078D01*
X105512Y107677D02*
X109449D01*
X104969Y106792D02*
X109992D01*
X104969Y105018D02*
X109992D01*
X105512Y104134D02*
X109449D01*
X197244Y158268D02*
Y160317D01*
Y161024D01*
X207087Y157480D02*
Y160317D01*
Y161024D01*
X105905Y187008D02*
Y192520D01*
X97244Y189370D02*
Y192520D01*
X104451Y196730D02*
X104724Y196457D01*
X102756Y198425D02*
X104451Y196730D01*
X102756Y198425D02*
Y202658D01*
X104724Y196457D02*
X105905D01*
X97244Y197163D02*
Y202658D01*
Y196457D02*
Y197163D01*
D35*
X107480Y88189D02*
D03*
Y84252D02*
D03*
X207087Y164961D02*
D03*
Y161024D02*
D03*
X205906Y23622D02*
D03*
Y27559D02*
D03*
X97244Y192520D02*
D03*
Y196457D02*
D03*
X187402Y164961D02*
D03*
Y161024D02*
D03*
X197244Y164961D02*
D03*
Y161024D02*
D03*
X208268Y57087D02*
D03*
Y61024D02*
D03*
Y41339D02*
D03*
Y45276D02*
D03*
X105905Y192520D02*
D03*
Y196457D02*
D03*
X14961Y100394D02*
D03*
Y96457D02*
D03*
X199213Y131496D02*
D03*
Y135433D02*
D03*
X14961Y76772D02*
D03*
Y80709D02*
D03*
X164567Y181890D02*
D03*
Y185827D02*
D03*
X107480Y107874D02*
D03*
Y103937D02*
D03*
D36*
X195079Y39370D02*
D03*
Y37795D02*
D03*
Y40945D02*
D03*
X190748Y37795D02*
D03*
Y39370D02*
D03*
Y40945D02*
D03*
D37*
X192913Y39370D02*
D03*
D38*
X109646Y27165D02*
D03*
X121850D02*
D03*
X88386D02*
D03*
X100591D02*
D03*
X88386Y39764D02*
D03*
X100591D02*
D03*
D39*
X176772Y25591D02*
D03*
Y37402D02*
D03*
D40*
X185039Y25591D02*
D03*
X196850D02*
D03*
D41*
X243701Y119528D02*
X250000Y125827D01*
X243701Y47638D02*
Y119528D01*
X164567Y178740D02*
X166929Y176378D01*
X176063D01*
X164567Y178740D02*
Y181183D01*
Y181890D01*
X196299Y13386D02*
Y24567D01*
X185827Y13858D02*
X186299Y13386D01*
X185827Y13858D02*
Y24803D01*
D42*
X187402Y156693D02*
Y160317D01*
Y161024D01*
D43*
X188583Y40945D02*
X190748D01*
X187795Y40157D02*
X188583Y40945D01*
X187795Y37795D02*
Y40157D01*
Y37795D02*
X190748D01*
X192913D02*
X195079D01*
X192913Y37795D02*
X192913Y37795D01*
X195079Y40945D02*
X196457D01*
X196850Y40551D01*
X196457Y33465D02*
X196850Y33858D01*
X195079Y39370D02*
X196850D01*
X196850Y39370D01*
Y33858D02*
Y39370D01*
Y40551D01*
D44*
X105315Y26575D02*
D03*
D45*
X100197Y33268D02*
D03*
D46*
X109646Y27165D02*
D03*
D47*
X185433Y38583D02*
D03*
D48*
X195866Y35039D02*
D03*
M02*
