G04 Layer_Color=8388736*
%FSLAX25Y25*%
%MOIN*%
G70*
G01*
G75*
%ADD22C,0.06299*%
%ADD30C,0.23622*%
%ADD31C,0.06693*%
%ADD32R,0.06693X0.06693*%
%ADD59R,0.03740X0.03937*%
%ADD60O,0.03543X0.01969*%
%ADD61R,0.06693X0.06693*%
%ADD62R,0.03937X0.03740*%
%ADD63C,0.12598*%
%ADD64C,0.07087*%
%ADD65R,0.07087X0.07087*%
%ADD66C,0.07287*%
%ADD67R,0.07287X0.07287*%
%ADD68O,0.05512X0.10236*%
%ADD69C,0.05315*%
%ADD70C,0.00787*%
%ADD71C,0.07480*%
%ADD72R,0.07480X0.07480*%
D22*
X156299Y13386D02*
D03*
X166299D02*
D03*
X176299D02*
D03*
X186299D02*
D03*
X250000Y55827D02*
D03*
Y65827D02*
D03*
Y75827D02*
D03*
Y85827D02*
D03*
Y45827D02*
D03*
Y35827D02*
D03*
X237402Y85827D02*
D03*
Y95827D02*
D03*
Y135827D02*
D03*
Y125827D02*
D03*
Y115827D02*
D03*
Y105827D02*
D03*
Y75827D02*
D03*
Y65827D02*
D03*
X250000Y135827D02*
D03*
Y145827D02*
D03*
Y155827D02*
D03*
Y165827D02*
D03*
Y125827D02*
D03*
Y115827D02*
D03*
D30*
X13780Y206693D02*
D03*
X242126D02*
D03*
Y13780D02*
D03*
X13780D02*
D03*
D31*
X196299Y13386D02*
D03*
X250000Y95827D02*
D03*
X128898Y189606D02*
D03*
X237402Y145827D02*
D03*
X250000Y175827D02*
D03*
X45276Y178347D02*
D03*
X37402D02*
D03*
X114567D02*
D03*
X106693D02*
D03*
X72047Y200984D02*
D03*
X64173D02*
D03*
X79921D02*
D03*
X87795D02*
D03*
X20079Y39150D02*
D03*
X12205D02*
D03*
D32*
X250000Y105827D02*
D03*
X128898Y199606D02*
D03*
X237402Y155827D02*
D03*
X250000Y185827D02*
D03*
D59*
X6988Y158268D02*
D03*
X12697D02*
D03*
X183169Y171260D02*
D03*
X177461D02*
D03*
X6988Y163779D02*
D03*
X12697D02*
D03*
D60*
X172638Y163583D02*
D03*
Y165551D02*
D03*
Y161614D02*
D03*
Y159646D02*
D03*
X183268D02*
D03*
Y161614D02*
D03*
Y163583D02*
D03*
Y165551D02*
D03*
D61*
X177953Y162598D02*
D03*
X206299Y13386D02*
D03*
X222047D02*
D03*
D62*
X200000Y176476D02*
D03*
Y170768D02*
D03*
X188976Y176476D02*
D03*
Y170768D02*
D03*
X194488D02*
D03*
Y176476D02*
D03*
D63*
X216219Y210448D02*
D03*
Y30449D02*
D03*
X146219D02*
D03*
Y210448D02*
D03*
D64*
X141220Y45449D02*
D03*
Y55449D02*
D03*
Y65449D02*
D03*
Y75449D02*
D03*
Y145449D02*
D03*
Y155449D02*
D03*
Y165449D02*
D03*
Y175449D02*
D03*
Y185449D02*
D03*
Y135449D02*
D03*
Y125449D02*
D03*
Y115449D02*
D03*
Y105449D02*
D03*
Y95449D02*
D03*
Y85449D02*
D03*
X221220Y45449D02*
D03*
Y55449D02*
D03*
Y65449D02*
D03*
Y75449D02*
D03*
Y85449D02*
D03*
Y95449D02*
D03*
Y145449D02*
D03*
Y135449D02*
D03*
Y125449D02*
D03*
Y115449D02*
D03*
Y105449D02*
D03*
D65*
X141220Y195449D02*
D03*
X221220Y155449D02*
D03*
D66*
X30709Y67795D02*
D03*
Y87795D02*
D03*
Y97795D02*
D03*
Y107795D02*
D03*
Y117795D02*
D03*
Y127795D02*
D03*
Y77795D02*
D03*
X120709Y67795D02*
D03*
Y87795D02*
D03*
Y97795D02*
D03*
Y107795D02*
D03*
Y117795D02*
D03*
Y127795D02*
D03*
Y77795D02*
D03*
D67*
X30709Y137795D02*
D03*
X120709D02*
D03*
D68*
X55315Y31496D02*
D03*
X71063D02*
D03*
X41535D02*
D03*
D69*
X55315Y11811D02*
D03*
D70*
X118209Y157795D02*
D03*
X33209D02*
D03*
Y214291D02*
D03*
X118209D02*
D03*
X75709Y127795D02*
D03*
D71*
X114724Y14173D02*
D03*
X104724D02*
D03*
D72*
X94724D02*
D03*
M02*
