G04 Layer_Physical_Order=1*
G04 Layer_Color=255*
%FSLAX25Y25*%
%MOIN*%
G70*
G01*
G75*
%ADD10C,0.01575*%
%ADD11R,0.02953X0.03150*%
%ADD12O,0.02756X0.01181*%
%ADD13R,0.05906X0.05906*%
%ADD14R,0.03150X0.02953*%
%ADD15C,0.03937*%
%ADD16C,0.00787*%
%ADD17C,0.00800*%
%ADD18C,0.02362*%
%ADD19C,0.01969*%
%ADD20C,0.01000*%
%ADD21C,0.11811*%
%ADD22C,0.06299*%
%ADD23R,0.06299X0.06299*%
%ADD24C,0.05906*%
%ADD25C,0.06500*%
%ADD26R,0.06500X0.06500*%
%ADD27R,0.05906X0.05906*%
%ADD28O,0.04724X0.09449*%
%ADD29C,0.04528*%
%ADD30C,0.23622*%
%ADD31C,0.06693*%
%ADD32R,0.06693X0.06693*%
%ADD33C,0.02362*%
G36*
X236065Y217754D02*
X234698Y216917D01*
X233190Y215629D01*
X231902Y214121D01*
X230866Y212430D01*
X230107Y210598D01*
X229644Y208670D01*
X229520Y207087D01*
X242126D01*
Y206693D01*
X242520D01*
Y194087D01*
X244103Y194211D01*
X246031Y194674D01*
X247863Y195433D01*
X249554Y196469D01*
X251062Y197757D01*
X252350Y199265D01*
X253187Y200631D01*
X253975Y200409D01*
Y190279D01*
X245547D01*
Y184105D01*
X242336Y180893D01*
X241917Y180266D01*
X241770Y179528D01*
Y175209D01*
X233452Y166891D01*
X213386D01*
X212647Y166744D01*
X212020Y166326D01*
X207591Y161897D01*
X206864Y162198D01*
Y175197D01*
X206671Y176166D01*
X206122Y176988D01*
X204842Y178267D01*
X204021Y178816D01*
X203075Y179005D01*
Y179453D01*
X185902D01*
Y179009D01*
X176617D01*
X176063Y179082D01*
X175509Y179009D01*
X155675D01*
X153714Y180970D01*
Y186614D01*
X153521Y187583D01*
X152972Y188405D01*
X149035Y192342D01*
X148213Y192891D01*
X147244Y193084D01*
X145870D01*
Y200098D01*
X139311D01*
X138433Y200976D01*
X137804Y201396D01*
X137063Y201543D01*
X133350D01*
Y204059D01*
X124445D01*
Y197021D01*
X90014D01*
X89854Y197355D01*
X89800Y197809D01*
X90463Y198317D01*
X91062Y199098D01*
X91439Y200008D01*
X91516Y200590D01*
X87795D01*
Y200984D01*
X87401D01*
Y204705D01*
X86819Y204628D01*
X85909Y204251D01*
X85128Y203652D01*
X84712Y203111D01*
X83848Y203141D01*
X83811Y203230D01*
X83097Y204160D01*
X82167Y204874D01*
X81084Y205322D01*
X79921Y205475D01*
X78759Y205322D01*
X77676Y204874D01*
X76745Y204160D01*
X76481Y203815D01*
X75488D01*
X75223Y204160D01*
X74293Y204874D01*
X73210Y205322D01*
X72047Y205475D01*
X70885Y205322D01*
X69802Y204874D01*
X68871Y204160D01*
X68607Y203815D01*
X67614Y203815D01*
X67349Y204160D01*
X66419Y204874D01*
X65336Y205322D01*
X64173Y205475D01*
X63011Y205322D01*
X61928Y204874D01*
X60997Y204160D01*
X60284Y203230D01*
X59835Y202147D01*
X59682Y200984D01*
X59835Y199822D01*
X60284Y198739D01*
X60997Y197809D01*
X61928Y197095D01*
X63011Y196646D01*
X64173Y196493D01*
X65336Y196646D01*
X65650Y196776D01*
X76784Y185643D01*
X77411Y185224D01*
X78150Y185077D01*
X104018D01*
X104553Y184666D01*
X105206Y184396D01*
X105905Y184304D01*
X106605Y184396D01*
X107258Y184666D01*
X107793Y185077D01*
X118492D01*
X134855Y168713D01*
X135482Y168295D01*
X136221Y168148D01*
X137439D01*
X137541Y167940D01*
X137751Y167360D01*
X137385Y166477D01*
X137301Y165843D01*
X141220D01*
X145140D01*
X145056Y166477D01*
X144690Y167360D01*
X144899Y167940D01*
X145002Y168148D01*
X147625D01*
X153556Y162217D01*
X154182Y161799D01*
X154921Y161652D01*
X169688D01*
X169719Y161614D01*
X169881Y160799D01*
X170343Y160107D01*
X170515Y159993D01*
X170446Y159646D01*
X170552Y159108D01*
X170857Y158652D01*
X171313Y158348D01*
X171850Y158241D01*
X173425D01*
X173963Y158348D01*
X174419Y158652D01*
X174556Y158858D01*
X177559D01*
Y162598D01*
Y166339D01*
X175400D01*
X175394Y166367D01*
X174932Y167058D01*
X174241Y167520D01*
X173425Y167683D01*
X171850D01*
X171035Y167520D01*
X170977Y167482D01*
X158871D01*
X145066Y181287D01*
X144885Y181407D01*
X144805Y181574D01*
X144733Y182388D01*
X145282Y183104D01*
X145750Y184235D01*
X145910Y185449D01*
X145750Y186663D01*
X146255Y187502D01*
X146670Y187543D01*
X148648Y185565D01*
Y179921D01*
X148841Y178952D01*
X149390Y178130D01*
X152835Y174685D01*
X153657Y174136D01*
X154626Y173943D01*
X174543D01*
X175026Y173706D01*
X175197Y173265D01*
X175197Y173022D01*
Y171653D01*
X177461D01*
Y171260D01*
X177854D01*
Y168898D01*
X179405D01*
X179724Y168898D01*
X180193Y168304D01*
Y168185D01*
X181277D01*
X181481Y167398D01*
X180973Y167058D01*
X180511Y166367D01*
X180505Y166339D01*
X178347D01*
Y162598D01*
Y158858D01*
X180505D01*
X180511Y158830D01*
X180973Y158139D01*
X181665Y157676D01*
X182480Y157514D01*
X184055D01*
X184871Y157676D01*
X184928Y157715D01*
X195669D01*
X196408Y157862D01*
X197035Y158280D01*
X200914Y162160D01*
X201640Y161874D01*
X201715Y161203D01*
X192540Y152027D01*
X192349Y151948D01*
X191789Y151518D01*
X191359Y150958D01*
X191089Y150306D01*
X190997Y149606D01*
X191089Y148906D01*
X191359Y148254D01*
X191559Y147994D01*
X191178Y147206D01*
X150012D01*
X145460Y151759D01*
X145316Y151855D01*
X145099Y152866D01*
X145282Y153104D01*
X145750Y154235D01*
X145910Y155449D01*
X145750Y156663D01*
X145282Y157794D01*
X144537Y158765D01*
X143565Y159510D01*
X142434Y159979D01*
X141220Y160138D01*
X140007Y159979D01*
X138876Y159510D01*
X137904Y158765D01*
X137159Y157794D01*
X136691Y156663D01*
X136531Y155449D01*
X136691Y154235D01*
X137159Y153104D01*
X137215Y153031D01*
X136867Y152324D01*
X136165D01*
X135426Y152178D01*
X134800Y151759D01*
X130126Y147085D01*
X130099Y147067D01*
X128276Y145244D01*
X36220D01*
X35479Y145097D01*
X34851Y144677D01*
X32719Y142545D01*
X25959D01*
Y133045D01*
X28913D01*
X29070Y132258D01*
X28313Y131944D01*
X27321Y131183D01*
X26559Y130191D01*
X26309Y129587D01*
X26269Y129579D01*
X25643Y129160D01*
X23044Y126562D01*
X22626Y125936D01*
X22479Y125197D01*
Y115748D01*
X22626Y115009D01*
X23044Y114383D01*
X26194Y111233D01*
X26308Y111157D01*
X26559Y110191D01*
X26081Y109035D01*
X25918Y107795D01*
X26081Y106555D01*
X26559Y105400D01*
X27321Y104408D01*
X28313Y103646D01*
X29378Y103205D01*
X29469Y102890D01*
Y102701D01*
X29378Y102385D01*
X28313Y101944D01*
X27321Y101183D01*
X26559Y100191D01*
X26200Y99322D01*
X25958Y99161D01*
X23635Y96838D01*
X23216Y96211D01*
X23069Y95472D01*
Y86024D01*
X23216Y85285D01*
X23635Y84658D01*
X27229Y81064D01*
X26559Y80191D01*
X26081Y79035D01*
X25986Y78316D01*
X25155Y78034D01*
X17493Y85695D01*
Y92416D01*
X17573Y92607D01*
X17665Y93307D01*
X17573Y94007D01*
X17303Y94659D01*
X16873Y95219D01*
X16313Y95649D01*
X15661Y95919D01*
X14961Y96011D01*
X14261Y95919D01*
X13609Y95649D01*
X13048Y95219D01*
X12619Y94659D01*
X12348Y94007D01*
X12256Y93307D01*
X12348Y92607D01*
X12428Y92416D01*
Y84646D01*
X12620Y83676D01*
X13170Y82855D01*
X25195Y70829D01*
X26017Y70280D01*
X26505Y70183D01*
X26967Y69368D01*
X26965Y69308D01*
X26775Y68849D01*
X26688Y68189D01*
X30709D01*
X34729D01*
X34642Y68849D01*
X34455Y69300D01*
X34982Y70087D01*
X37187D01*
X38156Y70280D01*
X38978Y70829D01*
X43411Y75262D01*
X116665D01*
X117321Y74408D01*
X118313Y73646D01*
X119469Y73168D01*
X120709Y73004D01*
X121949Y73168D01*
X123104Y73646D01*
X124096Y74408D01*
X124858Y75400D01*
X125336Y76555D01*
X125500Y77795D01*
X125336Y79035D01*
X125167Y79444D01*
X125604Y80099D01*
X133840D01*
X136862Y77077D01*
X136691Y76663D01*
X136531Y75449D01*
X136691Y74235D01*
X137159Y73104D01*
X137904Y72133D01*
X138876Y71387D01*
X140007Y70919D01*
X140561Y70846D01*
Y70052D01*
X140007Y69979D01*
X138876Y69510D01*
X137904Y68765D01*
X137159Y67794D01*
X136691Y66663D01*
X136531Y65449D01*
X136691Y64235D01*
X137159Y63104D01*
X137904Y62133D01*
X138876Y61387D01*
X140007Y60919D01*
X140561Y60846D01*
Y60052D01*
X140007Y59979D01*
X138876Y59510D01*
X137904Y58765D01*
X137159Y57794D01*
X136691Y56663D01*
X136531Y55449D01*
X136691Y54235D01*
X137159Y53104D01*
X137904Y52133D01*
X138876Y51387D01*
X140007Y50919D01*
X140561Y50846D01*
Y50052D01*
X140007Y49979D01*
X138876Y49510D01*
X137904Y48765D01*
X137159Y47794D01*
X136691Y46663D01*
X136647Y46331D01*
X135816Y46049D01*
X130277Y51587D01*
Y57167D01*
X130688Y57703D01*
X130959Y58355D01*
X131051Y59055D01*
X130959Y59755D01*
X130688Y60407D01*
X130259Y60967D01*
X129699Y61397D01*
X129046Y61667D01*
X128347Y61759D01*
X127647Y61667D01*
X126994Y61397D01*
X126772Y61226D01*
X126549Y61397D01*
X125897Y61667D01*
X125197Y61759D01*
X124497Y61667D01*
X123845Y61397D01*
X123285Y60967D01*
X122855Y60407D01*
X122585Y59755D01*
X122493Y59055D01*
X122585Y58355D01*
X122855Y57703D01*
X123266Y57167D01*
Y49213D01*
X123413Y48474D01*
X123832Y47847D01*
X134855Y36824D01*
X135482Y36405D01*
X136221Y36258D01*
X141506D01*
X141788Y35471D01*
X141463Y35204D01*
X140627Y34185D01*
X140006Y33022D01*
X139623Y31761D01*
X139532Y30843D01*
X146219D01*
Y30449D01*
X146613D01*
Y23762D01*
X147531Y23853D01*
X148274Y24078D01*
X148691Y23382D01*
X146911Y21602D01*
X120805D01*
X89314Y53093D01*
X88754Y53523D01*
X88102Y53793D01*
X87752Y53839D01*
X87402Y53885D01*
X87401Y53885D01*
X37829D01*
X27665Y64050D01*
X28185Y64643D01*
X28673Y64269D01*
X29655Y63862D01*
X30315Y63775D01*
Y67402D01*
X26688D01*
X26775Y66741D01*
X27182Y65759D01*
X27556Y65272D01*
X26963Y64751D01*
X17600Y74114D01*
X17573Y74322D01*
X17303Y74974D01*
X16873Y75534D01*
X16313Y75964D01*
X15661Y76234D01*
X14961Y76326D01*
X14261Y76234D01*
X13609Y75964D01*
X13048Y75534D01*
X12619Y74974D01*
X12348Y74322D01*
X12269Y73714D01*
X12034Y73559D01*
X11469Y73400D01*
X8223Y76646D01*
Y100839D01*
X14961D01*
X15661Y100931D01*
X16313Y101201D01*
X16873Y101631D01*
X17303Y102191D01*
X17573Y102843D01*
X17665Y103543D01*
X17573Y104243D01*
X17303Y104895D01*
X16873Y105456D01*
X16313Y105885D01*
X15661Y106155D01*
X14961Y106248D01*
X8223D01*
Y138512D01*
X20190Y150479D01*
X20746Y151204D01*
X21096Y152047D01*
X21155Y152500D01*
X21215Y152953D01*
Y163386D01*
Y172173D01*
X30583Y181541D01*
X33248D01*
X33636Y180754D01*
X33512Y180592D01*
X33063Y179509D01*
X32910Y178347D01*
X33063Y177184D01*
X33512Y176101D01*
X34226Y175171D01*
X35156Y174457D01*
X36239Y174008D01*
X37402Y173855D01*
X38564Y174008D01*
X39647Y174457D01*
X40577Y175171D01*
X41291Y176101D01*
X41328Y176190D01*
X42193Y176220D01*
X42608Y175679D01*
X43389Y175079D01*
X44299Y174703D01*
X44882Y174626D01*
Y178346D01*
X45276D01*
Y178740D01*
X48996D01*
X48919Y179323D01*
X48543Y180233D01*
X48143Y180754D01*
X48485Y181541D01*
X65086D01*
X70164Y176463D01*
X70755Y175873D01*
X71479Y175317D01*
X72323Y174967D01*
X73228Y174848D01*
X103938D01*
X104447Y174457D01*
X105531Y174008D01*
X106693Y173855D01*
X107855Y174008D01*
X108939Y174457D01*
X109869Y175171D01*
X110582Y176101D01*
X110619Y176190D01*
X111484Y176220D01*
X111899Y175679D01*
X112681Y175079D01*
X113591Y174703D01*
X114173Y174626D01*
Y178346D01*
Y182067D01*
X113591Y181990D01*
X112681Y181614D01*
X111899Y181014D01*
X111484Y180473D01*
X110619Y180503D01*
X110582Y180592D01*
X109869Y181522D01*
X108939Y182236D01*
X107855Y182685D01*
X106693Y182838D01*
X105531Y182685D01*
X104447Y182236D01*
X103938Y181845D01*
X74677D01*
X69009Y187513D01*
X68285Y188069D01*
X67441Y188419D01*
X66535Y188538D01*
X29134D01*
X28228Y188419D01*
X27385Y188069D01*
X26660Y187513D01*
X15243Y176096D01*
X14687Y175371D01*
X14337Y174528D01*
X14218Y173622D01*
Y166854D01*
X4012D01*
Y160705D01*
Y155193D01*
X9965D01*
Y155312D01*
X10433Y155905D01*
X12303D01*
Y158268D01*
X13091D01*
Y155905D01*
X14218D01*
Y154402D01*
X2718Y142902D01*
X1931Y143228D01*
Y200409D01*
X2718Y200631D01*
X3556Y199265D01*
X4843Y197757D01*
X6352Y196469D01*
X8042Y195433D01*
X9874Y194674D01*
X11803Y194211D01*
X13386Y194087D01*
Y206693D01*
X14173D01*
Y194087D01*
X15756Y194211D01*
X17685Y194674D01*
X19517Y195433D01*
X21208Y196469D01*
X22715Y197757D01*
X24003Y199265D01*
X25039Y200956D01*
X25798Y202788D01*
X26261Y204716D01*
X26381Y206240D01*
X27198Y206588D01*
X27756Y206131D01*
X29453Y205223D01*
X31294Y204665D01*
X33209Y204476D01*
X35124Y204665D01*
X36965Y205223D01*
X38662Y206131D01*
X40149Y207351D01*
X41370Y208838D01*
X42276Y210535D01*
X42835Y212376D01*
X43024Y214291D01*
X42835Y216206D01*
X42365Y217754D01*
X42812Y218542D01*
X108605D01*
X109052Y217754D01*
X108582Y216206D01*
X108394Y214291D01*
X108582Y212376D01*
X109141Y210535D01*
X110048Y208838D01*
X111268Y207351D01*
X112756Y206131D01*
X114453Y205223D01*
X116294Y204665D01*
X118209Y204476D01*
X120124Y204665D01*
X121965Y205223D01*
X123662Y206131D01*
X125149Y207351D01*
X126370Y208838D01*
X127277Y210535D01*
X127835Y212376D01*
X128024Y214291D01*
X127835Y216206D01*
X127365Y217754D01*
X127812Y218542D01*
X235842D01*
X236065Y217754D01*
D02*
G37*
G36*
X129291Y185886D02*
X129874Y185962D01*
X130784Y186339D01*
X131565Y186939D01*
X132165Y187720D01*
X132542Y188630D01*
X132555Y188733D01*
X133387Y189016D01*
X133642Y188760D01*
X134464Y188211D01*
X135433Y188018D01*
X136400D01*
X136926Y187231D01*
X136691Y186663D01*
X136531Y185449D01*
X136691Y184235D01*
X137159Y183104D01*
X137515Y182640D01*
X137127Y181852D01*
X130721D01*
X127139Y185434D01*
X127585Y186102D01*
X127921Y185962D01*
X128504Y185886D01*
Y189606D01*
X129291D01*
Y185886D01*
D02*
G37*
G36*
X147847Y143910D02*
X148474Y143492D01*
X149213Y143345D01*
X192341D01*
X192643Y142617D01*
X190145Y140120D01*
X155431D01*
X154895Y140531D01*
X154243Y140801D01*
X153543Y140893D01*
X152843Y140801D01*
X152191Y140531D01*
X151631Y140101D01*
X151201Y139541D01*
X150931Y138889D01*
X150866Y138397D01*
X150825Y138189D01*
X150866Y137981D01*
X150931Y137489D01*
X151201Y136837D01*
X151631Y136277D01*
X152191Y135847D01*
X152843Y135577D01*
X153543Y135485D01*
X154243Y135577D01*
X154820Y135816D01*
X155223Y135643D01*
X155470Y135452D01*
X155473Y134646D01*
X154944Y134394D01*
X154553Y134232D01*
X153993Y133802D01*
X153564Y133242D01*
X153480Y133041D01*
X152566Y132842D01*
X149175Y136233D01*
Y139425D01*
X149028Y140164D01*
X148609Y140790D01*
X145579Y143821D01*
X145750Y144235D01*
X145827Y144817D01*
X146658Y145099D01*
X147847Y143910D01*
D02*
G37*
G36*
X217110Y147676D02*
X216690Y146663D01*
X216531Y145449D01*
X216690Y144235D01*
X217159Y143104D01*
X217904Y142133D01*
X218876Y141387D01*
X220007Y140919D01*
X220561Y140846D01*
Y140052D01*
X220007Y139979D01*
X218876Y139510D01*
X217904Y138765D01*
X217159Y137794D01*
X216690Y136663D01*
X216531Y135449D01*
X216690Y134235D01*
X216862Y133821D01*
X216336Y133033D01*
X211811D01*
X211072Y132886D01*
X210446Y132468D01*
X209436Y131458D01*
X195848D01*
X195546Y132186D01*
X211823Y148463D01*
X216799D01*
X217110Y147676D01*
D02*
G37*
G36*
X233348Y147676D02*
X233063Y146989D01*
X232910Y145827D01*
X233063Y144664D01*
X233512Y143581D01*
X234226Y142651D01*
X235156Y141937D01*
X236239Y141489D01*
X237402Y141336D01*
X238564Y141489D01*
X239647Y141937D01*
X240577Y142651D01*
X240983Y143179D01*
X241770Y142912D01*
Y142126D01*
X241917Y141387D01*
X242336Y140761D01*
X245792Y137304D01*
X245662Y136989D01*
X245509Y135827D01*
X245662Y134664D01*
X246111Y133581D01*
X246824Y132651D01*
X247754Y131937D01*
X248838Y131489D01*
X250000Y131336D01*
X251162Y131489D01*
X252246Y131937D01*
X253176Y132651D01*
X253187Y132666D01*
X253975Y132399D01*
Y129255D01*
X253187Y128987D01*
X253176Y129002D01*
X252246Y129716D01*
X251162Y130165D01*
X250000Y130318D01*
X248838Y130165D01*
X247754Y129716D01*
X246824Y129002D01*
X246111Y128072D01*
X245662Y126989D01*
X245509Y125827D01*
X245662Y124664D01*
X246111Y123581D01*
X246824Y122651D01*
X247754Y121937D01*
X248838Y121489D01*
X250000Y121336D01*
X251162Y121489D01*
X252246Y121937D01*
X253176Y122651D01*
X253187Y122666D01*
X253975Y122399D01*
Y118034D01*
X253565Y117848D01*
X253187Y117817D01*
X252667Y118494D01*
X251886Y119094D01*
X250976Y119471D01*
X250394Y119547D01*
Y115827D01*
X250000D01*
Y115433D01*
X246279D01*
X246356Y114850D01*
X246733Y113941D01*
X247188Y113348D01*
X246914Y112561D01*
X246063D01*
X245324Y112414D01*
X244698Y111995D01*
X241942Y109239D01*
X241684Y108854D01*
X240940Y108733D01*
X240754Y108772D01*
X240577Y109002D01*
X239647Y109716D01*
X238564Y110165D01*
X237402Y110318D01*
X236239Y110165D01*
X235924Y110035D01*
X234546Y111413D01*
X235067Y112006D01*
X235156Y111937D01*
X236239Y111489D01*
X237402Y111336D01*
X238564Y111489D01*
X239647Y111937D01*
X240577Y112651D01*
X241291Y113581D01*
X241740Y114664D01*
X241893Y115827D01*
X241740Y116989D01*
X241291Y118072D01*
X240577Y119002D01*
X239647Y119716D01*
X238935Y120011D01*
X238767Y120263D01*
X238290Y120740D01*
X238366Y120966D01*
X238628Y121515D01*
X239647Y121937D01*
X240577Y122651D01*
X241291Y123581D01*
X241740Y124664D01*
X241893Y125827D01*
X241740Y126989D01*
X241291Y128072D01*
X240577Y129002D01*
X239647Y129716D01*
X238564Y130165D01*
X237402Y130318D01*
X236239Y130165D01*
X235156Y129716D01*
X234226Y129002D01*
X233512Y128072D01*
X233090Y127053D01*
X232540Y126791D01*
X232315Y126715D01*
X226562Y132468D01*
X225936Y132886D01*
X225556Y133765D01*
X225750Y134235D01*
X225910Y135449D01*
X225750Y136663D01*
X225282Y137794D01*
X224537Y138765D01*
X223565Y139510D01*
X222434Y139979D01*
X221880Y140052D01*
Y140846D01*
X222434Y140919D01*
X223565Y141387D01*
X224537Y142133D01*
X225282Y143104D01*
X225750Y144235D01*
X225910Y145449D01*
X225750Y146663D01*
X225331Y147676D01*
X225641Y148463D01*
X232874D01*
X233348Y147676D01*
D02*
G37*
G36*
X115959Y136563D02*
X113595Y134200D01*
X113177Y133573D01*
X113030Y132835D01*
Y125591D01*
X113177Y124852D01*
X113595Y124225D01*
X116351Y121469D01*
X116481Y121382D01*
X116694Y120366D01*
X116560Y120191D01*
X116081Y119035D01*
X115918Y117795D01*
X116081Y116555D01*
X116560Y115400D01*
X116681Y115242D01*
X116332Y114536D01*
X40566D01*
X35937Y119165D01*
X35308Y119585D01*
X35091Y119628D01*
X34858Y120191D01*
X34096Y121183D01*
X33104Y121944D01*
X32040Y122385D01*
X31949Y122701D01*
Y122889D01*
X32040Y123205D01*
X33104Y123646D01*
X34096Y124407D01*
X34858Y125400D01*
X35336Y126555D01*
X35500Y127795D01*
X35336Y129035D01*
X34858Y130191D01*
X34096Y131183D01*
X33104Y131944D01*
X32347Y132258D01*
X32504Y133045D01*
X35459D01*
Y139806D01*
X37023Y141370D01*
X115959D01*
Y136563D01*
D02*
G37*
G36*
X116428Y109874D02*
X116081Y109035D01*
X115918Y107795D01*
X116081Y106555D01*
X116363Y105874D01*
X115844Y105087D01*
X44503D01*
X39686Y109904D01*
X39687Y109917D01*
X40042Y110661D01*
X116001D01*
X116428Y109874D01*
D02*
G37*
G36*
X210835Y115559D02*
X211463Y115139D01*
X212205Y114992D01*
X216591D01*
X216690Y114235D01*
X217159Y113104D01*
X217904Y112133D01*
X218876Y111387D01*
X220007Y110919D01*
X220561Y110846D01*
Y110052D01*
X220007Y109979D01*
X218876Y109510D01*
X217904Y108765D01*
X217159Y107794D01*
X216690Y106663D01*
X216531Y105449D01*
X216690Y104235D01*
X217159Y103104D01*
X217215Y103031D01*
X216867Y102324D01*
X214579D01*
X210027Y106877D01*
X209400Y107296D01*
X208661Y107443D01*
X151957D01*
X145579Y113821D01*
X145750Y114235D01*
X145910Y115449D01*
X145750Y116663D01*
X145572Y117093D01*
X146010Y117748D01*
X208646D01*
X210835Y115559D01*
D02*
G37*
G36*
X42331Y101780D02*
X42959Y101360D01*
X43701Y101212D01*
X116351D01*
X116739Y100425D01*
X116560Y100191D01*
X116081Y99035D01*
X115918Y97795D01*
X116081Y96555D01*
X116463Y95632D01*
X116086Y94844D01*
X45603D01*
X34913Y105534D01*
X35336Y106555D01*
X35465Y107532D01*
X36230Y107881D01*
X42331Y101780D01*
D02*
G37*
G36*
X245792Y77304D02*
X245662Y76989D01*
X245509Y75827D01*
X245662Y74664D01*
X246111Y73581D01*
X246824Y72651D01*
X247754Y71937D01*
X248838Y71489D01*
X250000Y71336D01*
X251162Y71489D01*
X252246Y71937D01*
X253176Y72651D01*
X253187Y72666D01*
X253975Y72399D01*
Y69255D01*
X253187Y68987D01*
X253176Y69002D01*
X252246Y69716D01*
X251162Y70165D01*
X250000Y70318D01*
X248838Y70165D01*
X247754Y69716D01*
X246824Y69002D01*
X246111Y68072D01*
X245662Y66989D01*
X245509Y65827D01*
X245662Y64664D01*
X245792Y64350D01*
X244003Y62561D01*
X240487D01*
X240214Y63348D01*
X240669Y63941D01*
X241045Y64850D01*
X241122Y65433D01*
X237402D01*
X233681D01*
X233758Y64850D01*
X234135Y63941D01*
X234589Y63348D01*
X234316Y62561D01*
X225767D01*
X225383Y63348D01*
X225750Y64235D01*
X225910Y65449D01*
X225750Y66663D01*
X225569Y67099D01*
X226007Y67754D01*
X231260D01*
X231999Y67901D01*
X232625Y68320D01*
X235924Y71619D01*
X236239Y71489D01*
X237402Y71336D01*
X238564Y71489D01*
X239647Y71937D01*
X240577Y72651D01*
X241291Y73581D01*
X241740Y74664D01*
X241893Y75827D01*
X241740Y76989D01*
X241596Y77336D01*
X242034Y77991D01*
X245106D01*
X245792Y77304D01*
D02*
G37*
G36*
X216625Y86163D02*
X216531Y85449D01*
X216690Y84235D01*
X217159Y83104D01*
X217276Y82952D01*
X216927Y82246D01*
X158661D01*
X157922Y82099D01*
X157296Y81680D01*
X144448Y68833D01*
X143565Y69510D01*
X142434Y69979D01*
X141880Y70052D01*
Y70846D01*
X142434Y70919D01*
X143565Y71387D01*
X144537Y72133D01*
X145282Y73104D01*
X145750Y74235D01*
X145910Y75449D01*
X145750Y76663D01*
X145282Y77794D01*
X144537Y78765D01*
X143565Y79510D01*
X142434Y79979D01*
X141880Y80052D01*
Y80846D01*
X142434Y80919D01*
X143565Y81387D01*
X144537Y82133D01*
X145282Y83104D01*
X145750Y84235D01*
X145910Y85449D01*
X145750Y86663D01*
X145282Y87794D01*
X144537Y88765D01*
X143565Y89510D01*
X142434Y89979D01*
X141880Y90052D01*
Y90846D01*
X142434Y90919D01*
X143565Y91387D01*
X144537Y92133D01*
X145282Y93104D01*
X145750Y94235D01*
X145910Y95449D01*
X145750Y96663D01*
X145334Y97669D01*
X145648Y98457D01*
X204331D01*
X216625Y86163D01*
D02*
G37*
G36*
X216872Y67099D02*
X216690Y66663D01*
X216531Y65449D01*
X216690Y64235D01*
X217058Y63348D01*
X216673Y62561D01*
X215668D01*
X215132Y62972D01*
X214479Y63242D01*
X213779Y63334D01*
X213080Y63242D01*
X212427Y62972D01*
X211892Y62561D01*
X168504D01*
X167765Y62414D01*
X167139Y61995D01*
X148019Y42876D01*
X146040D01*
X145513Y43663D01*
X145750Y44235D01*
X145805Y44649D01*
X168910Y67754D01*
X216434D01*
X216872Y67099D01*
D02*
G37*
G36*
X217312Y57993D02*
X217159Y57794D01*
X216690Y56663D01*
X216531Y55449D01*
X216690Y54235D01*
X216993Y53506D01*
X216516Y52718D01*
X210156D01*
X209620Y53129D01*
X208968Y53399D01*
X208268Y53492D01*
X207568Y53399D01*
X206916Y53129D01*
X206380Y52718D01*
X167717D01*
X166978Y52571D01*
X166351Y52153D01*
X154318Y40120D01*
X151753D01*
X151452Y40847D01*
X169304Y58699D01*
X211892D01*
X212427Y58288D01*
X213080Y58018D01*
X213779Y57926D01*
X214479Y58018D01*
X215132Y58288D01*
X215668Y58699D01*
X216964D01*
X217312Y57993D01*
D02*
G37*
G36*
X217077Y77597D02*
X216690Y76663D01*
X216531Y75449D01*
X216690Y74235D01*
X216829Y73901D01*
X216392Y73246D01*
X165016D01*
X164277Y73099D01*
X163651Y72680D01*
X148350Y57380D01*
X145453D01*
X145282Y57794D01*
X144537Y58765D01*
X143565Y59510D01*
X142434Y59979D01*
X141880Y60052D01*
Y60846D01*
X142434Y60919D01*
X143565Y61387D01*
X144537Y62133D01*
X145282Y63104D01*
X145750Y64235D01*
X145817Y64740D01*
X159461Y78384D01*
X216721D01*
X217077Y77597D01*
D02*
G37*
G36*
X31538Y43435D02*
X31212Y42648D01*
X22834D01*
X22324Y43039D01*
X21241Y43488D01*
X20079Y43641D01*
X18916Y43488D01*
X17833Y43039D01*
X16903Y42325D01*
X16189Y41395D01*
X16152Y41306D01*
X15288Y41276D01*
X14872Y41817D01*
X14091Y42417D01*
X13181Y42794D01*
X12598Y42870D01*
Y39150D01*
Y35429D01*
X13181Y35506D01*
X14091Y35883D01*
X14872Y36482D01*
X15288Y37023D01*
X16152Y36993D01*
X16189Y36904D01*
X16903Y35974D01*
X17833Y35260D01*
X18916Y34811D01*
X20079Y34658D01*
X21241Y34811D01*
X22324Y35260D01*
X22834Y35651D01*
X38017D01*
X38543Y34864D01*
X38467Y34681D01*
X38359Y33858D01*
Y31890D01*
X41535D01*
X44712D01*
Y33858D01*
X44604Y34681D01*
X44528Y34864D01*
X45054Y35651D01*
X51796D01*
X52322Y34864D01*
X52246Y34681D01*
X52138Y33858D01*
Y31890D01*
X55315D01*
X58492D01*
Y33858D01*
X58384Y34681D01*
X58308Y34864D01*
X58834Y35651D01*
X66773D01*
X67304Y34876D01*
X67300Y34866D01*
X67167Y33858D01*
Y29134D01*
X67300Y28126D01*
X67689Y27186D01*
X68308Y26379D01*
X69115Y25760D01*
X70055Y25371D01*
X71063Y25238D01*
X72071Y25371D01*
X73011Y25760D01*
X73817Y26379D01*
X74437Y27186D01*
X74826Y28126D01*
X74958Y29134D01*
Y33858D01*
X74826Y34866D01*
X74561Y35505D01*
Y36811D01*
X74502Y37264D01*
X74442Y37716D01*
X74297Y38066D01*
X74093Y38560D01*
X73537Y39285D01*
X71832Y40990D01*
X72158Y41777D01*
X82173D01*
X104902Y19048D01*
X104521Y18316D01*
X103645Y18201D01*
X102640Y17784D01*
X101776Y17121D01*
X101113Y16258D01*
X100697Y15252D01*
X100607Y14567D01*
X104724D01*
Y14173D01*
X105118D01*
Y10056D01*
X105804Y10146D01*
X106809Y10562D01*
X107673Y11225D01*
X108335Y12088D01*
X108752Y13094D01*
X108785Y13350D01*
X109636Y13776D01*
X109908Y13624D01*
X110003Y12908D01*
X110491Y11729D01*
X111268Y10717D01*
X112280Y9940D01*
X113459Y9452D01*
X114724Y9285D01*
X115990Y9452D01*
X117168Y9940D01*
X118181Y10717D01*
X118758Y11469D01*
X150000D01*
X150000Y11469D01*
X150350Y11515D01*
X150700Y11561D01*
X151283Y11803D01*
X151385Y11820D01*
X152249Y11527D01*
X152410Y11140D01*
X153123Y10210D01*
X154054Y9496D01*
X155137Y9048D01*
X156299Y8895D01*
X157462Y9048D01*
X158545Y9496D01*
X159475Y10210D01*
X160189Y11140D01*
X160637Y12223D01*
X160790Y13386D01*
X160637Y14548D01*
X160189Y15631D01*
X159475Y16562D01*
X158545Y17275D01*
X158188Y17423D01*
X158003Y18352D01*
X164904Y25253D01*
X164904Y25253D01*
X165334Y25813D01*
X165604Y26465D01*
X165696Y27165D01*
X165696Y27165D01*
Y31163D01*
X173561Y39028D01*
X184313D01*
X187064Y36277D01*
X187064Y36277D01*
X187624Y35847D01*
X188277Y35577D01*
X188976Y35485D01*
X201636D01*
X203595Y33525D01*
Y26378D01*
X203595Y26378D01*
X203641Y26028D01*
X203687Y25678D01*
X203957Y25026D01*
X204387Y24466D01*
X209111Y19741D01*
X209671Y19312D01*
X210324Y19041D01*
X211024Y18949D01*
X211024Y18949D01*
X225827D01*
X226527Y19041D01*
X227179Y19312D01*
X227739Y19741D01*
X228169Y20301D01*
X228248Y20493D01*
X246638Y38883D01*
X247231Y38363D01*
X246733Y37713D01*
X246356Y36803D01*
X246279Y36220D01*
X250000D01*
Y35827D01*
X250394D01*
Y32106D01*
X250976Y32183D01*
X251886Y32560D01*
X252667Y33159D01*
X253187Y33837D01*
X253565Y33805D01*
X253975Y33619D01*
Y20063D01*
X253187Y19841D01*
X252350Y21208D01*
X251062Y22715D01*
X249554Y24003D01*
X247863Y25039D01*
X246031Y25798D01*
X244103Y26261D01*
X242520Y26386D01*
Y13780D01*
X242126D01*
Y13386D01*
X229520D01*
X229644Y11803D01*
X230107Y9874D01*
X230866Y8042D01*
X231902Y6352D01*
X233190Y4843D01*
X234698Y3556D01*
X236065Y2718D01*
X235842Y1931D01*
X20063D01*
X19841Y2718D01*
X21208Y3556D01*
X22715Y4843D01*
X24003Y6352D01*
X25039Y8042D01*
X25798Y9874D01*
X26261Y11803D01*
X26386Y13386D01*
X13780D01*
Y13780D01*
X13386D01*
Y26386D01*
X11803Y26261D01*
X9874Y25798D01*
X8042Y25039D01*
X6352Y24003D01*
X4843Y22715D01*
X3556Y21208D01*
X2718Y19841D01*
X1931Y20063D01*
Y71929D01*
X2718Y72255D01*
X31538Y43435D01*
D02*
G37*
G36*
X236754Y36163D02*
X224949Y24358D01*
X220588D01*
X220306Y25145D01*
X220974Y25693D01*
X221811Y26712D01*
X222432Y27875D01*
X222815Y29137D01*
X222905Y30055D01*
X216219D01*
Y30843D01*
X222905D01*
X222815Y31761D01*
X222432Y33022D01*
X221811Y34185D01*
X220974Y35204D01*
X220153Y35878D01*
X220400Y36666D01*
X235433D01*
X235433Y36666D01*
X235783Y36712D01*
X236133Y36758D01*
X236308Y36830D01*
X236754Y36163D01*
D02*
G37*
G36*
X216506Y37937D02*
X216274Y37321D01*
X216161Y37168D01*
X214907Y37045D01*
X213645Y36662D01*
X212483Y36041D01*
X211463Y35204D01*
X210627Y34185D01*
X210005Y33022D01*
X209791Y32315D01*
X209003Y32432D01*
Y34646D01*
X209003Y34646D01*
X208911Y35346D01*
X208641Y35998D01*
X208211Y36558D01*
X208211Y36558D01*
X204668Y40101D01*
X204108Y40531D01*
X203456Y40801D01*
X203106Y40847D01*
X202756Y40893D01*
X202756Y40893D01*
X190096D01*
X187345Y43644D01*
X186785Y44074D01*
X186611Y44146D01*
X186768Y44934D01*
X209510D01*
X216506Y37937D01*
D02*
G37*
%LPC*%
G36*
X216613Y217134D02*
Y210842D01*
X222905D01*
X222815Y211760D01*
X222432Y213022D01*
X221811Y214184D01*
X220974Y215203D01*
X219955Y216040D01*
X218793Y216661D01*
X217531Y217044D01*
X216613Y217134D01*
D02*
G37*
G36*
X146613D02*
Y210842D01*
X152905D01*
X152815Y211760D01*
X152432Y213022D01*
X151811Y214184D01*
X150974Y215203D01*
X149955Y216040D01*
X148793Y216661D01*
X147531Y217044D01*
X146613Y217134D01*
D02*
G37*
G36*
X215825D02*
X214907Y217044D01*
X213645Y216661D01*
X212483Y216040D01*
X211463Y215203D01*
X210627Y214184D01*
X210005Y213022D01*
X209623Y211760D01*
X209532Y210842D01*
X215825D01*
Y217134D01*
D02*
G37*
G36*
X145825D02*
X144907Y217044D01*
X143645Y216661D01*
X142482Y216040D01*
X141463Y215203D01*
X140627Y214184D01*
X140006Y213022D01*
X139623Y211760D01*
X139532Y210842D01*
X145825D01*
Y217134D01*
D02*
G37*
G36*
X222905Y210054D02*
X216613D01*
Y203762D01*
X217531Y203852D01*
X218793Y204235D01*
X219955Y204856D01*
X220974Y205693D01*
X221811Y206712D01*
X222432Y207874D01*
X222815Y209136D01*
X222905Y210054D01*
D02*
G37*
G36*
X152905D02*
X146613D01*
Y203762D01*
X147531Y203852D01*
X148793Y204235D01*
X149955Y204856D01*
X150974Y205693D01*
X151811Y206712D01*
X152432Y207874D01*
X152815Y209136D01*
X152905Y210054D01*
D02*
G37*
G36*
X215825D02*
X209532D01*
X209623Y209136D01*
X210005Y207874D01*
X210627Y206712D01*
X211463Y205693D01*
X212483Y204856D01*
X213645Y204235D01*
X214907Y203852D01*
X215825Y203762D01*
Y210054D01*
D02*
G37*
G36*
X145825D02*
X139532D01*
X139623Y209136D01*
X140006Y207874D01*
X140627Y206712D01*
X141463Y205693D01*
X142482Y204856D01*
X143645Y204235D01*
X144907Y203852D01*
X145825Y203762D01*
Y210054D01*
D02*
G37*
G36*
X88189Y204705D02*
Y201378D01*
X91516D01*
X91439Y201961D01*
X91062Y202870D01*
X90463Y203652D01*
X89682Y204251D01*
X88772Y204628D01*
X88189Y204705D01*
D02*
G37*
G36*
X241732Y206299D02*
X229520D01*
X229644Y204716D01*
X230107Y202788D01*
X230866Y200956D01*
X231902Y199265D01*
X233190Y197757D01*
X234698Y196469D01*
X236389Y195433D01*
X238221Y194674D01*
X240149Y194211D01*
X241732Y194087D01*
Y206299D01*
D02*
G37*
G36*
X114961Y182067D02*
Y178740D01*
X118288D01*
X118211Y179323D01*
X117834Y180233D01*
X117234Y181014D01*
X116453Y181614D01*
X115543Y181990D01*
X114961Y182067D01*
D02*
G37*
G36*
X118288Y177953D02*
X114961D01*
Y174626D01*
X115543Y174703D01*
X116453Y175079D01*
X117234Y175679D01*
X117834Y176460D01*
X118211Y177370D01*
X118288Y177953D01*
D02*
G37*
G36*
X48996Y177953D02*
X45669D01*
Y174626D01*
X46252Y174703D01*
X47162Y175079D01*
X47943Y175679D01*
X48543Y176460D01*
X48919Y177370D01*
X48996Y177953D01*
D02*
G37*
G36*
X177067Y170866D02*
X175197D01*
Y168898D01*
X177067D01*
Y170866D01*
D02*
G37*
G36*
X140827Y165055D02*
X137301D01*
X137385Y164421D01*
X137782Y163463D01*
X138413Y162641D01*
X139235Y162010D01*
X140193Y161613D01*
X140827Y161530D01*
Y165055D01*
D02*
G37*
G36*
X145140D02*
X141614D01*
Y161530D01*
X142248Y161613D01*
X143206Y162010D01*
X144028Y162641D01*
X144659Y163463D01*
X145056Y164421D01*
X145140Y165055D01*
D02*
G37*
G36*
X118209Y167610D02*
X116294Y167422D01*
X114453Y166863D01*
X112756Y165956D01*
X111268Y164735D01*
X110048Y163248D01*
X109141Y161551D01*
X108582Y159710D01*
X108394Y157795D01*
X108582Y155880D01*
X109141Y154039D01*
X110048Y152342D01*
X111268Y150855D01*
X112756Y149634D01*
X114453Y148727D01*
X116294Y148169D01*
X118209Y147980D01*
X120124Y148169D01*
X121965Y148727D01*
X123662Y149634D01*
X125149Y150855D01*
X126370Y152342D01*
X127277Y154039D01*
X127835Y155880D01*
X128024Y157795D01*
X127835Y159710D01*
X127277Y161551D01*
X126370Y163248D01*
X125149Y164735D01*
X123662Y165956D01*
X121965Y166863D01*
X120124Y167422D01*
X118209Y167610D01*
D02*
G37*
G36*
X33209D02*
X31294Y167422D01*
X29453Y166863D01*
X27756Y165956D01*
X26268Y164735D01*
X25048Y163248D01*
X24141Y161551D01*
X23582Y159710D01*
X23394Y157795D01*
X23582Y155880D01*
X24141Y154039D01*
X25048Y152342D01*
X26268Y150855D01*
X27756Y149634D01*
X29453Y148727D01*
X31294Y148169D01*
X33209Y147980D01*
X35124Y148169D01*
X36965Y148727D01*
X38662Y149634D01*
X40149Y150855D01*
X41370Y152342D01*
X42276Y154039D01*
X42835Y155880D01*
X43024Y157795D01*
X42835Y159710D01*
X42276Y161551D01*
X41370Y163248D01*
X40149Y164735D01*
X38662Y165956D01*
X36965Y166863D01*
X35124Y167422D01*
X33209Y167610D01*
D02*
G37*
G36*
X121102Y71816D02*
Y68189D01*
X124729D01*
X124642Y68849D01*
X124235Y69831D01*
X123588Y70675D01*
X122745Y71322D01*
X121763Y71729D01*
X121102Y71816D01*
D02*
G37*
G36*
X120315Y71816D02*
X119655Y71729D01*
X118673Y71322D01*
X117829Y70675D01*
X117182Y69831D01*
X116775Y68849D01*
X116688Y68189D01*
X120315D01*
Y71816D01*
D02*
G37*
G36*
X124729Y67402D02*
X121102D01*
Y63775D01*
X121763Y63862D01*
X122745Y64269D01*
X123588Y64916D01*
X124235Y65759D01*
X124642Y66741D01*
X124729Y67402D01*
D02*
G37*
G36*
X34729D02*
X31102D01*
Y63775D01*
X31763Y63862D01*
X32745Y64269D01*
X33588Y64916D01*
X34235Y65759D01*
X34642Y66741D01*
X34729Y67402D01*
D02*
G37*
G36*
X120315D02*
X116688D01*
X116775Y66741D01*
X117182Y65759D01*
X117829Y64916D01*
X118673Y64269D01*
X119655Y63862D01*
X120315Y63775D01*
Y67402D01*
D02*
G37*
G36*
X145825Y30055D02*
X139532D01*
X139623Y29137D01*
X140006Y27875D01*
X140627Y26712D01*
X141463Y25693D01*
X142482Y24857D01*
X143645Y24236D01*
X144907Y23853D01*
X145825Y23762D01*
Y30055D01*
D02*
G37*
G36*
X237402Y140318D02*
X236239Y140165D01*
X235156Y139716D01*
X234226Y139003D01*
X233512Y138072D01*
X233063Y136989D01*
X232910Y135827D01*
X233063Y134664D01*
X233512Y133581D01*
X234226Y132651D01*
X235156Y131937D01*
X236239Y131489D01*
X237402Y131336D01*
X238564Y131489D01*
X239647Y131937D01*
X240577Y132651D01*
X241291Y133581D01*
X241740Y134664D01*
X241893Y135827D01*
X241740Y136989D01*
X241291Y138072D01*
X240577Y139003D01*
X239647Y139716D01*
X238564Y140165D01*
X237402Y140318D01*
D02*
G37*
G36*
X249606Y119547D02*
X249024Y119471D01*
X248114Y119094D01*
X247333Y118494D01*
X246733Y117713D01*
X246356Y116803D01*
X246279Y116220D01*
X249606D01*
Y119547D01*
D02*
G37*
G36*
X75709Y137610D02*
X73794Y137422D01*
X71953Y136863D01*
X70256Y135956D01*
X68768Y134736D01*
X67548Y133248D01*
X66641Y131551D01*
X66082Y129710D01*
X65894Y127795D01*
X66082Y125881D01*
X66641Y124039D01*
X67548Y122342D01*
X68768Y120855D01*
X70256Y119634D01*
X71953Y118727D01*
X73794Y118169D01*
X75709Y117980D01*
X77623Y118169D01*
X79465Y118727D01*
X81162Y119634D01*
X82649Y120855D01*
X83869Y122342D01*
X84777Y124039D01*
X85335Y125881D01*
X85524Y127795D01*
X85335Y129710D01*
X84777Y131551D01*
X83869Y133248D01*
X82649Y134736D01*
X81162Y135956D01*
X79465Y136863D01*
X77623Y137422D01*
X75709Y137610D01*
D02*
G37*
G36*
X237795Y69547D02*
Y66220D01*
X241122D01*
X241045Y66803D01*
X240669Y67713D01*
X240069Y68494D01*
X239288Y69094D01*
X238378Y69471D01*
X237795Y69547D01*
D02*
G37*
G36*
X237008D02*
X236425Y69471D01*
X235515Y69094D01*
X234734Y68494D01*
X234135Y67713D01*
X233758Y66803D01*
X233681Y66220D01*
X237008D01*
Y69547D01*
D02*
G37*
G36*
X11811Y42870D02*
X11228Y42794D01*
X10318Y42417D01*
X9537Y41817D01*
X8938Y41036D01*
X8561Y40126D01*
X8484Y39543D01*
X11811D01*
Y42870D01*
D02*
G37*
G36*
Y38756D02*
X8484D01*
X8561Y38173D01*
X8938Y37263D01*
X9537Y36482D01*
X10318Y35883D01*
X11228Y35506D01*
X11811Y35429D01*
Y38756D01*
D02*
G37*
G36*
X249606Y35433D02*
X246279D01*
X246356Y34850D01*
X246733Y33941D01*
X247333Y33159D01*
X248114Y32560D01*
X249024Y32183D01*
X249606Y32106D01*
Y35433D01*
D02*
G37*
G36*
X54921Y31102D02*
X52138D01*
Y29134D01*
X52246Y28312D01*
X52564Y27545D01*
X53069Y26888D01*
X53727Y26383D01*
X54493Y26065D01*
X54921Y26009D01*
Y31102D01*
D02*
G37*
G36*
X41142Y31102D02*
X38359D01*
Y29134D01*
X38467Y28312D01*
X38784Y27545D01*
X39289Y26888D01*
X39947Y26383D01*
X40713Y26065D01*
X41142Y26009D01*
Y31102D01*
D02*
G37*
G36*
X44712D02*
X41929D01*
Y26009D01*
X42358Y26065D01*
X43124Y26383D01*
X43782Y26888D01*
X44287Y27545D01*
X44604Y28312D01*
X44712Y29134D01*
Y31102D01*
D02*
G37*
G36*
X58492Y31102D02*
X55709D01*
Y26009D01*
X56137Y26065D01*
X56903Y26383D01*
X57561Y26888D01*
X58066Y27545D01*
X58384Y28312D01*
X58492Y29134D01*
Y31102D01*
D02*
G37*
G36*
X189764Y28295D02*
X189064Y28203D01*
X188412Y27933D01*
X187852Y27503D01*
X187422Y26943D01*
X187152Y26291D01*
X187059Y25591D01*
X187152Y24891D01*
X187422Y24238D01*
X187852Y23678D01*
X188412Y23249D01*
X189064Y22978D01*
X189764Y22886D01*
X190464Y22978D01*
X191116Y23249D01*
X191676Y23678D01*
X192106Y24238D01*
X192376Y24891D01*
X192468Y25591D01*
X192376Y26291D01*
X192106Y26943D01*
X191676Y27503D01*
X191116Y27933D01*
X190464Y28203D01*
X189764Y28295D01*
D02*
G37*
G36*
X226500Y17839D02*
X217595D01*
Y15317D01*
X210752D01*
Y17839D01*
X201847D01*
Y8933D01*
X210752D01*
Y11455D01*
X217595D01*
Y8933D01*
X226500D01*
Y17839D01*
D02*
G37*
G36*
X241732Y26386D02*
X240149Y26261D01*
X238221Y25798D01*
X236389Y25039D01*
X234698Y24003D01*
X233190Y22715D01*
X231902Y21208D01*
X230866Y19517D01*
X230107Y17685D01*
X229644Y15756D01*
X229520Y14173D01*
X241732D01*
Y26386D01*
D02*
G37*
G36*
X14173D02*
Y14173D01*
X26386D01*
X26261Y15756D01*
X25798Y17685D01*
X25039Y19517D01*
X24003Y21208D01*
X22715Y22715D01*
X21208Y24003D01*
X19517Y25039D01*
X17685Y25798D01*
X15756Y26261D01*
X14173Y26386D01*
D02*
G37*
G36*
X186693Y17106D02*
Y13780D01*
X190020D01*
X189943Y14362D01*
X189566Y15272D01*
X188967Y16053D01*
X188185Y16653D01*
X187276Y17030D01*
X186693Y17106D01*
D02*
G37*
G36*
X185906D02*
X185323Y17030D01*
X184413Y16653D01*
X183632Y16053D01*
X183032Y15272D01*
X182655Y14362D01*
X182579Y13780D01*
X185906D01*
Y17106D01*
D02*
G37*
G36*
X104331Y13780D02*
X100607D01*
X100697Y13094D01*
X101113Y12088D01*
X101776Y11225D01*
X102640Y10562D01*
X103645Y10146D01*
X104331Y10056D01*
Y13780D01*
D02*
G37*
G36*
X190020Y12992D02*
X186693D01*
Y9665D01*
X187276Y9742D01*
X188185Y10119D01*
X188967Y10718D01*
X189566Y11500D01*
X189943Y12410D01*
X190020Y12992D01*
D02*
G37*
G36*
X185906D02*
X182579D01*
X182655Y12410D01*
X183032Y11500D01*
X183632Y10718D01*
X184413Y10119D01*
X185323Y9742D01*
X185906Y9665D01*
Y12992D01*
D02*
G37*
G36*
X99571Y19020D02*
X89878D01*
Y9327D01*
X99571D01*
Y19020D01*
D02*
G37*
G36*
X196299Y17877D02*
X195137Y17724D01*
X194054Y17275D01*
X193123Y16562D01*
X192410Y15631D01*
X191961Y14548D01*
X191808Y13386D01*
X191961Y12223D01*
X192410Y11140D01*
X193123Y10210D01*
X194054Y9496D01*
X195137Y9048D01*
X196299Y8895D01*
X197462Y9048D01*
X198545Y9496D01*
X199475Y10210D01*
X200189Y11140D01*
X200637Y12223D01*
X200790Y13386D01*
X200637Y14548D01*
X200189Y15631D01*
X199475Y16562D01*
X198545Y17275D01*
X197462Y17724D01*
X196299Y17877D01*
D02*
G37*
G36*
X176299D02*
X175137Y17724D01*
X174054Y17275D01*
X173124Y16562D01*
X172410Y15631D01*
X171961Y14548D01*
X171808Y13386D01*
X171961Y12223D01*
X172410Y11140D01*
X173124Y10210D01*
X174054Y9496D01*
X175137Y9048D01*
X176299Y8895D01*
X177462Y9048D01*
X178545Y9496D01*
X179475Y10210D01*
X180189Y11140D01*
X180637Y12223D01*
X180790Y13386D01*
X180637Y14548D01*
X180189Y15631D01*
X179475Y16562D01*
X178545Y17275D01*
X177462Y17724D01*
X176299Y17877D01*
D02*
G37*
G36*
X166299D02*
X165137Y17724D01*
X164054Y17275D01*
X163124Y16562D01*
X162410Y15631D01*
X161961Y14548D01*
X161808Y13386D01*
X161961Y12223D01*
X162410Y11140D01*
X163124Y10210D01*
X164054Y9496D01*
X165137Y9048D01*
X166299Y8895D01*
X167462Y9048D01*
X168545Y9496D01*
X169475Y10210D01*
X170189Y11140D01*
X170637Y12223D01*
X170790Y13386D01*
X170637Y14548D01*
X170189Y15631D01*
X169475Y16562D01*
X168545Y17275D01*
X167462Y17724D01*
X166299Y17877D01*
D02*
G37*
G36*
X55315Y15707D02*
X54307Y15574D01*
X53367Y15185D01*
X52560Y14566D01*
X51941Y13759D01*
X51552Y12819D01*
X51419Y11811D01*
X51552Y10803D01*
X51941Y9863D01*
X52560Y9057D01*
X53367Y8437D01*
X54307Y8048D01*
X55315Y7915D01*
X56323Y8048D01*
X57263Y8437D01*
X58069Y9057D01*
X58689Y9863D01*
X59078Y10803D01*
X59210Y11811D01*
X59078Y12819D01*
X58689Y13759D01*
X58069Y14566D01*
X57263Y15185D01*
X56323Y15574D01*
X55315Y15707D01*
D02*
G37*
%LPD*%
D10*
X222426Y30449D02*
G03*
X222426Y30449I-6207J0D01*
G01*
X143596Y36074D02*
G03*
X148842Y36074I2623J-5626D01*
G01*
X2770Y200984D02*
G03*
X26175Y206306I11010J5709D01*
G01*
X19739Y2904D02*
G03*
X2863Y19665I-5960J10876D01*
G01*
X235760Y217336D02*
G03*
X253193Y201096I6366J-10643D01*
G01*
X252598Y20424D02*
G03*
X236924Y2522I-10472J-6644D01*
G01*
X222426Y210448D02*
G03*
X222415Y210083I-6207J0D01*
G01*
X152426Y210448D02*
G03*
X152415Y210083I-6207J0D01*
G01*
D11*
X6988Y158268D02*
D03*
X12697D02*
D03*
X183169Y171260D02*
D03*
X177461D02*
D03*
X6988Y163779D02*
D03*
X12697D02*
D03*
D12*
X172638Y163583D02*
D03*
Y165551D02*
D03*
Y161614D02*
D03*
Y159646D02*
D03*
X183268D02*
D03*
Y161614D02*
D03*
Y163583D02*
D03*
Y165551D02*
D03*
D13*
X177953Y162598D02*
D03*
X206299Y13386D02*
D03*
X222047D02*
D03*
D14*
X200000Y176476D02*
D03*
Y170768D02*
D03*
X188976Y176476D02*
D03*
Y170768D02*
D03*
X194488D02*
D03*
Y176476D02*
D03*
D15*
X37795Y185039D02*
X66535D01*
X29134D02*
X37795D01*
X37402Y184646D02*
X37795Y185039D01*
X37402Y178347D02*
Y184646D01*
X72638Y178937D02*
X73228Y178347D01*
X66535Y185039D02*
X72638Y178937D01*
X73228Y178347D02*
X106693D01*
X106102Y178937D02*
X106693Y178347D01*
X17717Y173622D02*
X29134Y185039D01*
X17717Y163386D02*
Y173622D01*
X83622Y45276D02*
X114724Y14173D01*
X34646Y45276D02*
X83622D01*
X4724Y75197D02*
X34646Y45276D01*
X4724Y75197D02*
Y103937D01*
X17717Y152953D02*
Y163386D01*
X4724Y139961D02*
X17717Y152953D01*
X20079Y39150D02*
X68724D01*
X71063Y36811D01*
Y31496D02*
Y36811D01*
X4724Y103937D02*
Y139961D01*
D16*
X78150Y187008D02*
X105905D01*
X64173Y200984D02*
X78150Y187008D01*
X44803Y92913D02*
X138685D01*
X29921Y107795D02*
X44803Y92913D01*
X225197Y131102D02*
X237402Y118898D01*
X211811Y131102D02*
X225197D01*
X237402Y115827D02*
Y118898D01*
X141220Y145449D02*
X147244Y139425D01*
Y135433D02*
Y139425D01*
Y135433D02*
X153150Y129528D01*
X155118Y38189D02*
X167717Y50787D01*
X136221Y38189D02*
X155118D01*
X125197Y49213D02*
X136221Y38189D01*
X167717Y50787D02*
X208268D01*
X214173Y119685D02*
X223622D01*
X212598Y121260D02*
X214173Y119685D01*
X135827Y121260D02*
X212598D01*
X213779Y100394D02*
X224410D01*
X208661Y105512D02*
X213779Y100394D01*
X151157Y105512D02*
X208661D01*
X141220Y115449D02*
X151157Y105512D01*
X207087Y102756D02*
X219685Y90158D01*
X143913Y102756D02*
X207087D01*
X141220Y105449D02*
X143913Y102756D01*
X211024Y150394D02*
X240158D01*
X192520Y131890D02*
X211024Y150394D01*
X155905Y131890D02*
X192520D01*
X223622Y119685D02*
X225984Y117323D01*
X225590Y121260D02*
X228346Y118504D01*
X216929Y121260D02*
X225590D01*
X213779Y124409D02*
X216929Y121260D01*
X228346Y107874D02*
Y118504D01*
Y107874D02*
X234646Y101575D01*
X225984Y105512D02*
Y117323D01*
X244016Y55827D02*
X250000D01*
X141220Y55449D02*
X149150D01*
X141220Y65449D02*
X143795D01*
X27323Y97795D02*
X30709D01*
X27008Y127795D02*
X30709D01*
X27559Y112598D02*
X32677D01*
X24409Y115748D02*
X27559Y112598D01*
X24409Y115748D02*
Y125197D01*
X27008Y127795D01*
X154921Y163583D02*
X172638D01*
X148425Y170079D02*
X154921Y163583D01*
X17323Y163779D02*
X17717Y163386D01*
X12697Y163779D02*
X17323D01*
X233465Y79921D02*
X245905D01*
X250000Y75827D01*
X245669Y81496D02*
X250000Y85827D01*
X114961Y125591D02*
X117717Y122835D01*
X114961Y125591D02*
Y132835D01*
X119921Y137795D01*
X250000Y95827D02*
X253937Y99764D01*
Y109449D01*
X252756Y110630D02*
X253937Y109449D01*
X244173Y100000D02*
X250000Y105827D01*
X183268Y165551D02*
X184843D01*
X185433Y166142D01*
Y168996D01*
X183169Y171260D02*
X185433Y168996D01*
X172638Y159646D02*
X175000D01*
X177953Y162598D01*
X183268Y163583D02*
X186417D01*
X195669Y159646D02*
X200000Y163976D01*
X183268Y159646D02*
X195669D01*
X190551Y161614D02*
X194488Y165551D01*
X183268Y161614D02*
X190551D01*
X186417Y163583D02*
X188976Y166142D01*
X158071Y165551D02*
X172638D01*
X143701Y179921D02*
X158071Y165551D01*
X188976Y166142D02*
Y167717D01*
Y170768D01*
X194488Y165551D02*
Y167717D01*
Y170768D01*
X200000Y163976D02*
Y167717D01*
Y170768D01*
X141220Y125449D02*
X142260Y124409D01*
X213779D01*
X153150Y129528D02*
X210236D01*
X141220Y135449D02*
X149504Y127165D01*
X213779D01*
X234646Y101575D02*
X240551D01*
X243307Y104331D01*
Y107874D01*
X246063Y110630D01*
X252756D01*
X169882Y159646D02*
X172638D01*
X169291Y159055D02*
X169882Y159646D01*
X152756Y138189D02*
X153543D01*
X243701Y152126D02*
Y158268D01*
Y152126D02*
X250000Y145827D01*
X153543Y138189D02*
X190945D01*
X158268Y135433D02*
X192126D01*
X243701Y142126D02*
Y146850D01*
X240158Y150394D02*
X243701Y146850D01*
Y142126D02*
X250000Y135827D01*
X210236Y129528D02*
X211811Y131102D01*
X213779Y127165D02*
X216339Y129724D01*
X223819D01*
X241732Y160236D02*
X243701Y158268D01*
Y179528D02*
X250000Y185827D01*
X243228Y162598D02*
X250000Y155827D01*
X243701Y174409D02*
Y179528D01*
X216929Y160236D02*
X241732D01*
X192126Y135433D02*
X216929Y160236D01*
X215354Y162598D02*
X243228D01*
X190945Y138189D02*
X215354Y162598D01*
X213386Y164961D02*
X234252D01*
X243701Y174409D01*
X119921Y127795D02*
X120709D01*
X123055Y125449D01*
X141220D01*
X134252Y122835D02*
X135827Y121260D01*
X117717Y122835D02*
X134252D01*
X221284Y105512D02*
X225984D01*
X221220Y105449D02*
X221284Y105512D01*
X230709Y112520D02*
X237402Y105827D01*
X230709Y112520D02*
Y122835D01*
X223819Y129724D02*
X230709Y122835D01*
X233071Y90158D02*
X237402Y85827D01*
X219685Y90158D02*
X233071D01*
X225984Y103543D02*
Y105512D01*
Y103543D02*
X229528Y100000D01*
X244173D01*
X228976Y95827D02*
X237402D01*
X224410Y100394D02*
X228976Y95827D01*
X149150Y55449D02*
X165016Y71315D01*
X143795Y65449D02*
X158661Y80315D01*
X138685Y92913D02*
X141220Y95449D01*
X213779Y60630D02*
X244803D01*
X250000Y65827D01*
X238976Y50787D02*
X244016Y55827D01*
X226378Y80315D02*
X227559Y81496D01*
X158661Y80315D02*
X226378D01*
X227559Y81496D02*
X245669D01*
X165016Y71315D02*
X224858D01*
X233465Y79921D01*
X231260Y69685D02*
X237402Y75827D01*
X97244Y189370D02*
X120472D01*
X129921Y179921D01*
X143701D01*
X83661Y189370D02*
X97244D01*
X72047Y200984D02*
X83661Y189370D01*
X105905Y187008D02*
X119291D01*
X136221Y170079D01*
X148425D01*
X139236Y83465D02*
X141220Y85449D01*
X29921Y87795D02*
X30315Y87402D01*
X134640Y82029D02*
X141220Y75449D01*
X25000Y95472D02*
X27323Y97795D01*
X25000Y86024D02*
Y95472D01*
Y86024D02*
X28994Y82029D01*
X134640D01*
X141220Y45449D02*
X143874D01*
X168110Y69685D01*
X231260D01*
X125197Y49213D02*
Y59055D01*
X128347Y50787D02*
Y59055D01*
Y50787D02*
X138189Y40945D01*
X208268Y50787D02*
X238976D01*
X168504Y60630D02*
X213779D01*
X138189Y40945D02*
X148819D01*
X168504Y60630D01*
X149213Y145276D02*
X193701D01*
X144095Y150394D02*
X149213Y145276D01*
X131468Y145697D02*
X136165Y150394D01*
X193701Y145276D02*
X213386Y164961D01*
X141220Y150669D02*
Y155449D01*
X140945Y150394D02*
X141220Y150669D01*
X136165Y150394D02*
X140945D01*
X144095D01*
X30709Y87795D02*
X112598D01*
X116929Y83465D01*
X139236D01*
X206299Y13386D02*
X222047D01*
D17*
X39764Y112598D02*
X125197D01*
X34567Y117795D02*
X39764Y112598D01*
X29921Y117795D02*
X34567D01*
X43701Y103150D02*
X127953D01*
X34252Y112598D02*
X43701Y103150D01*
X32677Y112598D02*
X34252D01*
X212205Y116929D02*
X219740D01*
X209449Y119685D02*
X212205Y116929D01*
X132283Y119685D02*
X209449D01*
X219740Y116929D02*
X221220Y115449D01*
X137063Y199606D02*
X141220Y195449D01*
X128898Y199606D02*
X137063D01*
X29921Y137795D02*
X30709D01*
X205134Y100394D02*
X220079Y85449D01*
X221220D01*
X125197Y112598D02*
X132283Y119685D01*
X127953Y103150D02*
X130709Y100394D01*
X30709Y137795D02*
X36220Y143307D01*
X129079D01*
X130709Y100394D02*
X205134D01*
X129079Y143307D02*
X131468Y145697D01*
D18*
X119685Y18898D02*
X148031D01*
X87402Y51181D02*
X119685Y18898D01*
X36709Y51181D02*
X87402D01*
X14961Y72929D02*
X36709Y51181D01*
X148031Y18898D02*
X155512Y26378D01*
X14961Y72929D02*
Y73622D01*
X235433Y39370D02*
X243701Y47638D01*
X5118Y103543D02*
X14961D01*
X4724Y103937D02*
X5118Y103543D01*
X210630Y47638D02*
X218898Y39370D01*
X235433D01*
X155512Y32283D02*
X170866Y47638D01*
X155512Y26378D02*
Y32283D01*
X188976Y38189D02*
X202756D01*
X206299Y34646D01*
Y26378D02*
Y34646D01*
Y26378D02*
X211024Y21654D01*
X225827D01*
X114724Y14173D02*
X150000D01*
X162992Y27165D01*
Y32283D01*
X184252Y41732D02*
X185433D01*
X188976Y38189D01*
X162992Y32283D02*
X172441Y41732D01*
X184252D01*
X170866Y47638D02*
X210630D01*
D19*
X79921Y200984D02*
X86417Y194488D01*
X177461Y163091D02*
Y171260D01*
Y163091D02*
X177953Y162598D01*
X188976Y176476D02*
X194488D01*
X200000D01*
X183071Y171358D02*
Y176476D01*
Y171358D02*
X183169Y171260D01*
X183071Y176476D02*
X188976D01*
X171653Y171260D02*
X177461D01*
X243701Y122126D02*
X250000Y115827D01*
X243701Y122126D02*
Y127559D01*
X240551Y130709D02*
X243701Y127559D01*
X233858Y130709D02*
X240551D01*
X227559Y137008D02*
X233858Y130709D01*
X211417Y140551D02*
X227559D01*
X233858Y140709D02*
X240551D01*
X86417Y194488D02*
X131496D01*
X147244Y190551D02*
X151181Y186614D01*
Y179921D02*
Y186614D01*
Y179921D02*
X154626Y176476D01*
X131496Y194488D02*
X135433Y190551D01*
X147244D01*
X154626Y176476D02*
X183071D01*
X26986Y72620D02*
X37187D01*
X14961Y84646D02*
Y93307D01*
Y84646D02*
X26986Y72620D01*
X37187D02*
X42362Y77795D01*
X120709D01*
X225827Y21654D02*
X250000Y45827D01*
X200000Y176476D02*
X203051D01*
X204331Y175197D01*
X193701Y149606D02*
X204331Y160236D01*
Y175197D01*
D20*
X6988Y158268D02*
Y163779D01*
D21*
X216219Y210448D02*
D03*
Y30449D02*
D03*
X146219D02*
D03*
Y210448D02*
D03*
D22*
X141220Y45449D02*
D03*
Y55449D02*
D03*
Y65449D02*
D03*
Y75449D02*
D03*
Y145449D02*
D03*
Y155449D02*
D03*
Y165449D02*
D03*
Y175449D02*
D03*
Y185449D02*
D03*
Y135449D02*
D03*
Y125449D02*
D03*
Y115449D02*
D03*
Y105449D02*
D03*
Y95449D02*
D03*
Y85449D02*
D03*
X221220Y45449D02*
D03*
Y55449D02*
D03*
Y65449D02*
D03*
Y75449D02*
D03*
Y85449D02*
D03*
Y95449D02*
D03*
Y145449D02*
D03*
Y135449D02*
D03*
Y125449D02*
D03*
Y115449D02*
D03*
Y105449D02*
D03*
D23*
X141220Y195449D02*
D03*
X221220Y155449D02*
D03*
D24*
X156299Y13386D02*
D03*
X166299D02*
D03*
X176299D02*
D03*
X186299D02*
D03*
X196299D02*
D03*
X250000Y55827D02*
D03*
Y65827D02*
D03*
Y75827D02*
D03*
Y85827D02*
D03*
Y95827D02*
D03*
Y45827D02*
D03*
Y35827D02*
D03*
X128898Y189606D02*
D03*
X237402Y85827D02*
D03*
Y95827D02*
D03*
Y145827D02*
D03*
Y135827D02*
D03*
Y125827D02*
D03*
Y115827D02*
D03*
Y105827D02*
D03*
Y75827D02*
D03*
Y65827D02*
D03*
X250000Y135827D02*
D03*
Y145827D02*
D03*
Y155827D02*
D03*
Y165827D02*
D03*
Y175827D02*
D03*
Y125827D02*
D03*
Y115827D02*
D03*
X45276Y178347D02*
D03*
X37402D02*
D03*
X114567D02*
D03*
X106693D02*
D03*
X72047Y200984D02*
D03*
X64173D02*
D03*
X79921D02*
D03*
X87795D02*
D03*
X20079Y39150D02*
D03*
X12205D02*
D03*
D25*
X30709Y67795D02*
D03*
Y87795D02*
D03*
Y97795D02*
D03*
Y107795D02*
D03*
Y117795D02*
D03*
Y127795D02*
D03*
Y77795D02*
D03*
X120709Y67795D02*
D03*
Y87795D02*
D03*
Y97795D02*
D03*
Y107795D02*
D03*
Y117795D02*
D03*
Y127795D02*
D03*
Y77795D02*
D03*
D26*
X30709Y137795D02*
D03*
X120709D02*
D03*
D27*
X250000Y105827D02*
D03*
X128898Y199606D02*
D03*
X237402Y155827D02*
D03*
X250000Y185827D02*
D03*
D28*
X55315Y31496D02*
D03*
X71063D02*
D03*
X41535D02*
D03*
D29*
X55315Y11811D02*
D03*
D30*
X13780Y206693D02*
D03*
X242126D02*
D03*
Y13780D02*
D03*
X13780D02*
D03*
D31*
X114724Y14173D02*
D03*
X104724D02*
D03*
D32*
X94724D02*
D03*
D33*
X88583Y98425D02*
D03*
Y108268D02*
D03*
X68898Y98425D02*
D03*
Y108268D02*
D03*
X47244Y98425D02*
D03*
Y108268D02*
D03*
X150394Y63386D02*
D03*
X27165Y44882D02*
D03*
X162598Y50000D02*
D03*
X153543Y41339D02*
D03*
X158268Y55118D02*
D03*
X148819Y45669D02*
D03*
X140945Y23622D02*
D03*
X128740D02*
D03*
X184646Y53937D02*
D03*
X203543D02*
D03*
X189370Y83858D02*
D03*
X203543D02*
D03*
X150000Y111417D02*
D03*
Y116142D02*
D03*
X161811Y107874D02*
D03*
Y115748D02*
D03*
X189370Y108268D02*
D03*
Y115748D02*
D03*
X203543Y108268D02*
D03*
Y115748D02*
D03*
X207480Y131890D02*
D03*
X214567Y146457D02*
D03*
X244094Y131102D02*
D03*
X213779Y60630D02*
D03*
X14961Y103543D02*
D03*
Y93307D02*
D03*
Y73622D02*
D03*
X26027Y203739D02*
D03*
X153543Y138189D02*
D03*
X243701Y47638D02*
D03*
X155905Y131890D02*
D03*
X188976Y167717D02*
D03*
X194488D02*
D03*
X200000D02*
D03*
X176063Y176378D02*
D03*
X44882Y216535D02*
D03*
X59055D02*
D03*
X78740D02*
D03*
X92520D02*
D03*
X137795D02*
D03*
X157480D02*
D03*
X177165D02*
D03*
X196850D02*
D03*
X232283D02*
D03*
X251969Y196850D02*
D03*
Y27559D02*
D03*
X236221Y3937D02*
D03*
X216535D02*
D03*
X232283Y19685D02*
D03*
X153543Y3937D02*
D03*
X133858D02*
D03*
X118110D02*
D03*
X98425D02*
D03*
X78740D02*
D03*
X59055D02*
D03*
X39370D02*
D03*
X23622D02*
D03*
X3937Y23622D02*
D03*
Y39370D02*
D03*
Y59055D02*
D03*
Y145669D02*
D03*
Y169291D02*
D03*
Y196850D02*
D03*
X15748Y118110D02*
D03*
Y137795D02*
D03*
X43307Y145669D02*
D03*
Y161417D02*
D03*
X23622Y165354D02*
D03*
Y145669D02*
D03*
X62992D02*
D03*
Y169291D02*
D03*
X43307Y133858D02*
D03*
X62992D02*
D03*
X99213D02*
D03*
X111024D02*
D03*
X111417Y118110D02*
D03*
X99213D02*
D03*
Y148425D02*
D03*
X111417D02*
D03*
X92520Y172047D02*
D03*
X109843Y170079D02*
D03*
X119685Y183071D02*
D03*
X148031Y75197D02*
D03*
X158268Y135433D02*
D03*
X167323Y63779D02*
D03*
X189370D02*
D03*
X167323Y74410D02*
D03*
Y94095D02*
D03*
X189370Y96850D02*
D03*
Y74410D02*
D03*
X171260Y141339D02*
D03*
Y151181D02*
D03*
X181102D02*
D03*
Y141339D02*
D03*
X203543Y96457D02*
D03*
X204724Y74410D02*
D03*
Y63779D02*
D03*
X190551Y155512D02*
D03*
X147638Y151181D02*
D03*
X171653Y171260D02*
D03*
X169291Y159055D02*
D03*
X157087D02*
D03*
X157480Y196457D02*
D03*
X177165D02*
D03*
X196850D02*
D03*
X216535D02*
D03*
Y180709D02*
D03*
X196850D02*
D03*
X177165D02*
D03*
X157480D02*
D03*
X208661Y168898D02*
D03*
X39370Y23622D02*
D03*
X59055D02*
D03*
X78740Y31496D02*
D03*
X47244Y59055D02*
D03*
X68898D02*
D03*
X90551D02*
D03*
X122047Y41339D02*
D03*
X90551Y68898D02*
D03*
X68898D02*
D03*
X110236D02*
D03*
Y59055D02*
D03*
X62992Y118110D02*
D03*
X110236Y41339D02*
D03*
X128740Y30315D02*
D03*
X211417Y140551D02*
D03*
X240158Y177165D02*
D03*
Y192913D02*
D03*
X196850Y3937D02*
D03*
X177165D02*
D03*
X105905Y187008D02*
D03*
X97244Y189370D02*
D03*
X200000Y32677D02*
D03*
X187402Y33071D02*
D03*
X189764Y25591D02*
D03*
X176772Y30315D02*
D03*
X130709Y100394D02*
D03*
X125197Y59055D02*
D03*
X128347D02*
D03*
X208268Y50787D02*
D03*
X184252Y41732D02*
D03*
X184646Y47638D02*
D03*
X193701Y149606D02*
D03*
M02*
