G04 Layer_Color=32896*
%FSLAX25Y25*%
%MOIN*%
G70*
G01*
G75*
%ADD16C,0.00787*%
%ADD43C,0.00591*%
%ADD50C,0.00472*%
%ADD51C,0.00394*%
%ADD52C,0.00500*%
%ADD83C,0.00100*%
%ADD84R,0.01181X0.10236*%
%ADD85R,0.01181X0.10236*%
%ADD86R,0.06299X0.01181*%
%ADD87R,0.06299X0.01181*%
%ADD88R,0.01181X0.06299*%
%ADD89R,0.01181X0.06299*%
G36*
X79886Y101754D02*
Y101591D01*
Y101454D01*
X79873Y101316D01*
Y101204D01*
Y101104D01*
X79861Y101041D01*
Y100991D01*
Y100979D01*
X79836Y100754D01*
X79823Y100641D01*
X79811Y100554D01*
X79798Y100479D01*
X79786Y100429D01*
X79773Y100391D01*
Y100379D01*
X79723Y100191D01*
X79673Y100041D01*
X79648Y99979D01*
X79636Y99929D01*
X79623Y99904D01*
Y99891D01*
X79548Y99729D01*
X79461Y99604D01*
X79436Y99554D01*
X79411Y99516D01*
X79386Y99491D01*
Y99479D01*
X79211Y99266D01*
X79036Y99079D01*
X78848Y98916D01*
X78673Y98791D01*
X78511Y98691D01*
X78386Y98616D01*
X78336Y98591D01*
X78298Y98579D01*
X78286Y98566D01*
X78273D01*
X77998Y98479D01*
X77711Y98404D01*
X77423Y98354D01*
X77148Y98329D01*
X76911Y98304D01*
X76811D01*
X76723Y98291D01*
X76548D01*
X76186Y98304D01*
X75861Y98329D01*
X75548Y98379D01*
X75261Y98429D01*
X74998Y98491D01*
X74761Y98566D01*
X74536Y98654D01*
X74348Y98741D01*
X74173Y98816D01*
X74023Y98904D01*
X73898Y98979D01*
X73798Y99041D01*
X73711Y99091D01*
X73661Y99141D01*
X73623Y99166D01*
X73611Y99179D01*
X73461Y99341D01*
X73348Y99466D01*
X73298Y99529D01*
X73273Y99566D01*
X73248Y99591D01*
Y99604D01*
X73148Y99779D01*
X73073Y99954D01*
X73048Y100016D01*
X73023Y100079D01*
X73011Y100116D01*
Y100129D01*
X72961Y100366D01*
X72936Y100491D01*
X72923Y100604D01*
X72911Y100704D01*
X72898Y100779D01*
Y100829D01*
Y100841D01*
X72886Y101004D01*
X72873Y101179D01*
Y101341D01*
X72861Y101504D01*
Y101641D01*
Y101754D01*
Y101829D01*
Y101841D01*
Y101854D01*
Y106654D01*
X74186D01*
Y101854D01*
Y101716D01*
Y101591D01*
Y101479D01*
Y101391D01*
X74198Y101316D01*
Y101254D01*
Y101216D01*
Y101204D01*
X74211Y101016D01*
X74223Y100941D01*
Y100866D01*
X74236Y100816D01*
Y100779D01*
X74248Y100754D01*
Y100741D01*
X74273Y100604D01*
X74298Y100504D01*
X74311Y100429D01*
X74323Y100416D01*
Y100404D01*
X74361Y100304D01*
X74398Y100229D01*
X74423Y100179D01*
X74436Y100154D01*
X74536Y100004D01*
X74648Y99879D01*
X74773Y99779D01*
X74898Y99691D01*
X75011Y99616D01*
X75098Y99566D01*
X75161Y99541D01*
X75186Y99529D01*
X75386Y99466D01*
X75586Y99416D01*
X75786Y99379D01*
X75973Y99354D01*
X76136Y99341D01*
X76273Y99329D01*
X76386D01*
X76611Y99341D01*
X76811Y99354D01*
X77011Y99391D01*
X77186Y99429D01*
X77348Y99479D01*
X77486Y99529D01*
X77623Y99591D01*
X77736Y99654D01*
X77836Y99704D01*
X77923Y99766D01*
X77998Y99816D01*
X78061Y99866D01*
X78098Y99904D01*
X78136Y99941D01*
X78148Y99954D01*
X78161Y99966D01*
X78236Y100066D01*
X78298Y100179D01*
X78398Y100391D01*
X78436Y100479D01*
X78448Y100554D01*
X78473Y100604D01*
Y100616D01*
X78498Y100779D01*
X78523Y100966D01*
X78536Y101154D01*
X78548Y101341D01*
X78561Y101504D01*
Y101629D01*
Y101679D01*
Y101716D01*
Y101741D01*
Y101754D01*
Y106654D01*
X79886D01*
Y101754D01*
D02*
G37*
G36*
X88061Y98404D02*
X84136D01*
X83861Y98416D01*
X83611Y98441D01*
X83411Y98454D01*
X83248Y98479D01*
X83123Y98491D01*
X83048Y98504D01*
X83023D01*
X82823Y98541D01*
X82648Y98591D01*
X82486Y98654D01*
X82361Y98704D01*
X82248Y98754D01*
X82173Y98791D01*
X82123Y98816D01*
X82111Y98829D01*
X81948Y98941D01*
X81798Y99079D01*
X81673Y99204D01*
X81573Y99329D01*
X81498Y99441D01*
X81448Y99529D01*
X81411Y99591D01*
X81398Y99616D01*
X81311Y99804D01*
X81248Y100004D01*
X81211Y100191D01*
X81173Y100366D01*
X81161Y100516D01*
X81148Y100641D01*
Y100716D01*
Y100729D01*
Y100741D01*
X81161Y101004D01*
X81198Y101241D01*
X81248Y101441D01*
X81311Y101616D01*
X81373Y101754D01*
X81423Y101841D01*
X81461Y101904D01*
X81473Y101929D01*
X81611Y102091D01*
X81773Y102229D01*
X81961Y102354D01*
X82136Y102454D01*
X82298Y102529D01*
X82423Y102591D01*
X82473Y102616D01*
X82511Y102629D01*
X82536Y102641D01*
X82548D01*
X82323Y102754D01*
X82123Y102891D01*
X81961Y103041D01*
X81811Y103191D01*
X81686Y103341D01*
X81586Y103504D01*
X81498Y103654D01*
X81436Y103816D01*
X81386Y103954D01*
X81336Y104091D01*
X81311Y104216D01*
X81298Y104329D01*
X81286Y104416D01*
X81273Y104479D01*
Y104529D01*
Y104541D01*
Y104704D01*
X81298Y104841D01*
X81311Y104979D01*
X81336Y105104D01*
X81361Y105204D01*
X81386Y105279D01*
X81398Y105329D01*
X81411Y105341D01*
X81473Y105479D01*
X81536Y105604D01*
X81598Y105716D01*
X81661Y105816D01*
X81723Y105891D01*
X81773Y105954D01*
X81798Y105991D01*
X81811Y106004D01*
X81948Y106129D01*
X82061Y106229D01*
X82111Y106266D01*
X82148Y106291D01*
X82173Y106316D01*
X82186D01*
X82336Y106404D01*
X82486Y106466D01*
X82548Y106491D01*
X82598Y106504D01*
X82636Y106516D01*
X82648D01*
X82861Y106566D01*
X83061Y106591D01*
X83148Y106604D01*
X83211Y106616D01*
X83273D01*
X83561Y106641D01*
X83698D01*
X83823Y106654D01*
X88061D01*
Y98404D01*
D02*
G37*
G36*
X72320Y109452D02*
X71342D01*
Y113534D01*
X70966D01*
X70782Y113524D01*
X70640Y113504D01*
X70518Y113473D01*
X70416Y113443D01*
X70345Y113402D01*
X70304Y113371D01*
X70273Y113351D01*
X70263Y113341D01*
X70202Y113259D01*
X70151Y113147D01*
X70121Y113035D01*
X70090Y112913D01*
X70080Y112801D01*
X70070Y112709D01*
Y112638D01*
Y112628D01*
Y112618D01*
Y112139D01*
X69154D01*
Y112618D01*
Y112821D01*
X69164Y112995D01*
X69184Y113147D01*
X69194Y113269D01*
X69215Y113361D01*
X69235Y113432D01*
X69245Y113473D01*
Y113483D01*
X69286Y113585D01*
X69327Y113687D01*
X69377Y113768D01*
X69428Y113839D01*
X69479Y113901D01*
X69510Y113941D01*
X69540Y113972D01*
X69551Y113982D01*
X69642Y114053D01*
X69734Y114114D01*
X69836Y114165D01*
X69927Y114206D01*
X69999Y114236D01*
X70060Y114257D01*
X70110Y114277D01*
X70121D01*
X70253Y114308D01*
X70406Y114328D01*
X70558Y114338D01*
X70711Y114348D01*
X70843Y114359D01*
X72320D01*
Y109452D01*
D02*
G37*
G36*
X80128D02*
X79150D01*
Y114359D01*
X80128D01*
Y109452D01*
D02*
G37*
G36*
X77756D02*
X76778D01*
Y111712D01*
X75557D01*
X75506Y111702D01*
X75435D01*
X75313Y111691D01*
X75221Y111681D01*
X75160Y111671D01*
X75139D01*
X75048Y111651D01*
X74976Y111630D01*
X74936Y111620D01*
X74915Y111610D01*
X74854Y111580D01*
X74793Y111549D01*
X74753Y111529D01*
X74742Y111519D01*
X74641Y111427D01*
X74569Y111315D01*
X74549Y111274D01*
X74529Y111233D01*
X74518Y111213D01*
Y111203D01*
X74498Y111121D01*
X74478Y111020D01*
X74467Y110816D01*
X74457Y110714D01*
Y110643D01*
Y110592D01*
Y110572D01*
Y109452D01*
X73480D01*
Y110775D01*
Y110948D01*
X73490Y111111D01*
X73500Y111244D01*
X73521Y111345D01*
X73531Y111437D01*
X73551Y111498D01*
X73562Y111539D01*
Y111549D01*
X73592Y111651D01*
X73633Y111742D01*
X73673Y111814D01*
X73724Y111885D01*
X73765Y111946D01*
X73796Y111987D01*
X73816Y112007D01*
X73826Y112017D01*
X73908Y112089D01*
X73989Y112160D01*
X74081Y112211D01*
X74162Y112251D01*
X74233Y112282D01*
X74295Y112302D01*
X74335Y112323D01*
X74345D01*
X74467Y112353D01*
X74600Y112384D01*
X74732Y112404D01*
X74854Y112414D01*
X74966Y112425D01*
X75618D01*
X73215Y114359D01*
X74457D01*
X76778Y112425D01*
Y116171D01*
X77756D01*
Y109452D01*
D02*
G37*
G36*
X88058D02*
X87081D01*
Y113575D01*
X85268D01*
Y109452D01*
X84291D01*
Y113575D01*
X83538D01*
X83324Y113565D01*
X83141Y113534D01*
X82988Y113493D01*
X82866Y113453D01*
X82785Y113412D01*
X82723Y113371D01*
X82683Y113341D01*
X82673Y113330D01*
X82591Y113229D01*
X82530Y113096D01*
X82489Y112954D01*
X82459Y112811D01*
X82438Y112689D01*
X82428Y112577D01*
Y112537D01*
Y112506D01*
Y112486D01*
Y112475D01*
Y109452D01*
X81451D01*
Y112475D01*
Y112587D01*
Y112699D01*
X81461Y112791D01*
Y112872D01*
X81471Y112934D01*
Y112984D01*
X81482Y113015D01*
Y113025D01*
X81502Y113198D01*
X81512Y113269D01*
X81533Y113330D01*
X81543Y113371D01*
X81553Y113412D01*
X81563Y113432D01*
Y113443D01*
X81604Y113565D01*
X81655Y113656D01*
X81675Y113697D01*
X81685Y113727D01*
X81705Y113738D01*
Y113748D01*
X81777Y113850D01*
X81848Y113931D01*
X81909Y113982D01*
X81919Y114002D01*
X81929D01*
X82031Y114084D01*
X82123Y114145D01*
X82184Y114175D01*
X82194Y114186D01*
X82204D01*
X82306Y114236D01*
X82408Y114267D01*
X82449Y114277D01*
X82489Y114287D01*
X82510Y114298D01*
X82520D01*
X82673Y114328D01*
X82825Y114338D01*
X82886Y114348D01*
X83100D01*
X83212Y114359D01*
X88058D01*
Y109452D01*
D02*
G37*
G36*
X68923Y106641D02*
X69136Y106629D01*
X69311Y106616D01*
X69448Y106591D01*
X69548Y106579D01*
X69611Y106566D01*
X69636D01*
X69798Y106529D01*
X69961Y106491D01*
X70098Y106454D01*
X70211Y106404D01*
X70311Y106366D01*
X70386Y106329D01*
X70436Y106316D01*
X70448Y106304D01*
X70648Y106179D01*
X70811Y106029D01*
X70961Y105879D01*
X71086Y105741D01*
X71186Y105616D01*
X71261Y105504D01*
X71311Y105441D01*
X71323Y105429D01*
Y105416D01*
X71423Y105204D01*
X71498Y104991D01*
X71561Y104779D01*
X71598Y104591D01*
X71623Y104416D01*
X71636Y104279D01*
Y104229D01*
Y104204D01*
Y104179D01*
Y104166D01*
X71623Y103954D01*
X71598Y103766D01*
X71573Y103591D01*
X71523Y103441D01*
X71486Y103316D01*
X71461Y103216D01*
X71436Y103166D01*
X71423Y103141D01*
X71336Y102991D01*
X71236Y102841D01*
X71123Y102729D01*
X71023Y102616D01*
X70936Y102541D01*
X70861Y102479D01*
X70811Y102441D01*
X70798Y102429D01*
X70673Y102354D01*
X70536Y102279D01*
X70398Y102229D01*
X70273Y102179D01*
X70161Y102154D01*
X70061Y102129D01*
X70011Y102104D01*
X69986D01*
X69786Y102079D01*
X69573Y102054D01*
X69361Y102041D01*
X69148Y102029D01*
X68973Y102016D01*
X67673D01*
X67548Y102004D01*
X67348D01*
X67286Y101991D01*
X67236D01*
X67048Y101979D01*
X66973Y101966D01*
X66911Y101954D01*
X66861Y101941D01*
X66811D01*
X66798Y101929D01*
X66786D01*
X66661Y101879D01*
X66548Y101816D01*
X66448Y101741D01*
X66373Y101679D01*
X66311Y101604D01*
X66273Y101554D01*
X66248Y101516D01*
X66236Y101504D01*
X66173Y101379D01*
X66123Y101254D01*
X66086Y101116D01*
X66061Y101004D01*
X66048Y100891D01*
X66036Y100804D01*
Y100754D01*
Y100729D01*
X66048Y100491D01*
X66098Y100279D01*
X66161Y100104D01*
X66236Y99979D01*
X66311Y99866D01*
X66373Y99804D01*
X66423Y99754D01*
X66436Y99741D01*
X66511Y99691D01*
X66611Y99641D01*
X66811Y99579D01*
X67036Y99529D01*
X67248Y99491D01*
X67461Y99466D01*
X67548D01*
X67623Y99454D01*
X71336D01*
Y98404D01*
X67186D01*
X66973Y98416D01*
X66873D01*
X66798Y98429D01*
X66723D01*
X66673Y98441D01*
X66636D01*
X66461Y98466D01*
X66323Y98504D01*
X66273Y98516D01*
X66236D01*
X66211Y98529D01*
X66198D01*
X66061Y98579D01*
X65948Y98629D01*
X65873Y98666D01*
X65861Y98679D01*
X65848D01*
X65636Y98791D01*
X65461Y98929D01*
X65311Y99066D01*
X65186Y99191D01*
X65086Y99316D01*
X65011Y99404D01*
X64973Y99466D01*
X64961Y99491D01*
X64861Y99704D01*
X64786Y99916D01*
X64723Y100129D01*
X64686Y100329D01*
X64661Y100504D01*
X64648Y100641D01*
Y100691D01*
Y100729D01*
Y100754D01*
Y100766D01*
X64661Y100991D01*
X64686Y101204D01*
X64711Y101391D01*
X64748Y101554D01*
X64798Y101691D01*
X64823Y101791D01*
X64848Y101854D01*
X64861Y101879D01*
X64948Y102066D01*
X65036Y102229D01*
X65136Y102366D01*
X65223Y102491D01*
X65311Y102591D01*
X65386Y102654D01*
X65436Y102704D01*
X65448Y102716D01*
X65586Y102804D01*
X65698Y102879D01*
X65748Y102904D01*
X65786Y102929D01*
X65811Y102941D01*
X65823D01*
X65986Y103004D01*
X66148Y103054D01*
X66223Y103066D01*
X66273Y103079D01*
X66311Y103091D01*
X66323D01*
X66548Y103129D01*
X66661Y103141D01*
X66773Y103154D01*
X66861Y103166D01*
X66936Y103179D01*
X66998D01*
X67148Y103191D01*
X67311D01*
X67461Y103204D01*
X68598D01*
X68761Y103216D01*
X68923Y103229D01*
X69061Y103241D01*
X69186Y103266D01*
X69298Y103279D01*
X69498Y103329D01*
X69636Y103379D01*
X69748Y103416D01*
X69798Y103441D01*
X69823Y103454D01*
X69961Y103566D01*
X70061Y103704D01*
X70136Y103854D01*
X70186Y104004D01*
X70211Y104141D01*
X70223Y104254D01*
X70236Y104329D01*
Y104341D01*
Y104354D01*
X70211Y104579D01*
X70198Y104679D01*
X70173Y104766D01*
X70148Y104841D01*
X70136Y104891D01*
X70111Y104929D01*
Y104941D01*
X69998Y105129D01*
X69936Y105191D01*
X69886Y105254D01*
X69836Y105304D01*
X69798Y105341D01*
X69773Y105354D01*
X69761Y105366D01*
X69598Y105441D01*
X69436Y105504D01*
X69373Y105516D01*
X69323Y105529D01*
X69286Y105541D01*
X69273D01*
X69148Y105566D01*
X69011Y105579D01*
X68873Y105591D01*
X68736D01*
X68611Y105604D01*
X65036D01*
Y106654D01*
X68686D01*
X68923Y106641D01*
D02*
G37*
G36*
X80128Y115153D02*
X79150D01*
Y116171D01*
X80128D01*
Y115153D01*
D02*
G37*
G36*
X46931Y10999D02*
X46239D01*
Y12297D01*
X45430D01*
X44702Y10999D01*
X43918D01*
X44743Y12373D01*
X44631Y12409D01*
X44529Y12450D01*
X44447Y12501D01*
X44376Y12557D01*
X44320Y12602D01*
X44279Y12643D01*
X44259Y12674D01*
X44249Y12684D01*
X44193Y12781D01*
X44147Y12882D01*
X44116Y12984D01*
X44096Y13081D01*
X44086Y13167D01*
X44081Y13203D01*
X44076Y13239D01*
Y13264D01*
Y13284D01*
Y13295D01*
Y13300D01*
X44081Y13391D01*
X44086Y13478D01*
X44101Y13559D01*
X44122Y13631D01*
X44142Y13697D01*
X44162Y13758D01*
X44188Y13814D01*
X44213Y13865D01*
X44244Y13911D01*
X44269Y13946D01*
X44289Y13977D01*
X44310Y14002D01*
X44330Y14022D01*
X44345Y14038D01*
X44350Y14043D01*
X44356Y14048D01*
X44412Y14089D01*
X44473Y14129D01*
X44610Y14190D01*
X44758Y14231D01*
X44900Y14262D01*
X44966Y14272D01*
X45028Y14282D01*
X45083Y14287D01*
X45134D01*
X45175Y14292D01*
X46931D01*
Y10999D01*
D02*
G37*
G36*
X42589Y13412D02*
X42691Y13401D01*
X42788Y13386D01*
X42874Y13371D01*
X42956Y13346D01*
X43032Y13320D01*
X43098Y13290D01*
X43159Y13264D01*
X43210Y13234D01*
X43256Y13203D01*
X43297Y13178D01*
X43332Y13157D01*
X43358Y13137D01*
X43373Y13122D01*
X43383Y13111D01*
X43389Y13106D01*
X43444Y13045D01*
X43490Y12979D01*
X43531Y12908D01*
X43567Y12836D01*
X43592Y12760D01*
X43618Y12689D01*
X43653Y12541D01*
X43668Y12475D01*
X43679Y12409D01*
X43684Y12353D01*
X43689Y12302D01*
X43694Y12261D01*
Y12231D01*
Y12211D01*
Y12205D01*
X43689Y12099D01*
X43679Y11997D01*
X43663Y11900D01*
X43648Y11813D01*
X43623Y11732D01*
X43597Y11661D01*
X43572Y11590D01*
X43541Y11534D01*
X43511Y11478D01*
X43485Y11432D01*
X43460Y11396D01*
X43434Y11361D01*
X43419Y11335D01*
X43404Y11320D01*
X43394Y11310D01*
X43389Y11304D01*
X43327Y11248D01*
X43261Y11203D01*
X43190Y11162D01*
X43114Y11126D01*
X43042Y11101D01*
X42966Y11075D01*
X42818Y11040D01*
X42752Y11024D01*
X42686Y11014D01*
X42630Y11009D01*
X42579Y11004D01*
X42538Y10999D01*
X41546D01*
Y11503D01*
X42462D01*
X42518Y11508D01*
X42574Y11513D01*
X42620Y11518D01*
X42707Y11534D01*
X42768Y11549D01*
X42813Y11564D01*
X42844Y11579D01*
X42864Y11590D01*
X42869Y11595D01*
X42905Y11640D01*
X42935Y11691D01*
X42956Y11752D01*
X42971Y11813D01*
X42976Y11869D01*
X42981Y11915D01*
X42986Y11946D01*
Y11951D01*
Y11956D01*
X41546D01*
Y12460D01*
X42986D01*
X42981Y12546D01*
X42966Y12623D01*
X42946Y12684D01*
X42925Y12730D01*
X42900Y12765D01*
X42885Y12791D01*
X42869Y12806D01*
X42864Y12811D01*
X42839Y12832D01*
X42808Y12847D01*
X42737Y12872D01*
X42661Y12888D01*
X42579Y12903D01*
X42508Y12908D01*
X42447Y12913D01*
X41546D01*
Y13417D01*
X42483D01*
X42589Y13412D01*
D02*
G37*
G36*
X66293Y114399D02*
X66507Y114379D01*
X66700Y114348D01*
X66873Y114318D01*
X67006Y114287D01*
X67107Y114257D01*
X67138Y114247D01*
X67168Y114236D01*
X67179Y114226D01*
X67189D01*
X67352Y114155D01*
X67504Y114074D01*
X67647Y113982D01*
X67759Y113890D01*
X67851Y113809D01*
X67912Y113748D01*
X67962Y113707D01*
X67973Y113687D01*
X68085Y113555D01*
X68176Y113422D01*
X68258Y113290D01*
X68329Y113157D01*
X68380Y113046D01*
X68421Y112954D01*
X68441Y112893D01*
X68451Y112883D01*
Y112872D01*
X68502Y112689D01*
X68543Y112506D01*
X68573Y112323D01*
X68594Y112160D01*
X68604Y112017D01*
X68614Y111916D01*
Y111875D01*
Y111844D01*
Y111824D01*
Y111814D01*
X68604Y111600D01*
X68584Y111396D01*
X68553Y111213D01*
X68512Y111040D01*
X68461Y110877D01*
X68410Y110735D01*
X68349Y110602D01*
X68288Y110480D01*
X68237Y110368D01*
X68176Y110276D01*
X68125Y110205D01*
X68075Y110134D01*
X68034Y110083D01*
X68003Y110053D01*
X67983Y110032D01*
X67973Y110022D01*
X67840Y109910D01*
X67708Y109818D01*
X67555Y109737D01*
X67403Y109666D01*
X67250Y109615D01*
X67097Y109564D01*
X66792Y109493D01*
X66649Y109462D01*
X66517Y109442D01*
X66405Y109432D01*
X66303Y109421D01*
X66212Y109411D01*
X66100D01*
X65886Y109421D01*
X65682Y109442D01*
X65489Y109472D01*
X65316Y109513D01*
X65153Y109564D01*
X65000Y109615D01*
X64868Y109676D01*
X64736Y109737D01*
X64634Y109788D01*
X64532Y109849D01*
X64450Y109900D01*
X64389Y109951D01*
X64338Y109992D01*
X64298Y110022D01*
X64277Y110042D01*
X64267Y110053D01*
X64155Y110175D01*
X64053Y110317D01*
X63962Y110460D01*
X63880Y110612D01*
X63819Y110755D01*
X63768Y110908D01*
X63687Y111203D01*
X63656Y111345D01*
X63636Y111468D01*
X63626Y111580D01*
X63616Y111681D01*
X63605Y111763D01*
Y111824D01*
Y111865D01*
Y111875D01*
X63616Y112099D01*
X63636Y112302D01*
X63667Y112506D01*
X63707Y112679D01*
X63748Y112852D01*
X63809Y113005D01*
X63860Y113147D01*
X63921Y113269D01*
X63982Y113381D01*
X64033Y113473D01*
X64094Y113565D01*
X64135Y113626D01*
X64176Y113677D01*
X64206Y113717D01*
X64227Y113738D01*
X64237Y113748D01*
X64359Y113860D01*
X64491Y113962D01*
X64634Y114053D01*
X64786Y114135D01*
X64939Y114196D01*
X65092Y114247D01*
X65377Y114328D01*
X65519Y114359D01*
X65641Y114379D01*
X65754Y114389D01*
X65855Y114399D01*
X65937Y114410D01*
X66049D01*
X66293Y114399D01*
D02*
G37*
G36*
X40385Y10999D02*
X39698D01*
X38624Y13417D01*
X39316D01*
X40024Y11696D01*
X40696Y13417D01*
X41409D01*
X40385Y10999D01*
D02*
G37*
G36*
X34593Y13727D02*
X33015D01*
X32908Y13722D01*
X32817Y13712D01*
X32745Y13697D01*
X32684Y13681D01*
X32638Y13666D01*
X32613Y13651D01*
X32593Y13641D01*
X32588Y13636D01*
X32547Y13600D01*
X32521Y13549D01*
X32501Y13503D01*
X32486Y13452D01*
X32476Y13407D01*
X32471Y13366D01*
Y13340D01*
Y13335D01*
Y13330D01*
X32476Y13259D01*
X32491Y13198D01*
X32511Y13147D01*
X32531Y13111D01*
X32552Y13081D01*
X32572Y13055D01*
X32588Y13045D01*
X32593Y13040D01*
X32643Y13010D01*
X32710Y12989D01*
X32781Y12974D01*
X32847Y12964D01*
X32913Y12959D01*
X32964Y12954D01*
X33575D01*
X33677Y12943D01*
X33768Y12933D01*
X33855Y12918D01*
X33936Y12903D01*
X34008Y12882D01*
X34069Y12862D01*
X34125Y12842D01*
X34176Y12821D01*
X34221Y12801D01*
X34252Y12781D01*
X34282Y12765D01*
X34303Y12750D01*
X34323Y12740D01*
X34328Y12735D01*
X34333Y12730D01*
X34379Y12684D01*
X34420Y12633D01*
X34456Y12577D01*
X34481Y12521D01*
X34532Y12399D01*
X34563Y12277D01*
X34578Y12165D01*
X34583Y12114D01*
X34588Y12073D01*
X34593Y12037D01*
Y12012D01*
Y11992D01*
Y11987D01*
Y10999D01*
X31717D01*
Y11564D01*
X33850D01*
Y11890D01*
X33845Y11981D01*
X33830Y12058D01*
X33809Y12119D01*
X33789Y12170D01*
X33768Y12211D01*
X33748Y12236D01*
X33733Y12251D01*
X33728Y12256D01*
X33677Y12292D01*
X33611Y12323D01*
X33544Y12343D01*
X33473Y12353D01*
X33412Y12363D01*
X33361Y12368D01*
X32689D01*
X32603Y12373D01*
X32516Y12378D01*
X32440Y12389D01*
X32369Y12404D01*
X32302Y12424D01*
X32241Y12445D01*
X32190Y12465D01*
X32140Y12490D01*
X32094Y12511D01*
X32058Y12531D01*
X32023Y12551D01*
X31997Y12572D01*
X31977Y12587D01*
X31962Y12597D01*
X31956Y12607D01*
X31951D01*
X31905Y12658D01*
X31865Y12709D01*
X31834Y12765D01*
X31804Y12821D01*
X31758Y12943D01*
X31727Y13060D01*
X31712Y13162D01*
X31702Y13208D01*
Y13249D01*
X31697Y13279D01*
Y13305D01*
Y13320D01*
Y13325D01*
X31702Y13437D01*
X31712Y13539D01*
X31732Y13625D01*
X31748Y13702D01*
X31768Y13763D01*
X31788Y13809D01*
X31799Y13834D01*
X31804Y13844D01*
X31844Y13921D01*
X31895Y13987D01*
X31946Y14043D01*
X31997Y14094D01*
X32043Y14129D01*
X32078Y14160D01*
X32104Y14175D01*
X32114Y14180D01*
X32190Y14221D01*
X32267Y14246D01*
X32297Y14257D01*
X32323Y14262D01*
X32338Y14267D01*
X32343D01*
X32394Y14277D01*
X32455Y14282D01*
X32516Y14287D01*
X32577D01*
X32628Y14292D01*
X34593D01*
Y13727D01*
D02*
G37*
G36*
X31351Y10999D02*
X30628D01*
Y14292D01*
X31351D01*
Y10999D01*
D02*
G37*
G36*
X36599D02*
X35876D01*
Y14292D01*
X36599D01*
Y10999D01*
D02*
G37*
G36*
X35453D02*
X34903D01*
Y11574D01*
X35453D01*
Y10999D01*
D02*
G37*
%LPC*%
G36*
X86736Y105604D02*
X83936D01*
X83786Y105591D01*
X83661Y105579D01*
X83561D01*
X83486Y105566D01*
X83436Y105554D01*
X83398Y105541D01*
X83386D01*
X83223Y105479D01*
X83086Y105404D01*
X83036Y105366D01*
X82998Y105329D01*
X82986Y105316D01*
X82973Y105304D01*
X82861Y105179D01*
X82786Y105041D01*
X82761Y104991D01*
X82736Y104941D01*
X82723Y104916D01*
Y104904D01*
X82673Y104729D01*
X82648Y104554D01*
X82636Y104491D01*
Y104441D01*
Y104404D01*
Y104391D01*
X82648Y104166D01*
X82698Y103966D01*
X82773Y103791D01*
X82848Y103654D01*
X82923Y103541D01*
X82998Y103466D01*
X83048Y103416D01*
X83061Y103404D01*
X83198Y103316D01*
X83336Y103266D01*
X83398Y103241D01*
X83448Y103229D01*
X83473Y103216D01*
X83486D01*
X83586Y103204D01*
X83686Y103191D01*
X83886Y103179D01*
X83973Y103166D01*
X86736D01*
Y105604D01*
D02*
G37*
G36*
Y102116D02*
X84111D01*
X83823Y102104D01*
X83573Y102066D01*
X83361Y102016D01*
X83198Y101966D01*
X83073Y101916D01*
X82986Y101866D01*
X82923Y101829D01*
X82911Y101816D01*
X82786Y101691D01*
X82698Y101541D01*
X82636Y101366D01*
X82598Y101216D01*
X82561Y101066D01*
X82548Y100941D01*
Y100891D01*
Y100854D01*
Y100841D01*
Y100829D01*
X82561Y100591D01*
X82623Y100379D01*
X82698Y100191D01*
X82811Y100029D01*
X82936Y99904D01*
X83073Y99791D01*
X83223Y99704D01*
X83386Y99629D01*
X83536Y99566D01*
X83698Y99529D01*
X83836Y99491D01*
X83961Y99479D01*
X84073Y99466D01*
X84148Y99454D01*
X86736D01*
Y102116D01*
D02*
G37*
G36*
X46239Y13707D02*
X45333D01*
X45272Y13702D01*
X45170Y13692D01*
X45089Y13676D01*
X45022Y13661D01*
X44971Y13641D01*
X44936Y13625D01*
X44916Y13615D01*
X44910Y13610D01*
X44865Y13569D01*
X44834Y13524D01*
X44809Y13468D01*
X44793Y13417D01*
X44783Y13366D01*
X44778Y13325D01*
Y13300D01*
Y13295D01*
Y13290D01*
X44783Y13213D01*
X44798Y13147D01*
X44824Y13091D01*
X44844Y13045D01*
X44870Y13010D01*
X44895Y12989D01*
X44910Y12974D01*
X44916Y12969D01*
X44971Y12938D01*
X45048Y12918D01*
X45124Y12898D01*
X45206Y12888D01*
X45277Y12882D01*
X45338Y12877D01*
X46239D01*
Y13707D01*
D02*
G37*
G36*
X66181Y113595D02*
X65977D01*
X65855Y113575D01*
X65631Y113524D01*
X65438Y113453D01*
X65285Y113371D01*
X65163Y113290D01*
X65071Y113218D01*
X65021Y113168D01*
X65000Y113157D01*
Y113147D01*
X64868Y112964D01*
X64776Y112760D01*
X64705Y112547D01*
X64664Y112333D01*
X64634Y112150D01*
X64623Y112068D01*
Y111997D01*
X64613Y111936D01*
Y111895D01*
Y111865D01*
Y111854D01*
X64634Y111569D01*
X64674Y111315D01*
X64756Y111091D01*
X64847Y110898D01*
X64970Y110745D01*
X65092Y110612D01*
X65234Y110501D01*
X65367Y110409D01*
X65509Y110348D01*
X65652Y110297D01*
X65774Y110256D01*
X65896Y110236D01*
X65988Y110215D01*
X66069Y110205D01*
X66130D01*
X66385Y110226D01*
X66619Y110276D01*
X66812Y110358D01*
X66985Y110470D01*
X67128Y110592D01*
X67250Y110735D01*
X67342Y110887D01*
X67423Y111040D01*
X67484Y111193D01*
X67525Y111345D01*
X67566Y111488D01*
X67586Y111610D01*
X67596Y111722D01*
X67606Y111803D01*
Y111854D01*
Y111875D01*
X67586Y112170D01*
X67545Y112425D01*
X67484Y112648D01*
X67413Y112821D01*
X67352Y112964D01*
X67291Y113066D01*
X67250Y113127D01*
X67230Y113147D01*
X67148Y113229D01*
X67067Y113300D01*
X66894Y113402D01*
X66700Y113483D01*
X66527Y113544D01*
X66364Y113575D01*
X66293Y113585D01*
X66232D01*
X66181Y113595D01*
D02*
G37*
%LPD*%
D16*
X195079Y42520D02*
G03*
X195079Y42520I-197J0D01*
G01*
D43*
X106562Y81167D02*
X107087Y81692D01*
X108137D01*
X108661Y81167D01*
Y80642D01*
X108137Y80118D01*
X107087D01*
X106562Y79593D01*
Y79068D01*
X107087Y78543D01*
X108137D01*
X108661Y79068D01*
X105513Y81692D02*
Y78543D01*
X103938D01*
X103414Y79068D01*
Y81167D01*
X103938Y81692D01*
X105513D01*
X102364Y78543D02*
Y80642D01*
X101315Y81692D01*
X100265Y80642D01*
Y78543D01*
Y80118D01*
X102364D01*
X99216Y78018D02*
X97117D01*
X93968Y81692D02*
X95017D01*
X94493D01*
Y79068D01*
X95017Y78543D01*
X95542D01*
X96067Y79068D01*
X92918Y78543D02*
X91869D01*
X92394D01*
Y81692D01*
X92918Y81167D01*
X106562Y100065D02*
X107087Y100590D01*
X108137D01*
X108661Y100065D01*
Y99540D01*
X108137Y99015D01*
X107087D01*
X106562Y98491D01*
Y97966D01*
X107087Y97441D01*
X108137D01*
X108661Y97966D01*
X103414Y100065D02*
X103938Y100590D01*
X104988D01*
X105513Y100065D01*
Y97966D01*
X104988Y97441D01*
X103938D01*
X103414Y97966D01*
X102364Y100590D02*
Y97441D01*
X100265D01*
X99216Y96916D02*
X97117D01*
X93968Y100590D02*
X95017D01*
X94493D01*
Y97966D01*
X95017Y97441D01*
X95542D01*
X96067Y97966D01*
X92918Y97441D02*
X91869D01*
X92394D01*
Y100590D01*
X92918Y100065D01*
X207744Y53805D02*
X208268Y54330D01*
X209318D01*
X209842Y53805D01*
Y53280D01*
X209318Y52755D01*
X208268D01*
X207744Y52231D01*
Y51706D01*
X208268Y51181D01*
X209318D01*
X209842Y51706D01*
X204595Y53805D02*
X205120Y54330D01*
X206169D01*
X206694Y53805D01*
Y51706D01*
X206169Y51181D01*
X205120D01*
X204595Y51706D01*
X203545Y54330D02*
Y51181D01*
X201446D01*
X200397Y50656D02*
X198298D01*
X195149Y54330D02*
X196199D01*
X195674D01*
Y51706D01*
X196199Y51181D01*
X196723D01*
X197248Y51706D01*
X192000Y51181D02*
X194100D01*
X192000Y53280D01*
Y53805D01*
X192525Y54330D01*
X193575D01*
X194100Y53805D01*
X227822Y40025D02*
X228347Y40550D01*
X229397D01*
X229921Y40025D01*
Y39501D01*
X229397Y38976D01*
X228347D01*
X227822Y38451D01*
Y37926D01*
X228347Y37402D01*
X229397D01*
X229921Y37926D01*
X226773Y40550D02*
Y37402D01*
X225198D01*
X224674Y37926D01*
Y40025D01*
X225198Y40550D01*
X226773D01*
X223624Y37402D02*
Y39501D01*
X222574Y40550D01*
X221525Y39501D01*
Y37402D01*
Y38976D01*
X223624D01*
X220476Y36877D02*
X218376D01*
X215228Y40550D02*
X216277D01*
X215753D01*
Y37926D01*
X216277Y37402D01*
X216802D01*
X217327Y37926D01*
X212079Y37402D02*
X214178D01*
X212079Y39501D01*
Y40025D01*
X212604Y40550D01*
X213653D01*
X214178Y40025D01*
X207480Y127165D02*
X205381D01*
X206431Y128214D02*
Y126115D01*
X202233Y128739D02*
X204332D01*
Y127165D01*
X203282Y127690D01*
X202757D01*
X202233Y127165D01*
Y126115D01*
X202757Y125591D01*
X203807D01*
X204332Y126115D01*
X201183Y128739D02*
Y126640D01*
X200134Y125591D01*
X199084Y126640D01*
Y128739D01*
X195935D02*
X196985D01*
X196460D01*
Y126115D01*
X196985Y125591D01*
X197510D01*
X198035Y126115D01*
X192787Y125591D02*
X194886D01*
X192787Y127690D01*
Y128214D01*
X193312Y128739D01*
X194361D01*
X194886Y128214D01*
X174016Y177559D02*
X171917D01*
X172966Y178608D02*
Y176509D01*
X170867Y178608D02*
X170342Y179133D01*
X169293D01*
X168768Y178608D01*
Y178083D01*
X169293Y177559D01*
X169818D01*
X169293D01*
X168768Y177034D01*
Y176509D01*
X169293Y175984D01*
X170342D01*
X170867Y176509D01*
X167719Y179133D02*
Y177034D01*
X166669Y175984D01*
X165620Y177034D01*
Y179133D01*
X164570Y178608D02*
X164045Y179133D01*
X162996D01*
X162471Y178608D01*
Y178083D01*
X162996Y177559D01*
X163521D01*
X162996D01*
X162471Y177034D01*
Y176509D01*
X162996Y175984D01*
X164045D01*
X164570Y176509D01*
X159322Y179133D02*
X160372D01*
X159847D01*
Y176509D01*
X160372Y175984D01*
X160897D01*
X161421Y176509D01*
X156174Y175984D02*
X158273D01*
X156174Y178083D01*
Y178608D01*
X156699Y179133D01*
X157748D01*
X158273Y178608D01*
X24016Y72047D02*
X21917D01*
X22966Y73096D02*
Y70997D01*
X20867Y73096D02*
X20342Y73621D01*
X19293D01*
X18768Y73096D01*
Y72571D01*
X19293Y72047D01*
X19818D01*
X19293D01*
X18768Y71522D01*
Y70997D01*
X19293Y70472D01*
X20342D01*
X20867Y70997D01*
X17719Y73621D02*
Y71522D01*
X16669Y70472D01*
X15619Y71522D01*
Y73621D01*
X14570Y73096D02*
X14045Y73621D01*
X12996D01*
X12471Y73096D01*
Y72571D01*
X12996Y72047D01*
X13520D01*
X12996D01*
X12471Y71522D01*
Y70997D01*
X12996Y70472D01*
X14045D01*
X14570Y70997D01*
X9322Y73621D02*
X10372D01*
X9847D01*
Y70997D01*
X10372Y70472D01*
X10897D01*
X11421Y70997D01*
X8273Y70472D02*
X7223D01*
X7748D01*
Y73621D01*
X8273Y73096D01*
X22835Y91732D02*
X20736D01*
X21785Y92781D02*
Y90682D01*
X17587Y93306D02*
X19686D01*
Y91732D01*
X18636Y92256D01*
X18112D01*
X17587Y91732D01*
Y90682D01*
X18112Y90158D01*
X19161D01*
X19686Y90682D01*
X16537Y93306D02*
Y91207D01*
X15488Y90158D01*
X14438Y91207D01*
Y93306D01*
X11290D02*
X12339D01*
X11815D01*
Y90682D01*
X12339Y90158D01*
X12864D01*
X13389Y90682D01*
X10240Y90158D02*
X9191D01*
X9715D01*
Y93306D01*
X10240Y92781D01*
X205512Y142913D02*
X207611D01*
X208660Y143963D01*
X207611Y145012D01*
X205512D01*
X207086D01*
Y142913D01*
X208660Y146062D02*
X205512D01*
Y147636D01*
X206037Y148161D01*
X208136D01*
X208660Y147636D01*
Y146062D01*
Y149211D02*
X205512D01*
Y150785D01*
X206037Y151310D01*
X208136D01*
X208660Y150785D01*
Y149211D01*
X205512Y152359D02*
X208660D01*
Y153934D01*
X208136Y154458D01*
X207086D01*
X206561Y153934D01*
Y152359D01*
Y153409D02*
X205512Y154458D01*
Y157607D02*
Y155508D01*
X207611Y157607D01*
X208136D01*
X208660Y157082D01*
Y156033D01*
X208136Y155508D01*
X196063Y144095D02*
X198162D01*
X199212Y145144D01*
X198162Y146194D01*
X196063D01*
X197637D01*
Y144095D01*
X199212Y147243D02*
X196063D01*
Y148817D01*
X196588Y149342D01*
X198687D01*
X199212Y148817D01*
Y147243D01*
Y150392D02*
X196063D01*
Y151966D01*
X196588Y152491D01*
X198687D01*
X199212Y151966D01*
Y150392D01*
X196063Y153540D02*
X199212D01*
Y155115D01*
X198687Y155639D01*
X197637D01*
X197113Y155115D01*
Y153540D01*
Y154590D02*
X196063Y155639D01*
Y156689D02*
Y157738D01*
Y157214D01*
X199212D01*
X198687Y156689D01*
X185827Y142913D02*
X187926D01*
X188975Y143963D01*
X187926Y145012D01*
X185827D01*
X187401D01*
Y142913D01*
X188975Y146062D02*
X185827D01*
Y147636D01*
X186352Y148161D01*
X188451D01*
X188975Y147636D01*
Y146062D01*
Y149211D02*
X185827D01*
Y150785D01*
X186352Y151310D01*
X188451D01*
X188975Y150785D01*
Y149211D01*
X185827Y152359D02*
X188975D01*
Y153934D01*
X188451Y154458D01*
X187401D01*
X186876Y153934D01*
Y152359D01*
Y153409D02*
X185827Y154458D01*
X188451Y155508D02*
X188975Y156033D01*
Y157082D01*
X188451Y157607D01*
X186352D01*
X185827Y157082D01*
Y156033D01*
X186352Y155508D01*
X188451D01*
X95931Y184382D02*
X96456Y183858D01*
Y182808D01*
X95931Y182283D01*
X95406D01*
X94881Y182808D01*
Y183858D01*
X94357Y184382D01*
X93832D01*
X93307Y183858D01*
Y182808D01*
X93832Y182283D01*
X96456Y185432D02*
X93307D01*
Y187006D01*
X93832Y187531D01*
X95931D01*
X96456Y187006D01*
Y185432D01*
X93307Y188581D02*
X95406D01*
X96456Y189630D01*
X95406Y190680D01*
X93307D01*
X94881D01*
Y188581D01*
X104592Y184382D02*
X105117Y183858D01*
Y182808D01*
X104592Y182283D01*
X104068D01*
X103543Y182808D01*
Y183858D01*
X103018Y184382D01*
X102493D01*
X101969Y183858D01*
Y182808D01*
X102493Y182283D01*
X104592Y187531D02*
X105117Y187006D01*
Y185957D01*
X104592Y185432D01*
X102493D01*
X101969Y185957D01*
Y187006D01*
X102493Y187531D01*
X105117Y188581D02*
X101969D01*
Y190680D01*
X217192Y21259D02*
X219291D01*
Y18110D01*
X217192D01*
X219291Y19684D02*
X218242D01*
X214044Y20734D02*
X214568Y21259D01*
X215618D01*
X216143Y20734D01*
Y20209D01*
X215618Y19684D01*
X214568D01*
X214044Y19160D01*
Y18635D01*
X214568Y18110D01*
X215618D01*
X216143Y18635D01*
X212994Y18110D02*
Y21259D01*
X211420D01*
X210895Y20734D01*
Y19684D01*
X211420Y19160D01*
X212994D01*
X209846Y17585D02*
X207747D01*
X204598Y21259D02*
X206697D01*
Y18110D01*
X204598D01*
X206697Y19684D02*
X205647D01*
X203548Y18110D02*
Y21259D01*
X201449Y18110D01*
Y21259D01*
D50*
X99016Y204921D02*
Y206102D01*
X95472Y204921D02*
Y206102D01*
X167913Y26575D02*
Y27756D01*
X164370Y26575D02*
Y27756D01*
X162402Y26575D02*
Y27756D01*
X158858Y26575D02*
Y27756D01*
X100984Y204921D02*
Y206102D01*
X104528Y204921D02*
Y206102D01*
D51*
X94488Y200393D02*
X100000D01*
X94488Y210630D02*
X100000D01*
Y200393D02*
Y210630D01*
X94488Y200393D02*
Y210630D01*
X106299Y33071D02*
X125197D01*
Y21260D02*
Y33071D01*
X106299Y21260D02*
X125197D01*
X106299D02*
Y33071D01*
X180709Y22047D02*
Y40945D01*
X172835Y22047D02*
X180709D01*
X172835Y40945D02*
X180709D01*
X172835Y22047D02*
Y40945D01*
X181496Y21654D02*
X200394D01*
X181496D02*
Y29528D01*
X200394Y21654D02*
Y29528D01*
X181496D02*
X200394D01*
X187795Y30315D02*
Y35827D01*
X198031D01*
X187795Y30315D02*
X198031D01*
Y35827D01*
X192520Y31496D02*
Y34646D01*
X193307Y31496D02*
Y34646D01*
X181496Y30315D02*
X187008D01*
X181496D02*
Y40551D01*
X187008Y30315D02*
Y40551D01*
X181496D02*
X187008D01*
X182677Y35039D02*
X185827D01*
X182677Y35827D02*
X185827D01*
X163386Y32284D02*
X168898D01*
Y22048D02*
Y32284D01*
X163386Y22048D02*
Y32284D01*
Y22048D02*
X168898D01*
X157874Y32284D02*
X163386D01*
Y22048D02*
Y32284D01*
X157874Y22048D02*
Y32284D01*
Y22048D02*
X163386D01*
X103937Y21260D02*
Y33071D01*
X85039D02*
X103937D01*
X85039Y21260D02*
Y33071D01*
Y21260D02*
X103937D01*
Y33858D02*
Y45669D01*
X85039D02*
X103937D01*
X85039Y33858D02*
Y45669D01*
Y33858D02*
X103937D01*
X100000Y200393D02*
Y210630D01*
X105511Y200393D02*
Y210630D01*
X100000D02*
X105511D01*
X100000Y200393D02*
X105511D01*
X114566Y89763D02*
Y88976D01*
Y89370D01*
X112598D01*
X112205Y88976D01*
Y88583D01*
X112598Y88189D01*
X112205Y90550D02*
X114566D01*
Y91731D01*
X114173Y92125D01*
X113385D01*
X112992Y91731D01*
Y90550D01*
X112598Y92912D02*
X112205Y93305D01*
Y94093D01*
X112598Y94486D01*
X114173D01*
X114566Y94093D01*
Y93305D01*
X114173Y92912D01*
X113779D01*
X113385Y93305D01*
Y94486D01*
X114960Y109448D02*
Y108661D01*
Y109055D01*
X112992D01*
X112598Y108661D01*
Y108268D01*
X112992Y107874D01*
X112598Y110236D02*
X114960D01*
Y111416D01*
X114566Y111810D01*
X113779D01*
X113386Y111416D01*
Y110236D01*
X114566Y112597D02*
X114960Y112990D01*
Y113778D01*
X114566Y114171D01*
X114173D01*
X113779Y113778D01*
X113386Y114171D01*
X112992D01*
X112598Y113778D01*
Y112990D01*
X112992Y112597D01*
X113386D01*
X113779Y112990D01*
X114173Y112597D01*
X114566D01*
X113779Y112990D02*
Y113778D01*
X166142Y190550D02*
X166929D01*
X166536D01*
Y188583D01*
X166929Y188189D01*
X167323D01*
X167717Y188583D01*
X165355Y188189D02*
Y190550D01*
X164174D01*
X163781Y190157D01*
Y189370D01*
X164174Y188976D01*
X165355D01*
X162994Y190550D02*
X161419D01*
Y190157D01*
X162994Y188583D01*
Y188189D01*
X16523Y87059D02*
X17311D01*
X16917D01*
Y85091D01*
X17311Y84698D01*
X17704D01*
X18098Y85091D01*
X15736Y84698D02*
Y87059D01*
X14556D01*
X14162Y86665D01*
Y85878D01*
X14556Y85485D01*
X15736D01*
X11801Y87059D02*
X12588Y86665D01*
X13375Y85878D01*
Y85091D01*
X12981Y84698D01*
X12194D01*
X11801Y85091D01*
Y85485D01*
X12194Y85878D01*
X13375D01*
X200788Y140157D02*
X201575D01*
X201182D01*
Y138189D01*
X201575Y137795D01*
X201969D01*
X202362Y138189D01*
X200001Y137795D02*
Y140157D01*
X198820D01*
X198426Y139763D01*
Y138976D01*
X198820Y138582D01*
X200001D01*
X196065Y140157D02*
X197639D01*
Y138976D01*
X196852Y139370D01*
X196459D01*
X196065Y138976D01*
Y138189D01*
X196459Y137795D01*
X197246D01*
X197639Y138189D01*
X16523Y106759D02*
X17311D01*
X16917D01*
Y104791D01*
X17311Y104398D01*
X17704D01*
X18098Y104791D01*
X15736Y104398D02*
Y106759D01*
X14556D01*
X14162Y106366D01*
Y105578D01*
X14556Y105185D01*
X15736D01*
X12194Y104398D02*
Y106759D01*
X13375Y105578D01*
X11801D01*
X112598Y190551D02*
Y189763D01*
Y190157D01*
X110630D01*
X110236Y189763D01*
Y189370D01*
X110630Y188976D01*
X110236Y191338D02*
X112598D01*
Y192518D01*
X112204Y192912D01*
X111417D01*
X111023Y192518D01*
Y191338D01*
X110236Y193699D02*
Y194486D01*
Y194093D01*
X112598D01*
X112204Y193699D01*
Y195667D02*
X112598Y196061D01*
Y196848D01*
X112204Y197241D01*
X111811D01*
X111417Y196848D01*
Y196454D01*
Y196848D01*
X111023Y197241D01*
X110630D01*
X110236Y196848D01*
Y196061D01*
X110630Y195667D01*
X214173Y48425D02*
Y47638D01*
Y48031D01*
X212205D01*
X211811Y47638D01*
Y47244D01*
X212205Y46850D01*
X211811Y49212D02*
X214173D01*
Y50393D01*
X213779Y50786D01*
X212992D01*
X212598Y50393D01*
Y49212D01*
X211811Y51573D02*
Y52360D01*
Y51967D01*
X214173D01*
X213779Y51573D01*
X211811Y53541D02*
Y54328D01*
Y53935D01*
X214173D01*
X213779Y53541D01*
X214173Y63779D02*
Y62992D01*
Y63385D01*
X212205D01*
X211811Y62992D01*
Y62598D01*
X212205Y62205D01*
X211811Y64566D02*
X214173D01*
Y65747D01*
X213779Y66141D01*
X212992D01*
X212598Y65747D01*
Y64566D01*
X211811Y66928D02*
Y67715D01*
Y67321D01*
X214173D01*
X213779Y66928D01*
Y68896D02*
X214173Y69289D01*
Y70076D01*
X213779Y70470D01*
X212205D01*
X211811Y70076D01*
Y69289D01*
X212205Y68896D01*
X213779D01*
X91732Y189763D02*
Y188976D01*
Y189370D01*
X89764D01*
X89370Y188976D01*
Y188583D01*
X89764Y188189D01*
X89370Y190550D02*
X91732D01*
Y191731D01*
X91338Y192125D01*
X90551D01*
X90157Y191731D01*
Y190550D01*
X89370Y192912D02*
Y193699D01*
Y193305D01*
X91732D01*
X91338Y192912D01*
X89370Y196060D02*
X91732D01*
X90551Y194880D01*
Y196454D01*
X207874Y32283D02*
X208662D01*
X208268D01*
Y30315D01*
X208662Y29921D01*
X209055D01*
X209449Y30315D01*
X207087Y29921D02*
Y32283D01*
X205907D01*
X205513Y31889D01*
Y31102D01*
X205907Y30708D01*
X207087D01*
X204726Y29921D02*
X203939D01*
X204332D01*
Y32283D01*
X204726Y31889D01*
X201184Y29921D02*
X202758D01*
X201184Y31495D01*
Y31889D01*
X201577Y32283D01*
X202364D01*
X202758Y31889D01*
X159843Y33465D02*
X162204D01*
Y34645D01*
X161810Y35039D01*
X161023D01*
X160630Y34645D01*
Y33465D01*
Y34252D02*
X159843Y35039D01*
X160236Y35826D02*
X159843Y36220D01*
Y37007D01*
X160236Y37400D01*
X161810D01*
X162204Y37007D01*
Y36220D01*
X161810Y35826D01*
X161417D01*
X161023Y36220D01*
Y37400D01*
X164961Y33465D02*
X167322D01*
Y34645D01*
X166929Y35039D01*
X166141D01*
X165748Y34645D01*
Y33465D01*
Y34252D02*
X164961Y35039D01*
X166929Y35826D02*
X167322Y36220D01*
Y37007D01*
X166929Y37400D01*
X166535D01*
X166141Y37007D01*
X165748Y37400D01*
X165354D01*
X164961Y37007D01*
Y36220D01*
X165354Y35826D01*
X165748D01*
X166141Y36220D01*
X166535Y35826D01*
X166929D01*
X166141Y36220D02*
Y37007D01*
X176772Y20472D02*
X177166Y20865D01*
X177953D01*
X178347Y20472D01*
Y18898D01*
X177953Y18504D01*
X177166D01*
X176772Y18898D01*
X174411Y20865D02*
X175985D01*
Y19685D01*
X175198Y20078D01*
X174804D01*
X174411Y19685D01*
Y18898D01*
X174804Y18504D01*
X175592D01*
X175985Y18898D01*
X185039Y43307D02*
X185432Y42913D01*
Y42126D01*
X185039Y41732D01*
X183464D01*
X183071Y42126D01*
Y42913D01*
X183464Y43307D01*
X185432Y45668D02*
X185039Y44881D01*
X184252Y44094D01*
X183464D01*
X183071Y44487D01*
Y45274D01*
X183464Y45668D01*
X183858D01*
X184252Y45274D01*
Y44094D01*
X201182Y35826D02*
X201575Y36220D01*
X202362D01*
X202756Y35826D01*
Y34252D01*
X202362Y33858D01*
X201575D01*
X201182Y34252D01*
X200395Y36220D02*
X198820D01*
Y35826D01*
X200395Y34252D01*
Y33858D01*
X191339Y20472D02*
X191733Y20865D01*
X192520D01*
X192913Y20472D01*
Y18898D01*
X192520Y18504D01*
X191733D01*
X191339Y18898D01*
X190552Y20472D02*
X190158Y20865D01*
X189371D01*
X188978Y20472D01*
Y20078D01*
X189371Y19685D01*
X188978Y19291D01*
Y18898D01*
X189371Y18504D01*
X190158D01*
X190552Y18898D01*
Y19291D01*
X190158Y19685D01*
X190552Y20078D01*
Y20472D01*
X190158Y19685D02*
X189371D01*
X194882Y46062D02*
Y44094D01*
X194488Y43701D01*
X193701D01*
X193308Y44094D01*
Y46062D01*
X192520Y45669D02*
X192127Y46062D01*
X191340D01*
X190946Y45669D01*
Y45275D01*
X191340Y44881D01*
X191733D01*
X191340D01*
X190946Y44488D01*
Y44094D01*
X191340Y43701D01*
X192127D01*
X192520Y44094D01*
D52*
X95881Y211575D02*
X98880D01*
Y213074D01*
X98380Y213574D01*
X97381D01*
X96881Y213074D01*
Y211575D01*
Y212575D02*
X95881Y213574D01*
Y216573D02*
Y214574D01*
X97880Y216573D01*
X98380D01*
X98880Y216073D01*
Y215074D01*
X98380Y214574D01*
X101181Y211575D02*
X104180D01*
Y213074D01*
X103680Y213574D01*
X102681D01*
X102181Y213074D01*
Y211575D01*
Y212575D02*
X101181Y213574D01*
Y214574D02*
Y215574D01*
Y215074D01*
X104180D01*
X103680Y214574D01*
X129271Y26803D02*
X129771Y26303D01*
Y25303D01*
X129271Y24803D01*
X127271D01*
X126772Y25303D01*
Y26303D01*
X127271Y26803D01*
X129271Y27802D02*
X129771Y28302D01*
Y29302D01*
X129271Y29801D01*
X128771D01*
X128271Y29302D01*
Y28802D01*
Y29302D01*
X127771Y29801D01*
X127271D01*
X126772Y29302D01*
Y28302D01*
X127271Y27802D01*
X83208Y39401D02*
X83708Y38901D01*
Y37901D01*
X83208Y37402D01*
X81208D01*
X80709Y37901D01*
Y38901D01*
X81208Y39401D01*
X80709Y41900D02*
X83708D01*
X82208Y40401D01*
Y42400D01*
X208511Y170110D02*
Y169110D01*
Y169610D01*
X206012D01*
X205512Y169110D01*
Y168610D01*
X206012Y168110D01*
X205512Y171109D02*
X208511D01*
Y172609D01*
X208011Y173109D01*
X207011D01*
X206511Y172609D01*
Y171109D01*
X205512Y174108D02*
Y175108D01*
Y174608D01*
X208511D01*
X208011Y174108D01*
X198668Y170110D02*
Y169110D01*
Y169610D01*
X196169D01*
X195669Y169110D01*
Y168610D01*
X196169Y168110D01*
X195669Y171109D02*
X198668D01*
Y172609D01*
X198169Y173109D01*
X197169D01*
X196669Y172609D01*
Y171109D01*
X195669Y176108D02*
Y174108D01*
X197669Y176108D01*
X198169D01*
X198668Y175608D01*
Y174608D01*
X198169Y174108D01*
X189062Y170110D02*
Y169110D01*
Y169610D01*
X186563D01*
X186063Y169110D01*
Y168610D01*
X186563Y168110D01*
X186063Y171109D02*
X189062D01*
Y172609D01*
X188562Y173109D01*
X187563D01*
X187063Y172609D01*
Y171109D01*
X188562Y174108D02*
X189062Y174608D01*
Y175608D01*
X188562Y176108D01*
X188062D01*
X187563Y175608D01*
Y175108D01*
Y175608D01*
X187063Y176108D01*
X186563D01*
X186063Y175608D01*
Y174608D01*
X186563Y174108D01*
X83208Y26803D02*
X83708Y26303D01*
Y25303D01*
X83208Y24803D01*
X81208D01*
X80709Y25303D01*
Y26303D01*
X81208Y26803D01*
X80709Y29801D02*
Y27802D01*
X82708Y29801D01*
X83208D01*
X83708Y29302D01*
Y28302D01*
X83208Y27802D01*
D83*
X82587Y87204D02*
X82787D01*
X70287D02*
X70387D01*
X82487Y87104D02*
X82787D01*
X75087D02*
X77187D01*
X70287D02*
X70487D01*
X82487Y87004D02*
X82787D01*
X75087D02*
X77187D01*
X70287D02*
X70587D01*
X82387Y86904D02*
X82787D01*
X74887D02*
X77887D01*
X70287D02*
X70687D01*
X82187Y86804D02*
X82787D01*
X74387D02*
X79087D01*
X70287D02*
X70787D01*
X82087Y86704D02*
X82687D01*
X73987D02*
X79087D01*
X70287D02*
X70887D01*
X82087Y86604D02*
X82687D01*
X76687D02*
X79087D01*
X73787D02*
X75587D01*
X70387D02*
X70987D01*
X81987Y86504D02*
X82587D01*
X73587D02*
X79287D01*
X70487D02*
X71087D01*
X81887Y86404D02*
X82487D01*
X77987D02*
X79387D01*
X75087D02*
X77187D01*
X73387D02*
X74787D01*
X72587D02*
X72987D01*
X70587D02*
X71187D01*
X81787Y86304D02*
X82287D01*
X78287D02*
X79487D01*
X75087D02*
X77187D01*
X73287D02*
X74387D01*
X72487D02*
X73187D01*
X70687D02*
X71187D01*
X81687Y86204D02*
X82287D01*
X78287D02*
X79587D01*
X75087D02*
X77187D01*
X72387D02*
X74187D01*
X70787D02*
X71287D01*
X81587Y86104D02*
X82187D01*
X78287D02*
X79687D01*
X75087D02*
X77187D01*
X72287D02*
X73887D01*
X70887D02*
X71387D01*
X81487Y86004D02*
X82087D01*
X78287D02*
X79787D01*
X72287D02*
X73787D01*
X70987D02*
X71587D01*
X81387Y85904D02*
X81987D01*
X79287D02*
X79887D01*
X78287D02*
X79087D01*
X72187D02*
X73587D01*
X71087D02*
X71687D01*
X81287Y85804D02*
X81887D01*
X79387D02*
X79887D01*
X78287D02*
X79087D01*
X72187D02*
X73587D01*
X71187D02*
X71787D01*
X81187Y85704D02*
X81787D01*
X72287D02*
X80387D01*
X71287D02*
X71887D01*
X81087Y85604D02*
X81687D01*
X72287D02*
X80387D01*
X71387D02*
X71887D01*
X80987Y85504D02*
X81587D01*
X72287D02*
X80387D01*
X71487D02*
X71987D01*
X80887Y85404D02*
X81487D01*
X72387D02*
X80387D01*
X71587D02*
X72087D01*
X80787Y85304D02*
X81387D01*
X72487D02*
X80387D01*
X71687D02*
X72187D01*
X80787Y85204D02*
X81287D01*
X79387D02*
X79887D01*
X72987D02*
X73487D01*
X71687D02*
X72387D01*
X80587Y85104D02*
X81187D01*
X79387D02*
X79787D01*
X72987D02*
X73487D01*
X71787D02*
X72487D01*
X80587Y85004D02*
X81087D01*
X79387D02*
X79787D01*
X72987D02*
X73487D01*
X71887D02*
X72487D01*
X80487Y84904D02*
X81087D01*
X79387D02*
X79787D01*
X72987D02*
X73487D01*
X71987D02*
X72587D01*
X80387Y84804D02*
X80987D01*
X79287D02*
X79787D01*
X73087D02*
X73487D01*
X72087D02*
X72687D01*
X80287Y84704D02*
X80887D01*
X79287D02*
X79787D01*
X73087D02*
X73487D01*
X72187D02*
X72787D01*
X80187Y84604D02*
X80687D01*
X79287D02*
X79787D01*
X72287D02*
X73687D01*
X80087Y84504D02*
X80687D01*
X79287D02*
X79787D01*
X72287D02*
X73687D01*
X79987Y84404D02*
X80587D01*
X79287D02*
X79787D01*
X72287D02*
X73687D01*
X79887Y84304D02*
X80487D01*
X79287D02*
X79787D01*
X72287D02*
X73687D01*
X79287Y84204D02*
X80387D01*
X72287D02*
X73687D01*
X79287Y84104D02*
X80287D01*
X72787D02*
X73687D01*
X72287D02*
X72687D01*
X79287Y84004D02*
X80187D01*
X72887D02*
X73687D01*
X72287D02*
X72687D01*
X79287Y83904D02*
X80087D01*
X72987D02*
X73687D01*
X72287D02*
X72687D01*
X79287Y83804D02*
X79987D01*
X73087D02*
X73687D01*
X72287D02*
X72687D01*
X79287Y83704D02*
X79887D01*
X73187D02*
X73787D01*
X72287D02*
X72687D01*
X79287Y83604D02*
X79787D01*
X73187D02*
X73887D01*
X72287D02*
X72687D01*
X79087Y83504D02*
X79687D01*
X72287D02*
X73987D01*
X78987Y83404D02*
X79687D01*
X72287D02*
X74087D01*
X78887Y83304D02*
X79687D01*
X72287D02*
X74187D01*
X78787Y83204D02*
X79687D01*
X74687D02*
X77287D01*
X72287D02*
X74287D01*
X78787Y83104D02*
X79687D01*
X74687D02*
X77287D01*
X73787D02*
X74387D01*
X73187D02*
X73687D01*
X78687Y83004D02*
X79687D01*
X74687D02*
X77287D01*
X73887D02*
X74487D01*
X73187D02*
X73687D01*
X78587Y82904D02*
X79687D01*
X74687D02*
X77287D01*
X73987D02*
X74587D01*
X73187D02*
X73687D01*
X79187Y82804D02*
X79687D01*
X78487D02*
X79087D01*
X74087D02*
X77287D01*
X73187D02*
X73687D01*
X79087Y82704D02*
X79587D01*
X78387D02*
X78987D01*
X74187D02*
X77287D01*
X73187D02*
X73687D01*
X79087Y82604D02*
X79587D01*
X78287D02*
X78887D01*
X74287D02*
X77287D01*
X73287D02*
X73687D01*
X79087Y82504D02*
X79587D01*
X78187D02*
X78787D01*
X74387D02*
X77287D01*
X73287D02*
X73687D01*
X79087Y82404D02*
X79587D01*
X78087D02*
X78687D01*
X74487D02*
X77287D01*
X73287D02*
X73687D01*
X79087Y82304D02*
X79587D01*
X77987D02*
X78587D01*
X74587D02*
X75187D01*
X73287D02*
X73787D01*
X79087Y82204D02*
X79587D01*
X77887D02*
X78487D01*
X74687D02*
X75287D01*
X73287D02*
X73787D01*
X79087Y82104D02*
X79587D01*
X77787D02*
X78387D01*
X74787D02*
X75287D01*
X73287D02*
X73787D01*
X79087Y82004D02*
X79587D01*
X77687D02*
X78287D01*
X74887D02*
X75487D01*
X73287D02*
X73787D01*
X79087Y81904D02*
X79587D01*
X77587D02*
X78187D01*
X74987D02*
X75587D01*
X73287D02*
X73787D01*
X79087Y81804D02*
X79587D01*
X77487D02*
X78087D01*
X75087D02*
X75687D01*
X73287D02*
X73787D01*
X79087Y81704D02*
X79587D01*
X77387D02*
X77987D01*
X75187D02*
X75787D01*
X73287D02*
X73787D01*
X79087Y81604D02*
X79587D01*
X77387D02*
X77887D01*
X75287D02*
X75787D01*
X73287D02*
X73787D01*
X78987Y81504D02*
X79587D01*
X77287D02*
X77887D01*
X75387D02*
X75887D01*
X73287D02*
X73887D01*
X78987Y81404D02*
X79487D01*
X77187D02*
X77787D01*
X75487D02*
X75987D01*
X73387D02*
X73887D01*
X78987Y81304D02*
X79487D01*
X77087D02*
X77587D01*
X75587D02*
X76087D01*
X73387D02*
X73887D01*
X78987Y81204D02*
X79487D01*
X76987D02*
X77587D01*
X75587D02*
X76287D01*
X73387D02*
X73887D01*
X78987Y81104D02*
X79487D01*
X76887D02*
X77487D01*
X75687D02*
X76387D01*
X73387D02*
X73887D01*
X78987Y81004D02*
X79487D01*
X76787D02*
X77387D01*
X75787D02*
X76387D01*
X73387D02*
X73887D01*
X78987Y80904D02*
X79487D01*
X76687D02*
X77287D01*
X75887D02*
X76487D01*
X73387D02*
X73887D01*
X78987Y80804D02*
X79487D01*
X75987D02*
X77187D01*
X73387D02*
X73887D01*
X78987Y80704D02*
X79487D01*
X76087D02*
X77087D01*
X73387D02*
X73887D01*
X78987Y80604D02*
X79487D01*
X76187D02*
X76987D01*
X73387D02*
X73887D01*
X78987Y80504D02*
X79487D01*
X76287D02*
X76987D01*
X73387D02*
X73887D01*
X78987Y80404D02*
X79487D01*
X76187D02*
X77087D01*
X73387D02*
X73987D01*
X78887Y80304D02*
X79487D01*
X76187D02*
X77087D01*
X73487D02*
X73987D01*
X78887Y80204D02*
X79387D01*
X75987D02*
X77187D01*
X73487D02*
X73987D01*
X78887Y80104D02*
X79387D01*
X76687D02*
X77287D01*
X75887D02*
X76487D01*
X73487D02*
X73987D01*
X78887Y80004D02*
X79387D01*
X76787D02*
X77387D01*
X75787D02*
X76387D01*
X73487D02*
X73987D01*
X78887Y79904D02*
X79387D01*
X76887D02*
X77487D01*
X75687D02*
X76287D01*
X73487D02*
X73987D01*
X78887Y79804D02*
X79387D01*
X76987D02*
X77587D01*
X75587D02*
X76287D01*
X73487D02*
X73987D01*
X78887Y79704D02*
X79387D01*
X77087D02*
X77687D01*
X75487D02*
X76087D01*
X73487D02*
X73987D01*
X78887Y79604D02*
X79387D01*
X77187D02*
X77787D01*
X75487D02*
X75987D01*
X73487D02*
X73987D01*
X78887Y79504D02*
X79387D01*
X77287D02*
X77887D01*
X75387D02*
X75987D01*
X73487D02*
X73987D01*
X78887Y79404D02*
X79387D01*
X77387D02*
X77987D01*
X75287D02*
X75887D01*
X73487D02*
X73987D01*
X78887Y79304D02*
X79387D01*
X77487D02*
X78087D01*
X75187D02*
X75787D01*
X73487D02*
X74087D01*
X78887Y79204D02*
X79387D01*
X77587D02*
X78187D01*
X75087D02*
X75687D01*
X73587D02*
X74087D01*
X78787Y79104D02*
X79387D01*
X77687D02*
X78287D01*
X74987D02*
X75587D01*
X73587D02*
X74087D01*
X78787Y79004D02*
X79287D01*
X77787D02*
X78387D01*
X74887D02*
X75487D01*
X73587D02*
X74087D01*
X78787Y78904D02*
X79287D01*
X77887D02*
X78487D01*
X74787D02*
X75387D01*
X73587D02*
X74087D01*
X78787Y78804D02*
X79287D01*
X77987D02*
X78587D01*
X74687D02*
X75287D01*
X73587D02*
X74087D01*
X78787Y78704D02*
X79287D01*
X78087D02*
X78687D01*
X74587D02*
X75187D01*
X73587D02*
X74087D01*
X78187Y78604D02*
X79287D01*
X74487D02*
X75087D01*
X73587D02*
X74087D01*
X78287Y78504D02*
X79287D01*
X74387D02*
X74987D01*
X73587D02*
X74087D01*
X78387Y78404D02*
X79287D01*
X74287D02*
X74887D01*
X73587D02*
X74087D01*
X78487Y78304D02*
X79287D01*
X74187D02*
X74787D01*
X73587D02*
X74087D01*
X78587Y78204D02*
X79187D01*
X74187D02*
X74787D01*
X73587D02*
X74087D01*
X78687Y78104D02*
X79287D01*
X73587D02*
X74687D01*
X78787Y78004D02*
X79387D01*
X73687D02*
X74487D01*
X78787Y77904D02*
X79487D01*
X73687D02*
X74387D01*
X78687Y77804D02*
X79587D01*
X73687D02*
X74287D01*
X78687Y77704D02*
X79687D01*
X73587D02*
X74287D01*
X78687Y77604D02*
X79687D01*
X73587D02*
X74187D01*
X79287Y77504D02*
X79787D01*
X78687D02*
X79187D01*
X73487D02*
X74187D01*
X79387Y77404D02*
X79887D01*
X78687D02*
X79187D01*
X73387D02*
X74187D01*
X79487Y77304D02*
X79987D01*
X78687D02*
X79187D01*
X73287D02*
X74287D01*
X79487Y77204D02*
X80187D01*
X78687D02*
X79187D01*
X73187D02*
X74587D01*
X79587Y77104D02*
X80287D01*
X78687D02*
X79187D01*
X73087D02*
X74787D01*
X79687Y77004D02*
X80287D01*
X78687D02*
X79087D01*
X72987D02*
X74887D01*
X79787Y76904D02*
X80387D01*
X78687D02*
X79087D01*
X72887D02*
X74987D01*
X79887Y76804D02*
X80487D01*
X78687D02*
X79087D01*
X72787D02*
X75087D01*
X79987Y76704D02*
X80587D01*
X78687D02*
X79087D01*
X72687D02*
X75087D01*
X80087Y76604D02*
X80687D01*
X78587D02*
X79087D01*
X74287D02*
X75187D01*
X72587D02*
X73787D01*
X80187Y76504D02*
X80887D01*
X78587D02*
X79087D01*
X74387D02*
X75187D01*
X73887D02*
X74187D01*
X72487D02*
X73587D01*
X80287Y76404D02*
X80987D01*
X78587D02*
X79087D01*
X74587D02*
X75187D01*
X73687D02*
X74387D01*
X72387D02*
X73587D01*
X80387Y76304D02*
X80987D01*
X78587D02*
X79087D01*
X74587D02*
X75287D01*
X73687D02*
X74387D01*
X72387D02*
X73487D01*
X80487Y76204D02*
X81087D01*
X78587D02*
X79087D01*
X74587D02*
X75287D01*
X73587D02*
X74487D01*
X72287D02*
X73487D01*
X80587Y76104D02*
X81187D01*
X78587D02*
X79087D01*
X74687D02*
X75287D01*
X73587D02*
X74487D01*
X72187D02*
X73487D01*
X80687Y76004D02*
X81287D01*
X78587D02*
X79087D01*
X74587D02*
X75287D01*
X73587D02*
X74487D01*
X72787D02*
X73487D01*
X72087D02*
X72687D01*
X80787Y75904D02*
X81387D01*
X74587D02*
X79087D01*
X73587D02*
X74487D01*
X72787D02*
X73487D01*
X71987D02*
X72587D01*
X80887Y75804D02*
X81487D01*
X74587D02*
X79087D01*
X73687D02*
X74387D01*
X72787D02*
X73487D01*
X71887D02*
X72487D01*
X80987Y75704D02*
X81587D01*
X74487D02*
X78987D01*
X73787D02*
X74287D01*
X72887D02*
X73587D01*
X71787D02*
X72387D01*
X81087Y75604D02*
X81687D01*
X74387D02*
X78987D01*
X72887D02*
X73687D01*
X71687D02*
X72287D01*
X81187Y75504D02*
X81787D01*
X74187D02*
X78887D01*
X72987D02*
X73887D01*
X71587D02*
X72187D01*
X81287Y75404D02*
X81887D01*
X77987D02*
X78887D01*
X72987D02*
X75087D01*
X71487D02*
X72087D01*
X81387Y75304D02*
X81987D01*
X77987D02*
X78887D01*
X73087D02*
X74987D01*
X71387D02*
X71987D01*
X81487Y75204D02*
X82087D01*
X77987D02*
X78887D01*
X73187D02*
X74887D01*
X71287D02*
X71887D01*
X81587Y75104D02*
X82187D01*
X77987D02*
X78887D01*
X73287D02*
X74787D01*
X71187D02*
X71787D01*
X81687Y75004D02*
X82287D01*
X77987D02*
X78887D01*
X73387D02*
X74687D01*
X71087D02*
X71687D01*
X81787Y74904D02*
X82387D01*
X77987D02*
X78887D01*
X73587D02*
X74487D01*
X70987D02*
X71687D01*
X81887Y74804D02*
X82487D01*
X70887D02*
X71587D01*
X81987Y74704D02*
X82587D01*
X70887D02*
X71387D01*
X82087Y74604D02*
X82687D01*
X70787D02*
X71287D01*
X82187Y74504D02*
X82787D01*
X70687D02*
X71187D01*
X82287Y74404D02*
X82787D01*
X70487D02*
X71087D01*
X82387Y74304D02*
X82787D01*
X70487D02*
X71087D01*
X82487Y74204D02*
X82787D01*
X70387D02*
X70987D01*
X82587Y74104D02*
X82787D01*
X70287D02*
X70887D01*
X82687Y74004D02*
X82787D01*
X70287D02*
X70787D01*
X70287Y73904D02*
X70687D01*
X70287Y73804D02*
X70587D01*
X70287Y73704D02*
X70487D01*
X70287Y73604D02*
X70387D01*
X70487Y70504D02*
X82587D01*
X70487Y70404D02*
X82587D01*
X70487Y70304D02*
X82587D01*
X70487Y70204D02*
X82587D01*
X70487Y70104D02*
X82587D01*
X70487Y70004D02*
X82587D01*
X70487Y69904D02*
X82587D01*
X70487Y69804D02*
X82587D01*
X70487Y69704D02*
X82587D01*
X70487Y69604D02*
X82587D01*
X70487Y69504D02*
X82587D01*
X70487Y69404D02*
X82587D01*
X70487Y69304D02*
X82587D01*
X70487Y69204D02*
X82587D01*
X70487Y69104D02*
X82587D01*
X70487Y69004D02*
X82587D01*
X70487Y68904D02*
X82587D01*
X70487Y68804D02*
X82587D01*
X70487Y68704D02*
X82587D01*
X70487Y68604D02*
X82587D01*
X70487Y68504D02*
X82587D01*
X70487Y68404D02*
X82587D01*
X70487Y68304D02*
X82587D01*
X70487Y68204D02*
X82587D01*
X70487Y68104D02*
X82587D01*
X70487Y68004D02*
X82587D01*
X70487Y67904D02*
X82587D01*
X70487Y67804D02*
X82587D01*
X70487Y67704D02*
X82587D01*
X70487Y67604D02*
X82587D01*
X70487Y67504D02*
X82587D01*
D84*
X117125Y27165D02*
D03*
X93110Y27165D02*
D03*
X93111Y39764D02*
D03*
D85*
X114370Y27165D02*
D03*
X95866Y27165D02*
D03*
X95866Y39764D02*
D03*
D86*
X176772Y30118D02*
D03*
D87*
X176772Y32874D02*
D03*
D88*
X189567Y25591D02*
D03*
D89*
X192323D02*
D03*
M02*
